<svg xmlns="http://www.w3.org/2000/svg" id="svg2225" width="53.8" height="59.1"><path id="path2234" d="M20.56 57.423c-1.54-.987-4.977-2.052-7.638-2.367C5.443 54.17.427 51.432.036 48.022c-.179-1.56.326-3.584 1.121-4.498 3.554-4.082 5.768-11.883 7.217-25.427.808-7.554 3.264-11.735 6.894-11.735 1.253 0 3.455-1.338 4.935-3 3.784-4.246 9.532-4.246 13.316 0 1.48 1.662 3.682 3 4.935 3 3.63 0 6.086 4.181 6.894 11.735 1.449 13.544 3.663 21.345 7.216 25.427.796.914 1.3 2.938 1.122 4.498-.387 3.376-5.217 6.05-12.609 6.982-2.594.327-6.204 1.441-8.023 2.476-4.086 2.326-8.807 2.304-12.493-.057" style="fill:#000"/></svg>