<svg xmlns="http://www.w3.org/2000/svg" xml:space="preserve" id="Layer_1" width="302.3" height="55.3" x="0" y="0" viewBox="0 0 302.3 55.3"><path d="M47.8 8.8c-6-.8-8.8.5-12.8.6-3.9 0-9.3-2.5-14.5-3.6-6.8-1.4-13-.7-14.9-.5-.3-.4-.8-1.1-1.4-1.8-.7-.8-1.5-1.7-2.2-2.3l-.5.5c.7.6 1.5 1.4 2.1 2.2.7.8 1.2 1.5 1.4 1.9.3.4.5.9.8 1.5 2 4.6 7 17.1 8.5 31.5 0 .3.1.6.1.9.5 6.2.6 11.2.7 14.7h.7c0-3.1-.2-7.5-.5-12.8 2.5-.6 11.4-3.3 19.1-10.9 4.1-4.1 8.1-4.3 13.2-9.3 6.1-6.1 12-5.6 15.3-5.4-.1 0-1.4-5.4-15.1-7.2" style="fill:#000182"/><path d="M2.6 1.5c.4-.2.7-.5.6-.8-.2-.5-1-.8-1.9-.7C.5.1-.1.6 0 1.1c.1.3.5.6 1.1.6l-.1.1 11.9 53.5 1.6-.4zm29.5 26.6-.1-2.9-.6.2-4.4-13h1.1l-.6-1.5h-1.7l.1.4.2.6-13.1-.2-.4-1.2-1.8-.1.1.4.5 1.4h1.2l6.1 16.9-.5.2 2 3.2-.4-3.7-.5.2-1.2-3.2 2-.5 1.1 3.1-.5.2 1.9 3.1-.4-3.6-.5.2-1.1-3 2-.5 1 2.9-.5.2 1.9 2.9-.3-3.4-.5.2-1-2.9 2-.5 1 2.7-.5.2 1.8 2.8-.2-3.2-.5.2-.9-2.7 2-.5.9 2.6-.5.2 1.8 2.6-.2-3.1H29l-.9-2.6 2-.5.8 2.4-.5.2zM13.2 12.3h2.2l1 2.7-2.1.1zm13.2.1.7 2.1-2.1.1-.8-2.2zm-6.6 3 2.1-.1.8 2.4-2.1.2zm.4 2.6-2.1.2-1-2.7 2.1-.1zm2.3-2.8 2.1-.1.8 2.3-2.1.2zm2.7-.1 2.1-.1.7 2.1-2 .3zm-.8-.5-2.1.1-.8-2.4h2.2zm-2.6.1-2.1.1-.9-2.5H21zm-2.7.2L17 15l-1-2.7h2.2zm-2.5.6 1 2.7-2.1.2-1-2.8zm1.1 3.3 1 2.8-2 .3-1-2.9zm.6-.1 2.1-.2.9 2.6-2 .3zm2.6-.3 2.1-.2.9 2.5-2 .3zm2.6-.2 2.1-.2.8 2.3-2 .3zm2.7-.3 2.1-.2.7 2.1-2 .3zm1.1-6h-.5l-.2-.4h.5zm-15.4-.2-.2-.6h.6l.2.6zm6 13.6-1-2.9 2-.3 1 2.8zm2.5-.6-1-2.8 2-.3.9 2.6zm2.5-.6-.9-2.6 2-.3.9 2.5zm2.5-.5-.9-2.4 2-.3.8 2.3zm2.5-.6-.8-2.3 2-.3.7 2.2z" style="fill:#d6b154"/><path d="M67.4 41.5v-.3l.6-.2c.4-.1.6-.3.8-.6.1-.2.2-.5.2-.9V24.3c0-.4-.1-.7-.2-.9s-.4-.4-.8-.6l-.6-.2v-.3h7.2v.3l-.6.3c-.3.1-.6.3-.7.5s-.2.6-.2 1v15.2c0 .4.1.7.2.9s.4.4.7.5l.6.2v.3zm10.7 0v-.3l.4-.1q.6-.15.6-.6t-.3-.9l-5.6-7.9 7.4-7.5c.3-.3.4-.5.4-.8s-.2-.4-.6-.6l-.5-.2v-.3h4.2v.3l-.8.2c-.4.1-.8.3-1 .5-.3.2-.5.5-.9.8l-5.2 5.3 6.8 9.9c.3.4.6.8.8 1 .3.3.6.5 1.1.6l.4.1v.3h-7.2zm8.3 0v-.3l.4-.1c.4-.1.7-.3.8-.5s.2-.5.2-.9v-9.1c0-.4-.1-.7-.2-.9s-.4-.3-.8-.4l-.4-.1v-.3l5.3-1.7.3.3-.1 4.1v8.1c0 .4.1.7.2.9s.4.4.8.5l.3.1v.3zm3.4-15.9c-.7 0-1.2-.2-1.7-.6s-.7-.9-.7-1.6.2-1.2.7-1.6 1-.6 1.7-.6 1.2.2 1.7.6c.4.4.7.9.7 1.6 0 .6-.2 1.2-.7 1.6s-1 .6-1.7.6m4.7 15.9v-.3l.4-.1c.7-.2 1-.7 1-1.4v-9.1c0-.4-.1-.7-.2-.9s-.4-.3-.8-.4l-.4-.1v-.3l5-1.7.3.3.2 1.7c.7-.6 1.4-1.1 2.3-1.5s1.7-.6 2.5-.6c1.3 0 2.3.3 2.9 1 .7.7 1 1.8 1 3.2v8.4c0 .8.4 1.2 1.1 1.4l.3.1v.3h-6.8v-.3l.4-.1c.7-.2 1-.7 1-1.4v-9.3c0-1.2-.6-1.9-1.9-1.9-.9 0-1.8.4-2.8 1.3v9.9c0 .8.3 1.2 1 1.4l.3.1v.3zm21.7.4c-.9 0-1.8-.1-2.6-.3s-1.5-.5-2.1-.8v-3.5h.3l1 1.7c.4.8.9 1.3 1.4 1.7s1.2.6 2 .6c.9 0 1.7-.2 2.2-.6s.9-1 .9-1.7c0-.6-.2-1.2-.6-1.6s-1.2-.8-2.3-1.1l-1.2-.4c-1.2-.3-2.1-.9-2.8-1.6s-1-1.6-1-2.7c0-1.3.5-2.4 1.5-3.2 1-.9 2.4-1.3 4.3-1.3.8 0 1.5.1 2.1.2.7.2 1.3.4 1.9.7l-.2 3.1h-.3l-1-1.8c-.4-.6-.7-1.1-1.1-1.3-.4-.3-.9-.4-1.6-.4s-1.3.2-1.9.6-.9.9-.9 1.6.2 1.2.7 1.6 1.2.7 2.2 1.1l1.3.4q2.1.6 3 1.8.9 1.05.9 2.7c0 1.4-.6 2.5-1.7 3.4s-2.4 1.1-4.4 1.1m11.7 0c-1.1 0-2.1-.3-2.8-1-.8-.6-1.1-1.6-1.1-2.8 0-.9.5-1.7 1.4-2.5s2.4-1.3 4.4-1.7c.3-.1.7-.1 1-.2.4-.1.8-.1 1.2-.2v-2.3c0-1.3-.2-2.2-.5-2.8-.3-.5-.8-.8-1.5-.8-.5 0-.8.2-1.1.4-.3.3-.4.8-.5 1.6l-.1.3q0 1.2-.6 1.8c-.4.4-.8.6-1.4.6-.5 0-.9-.2-1.2-.5s-.5-.7-.5-1.2c0-.8.3-1.5.8-2 .6-.5 1.3-.9 2.2-1.2s1.9-.4 3-.4c1.7 0 3 .4 4 1.3.9.8 1.4 2.2 1.4 4.1v6.4c0 .9.4 1.3 1.2 1.3h.6l.3.2c-.4.5-.8.8-1.2 1.1s-1 .4-1.8.4c-.9 0-1.5-.2-2-.6s-.8-.9-1-1.6c-.6.6-1.2 1.1-1.8 1.6s-1.4.7-2.4.7m1.8-1.8c.4 0 .7-.1 1.1-.3s.7-.5 1.2-.9V34c-.2 0-.4.1-.6.1s-.4.1-.7.1q-1.35.3-2.1 1.2c-.5.6-.8 1.3-.8 2.2q0 1.2.6 1.8c.3.5.8.7 1.3.7m9.1 1.4v-.3l.3-.1c.7-.2 1-.7 1-1.5V24.1c0-.4-.1-.7-.2-.9-.2-.2-.4-.4-.8-.4l-.4-.1v-.3l5.3-1.2.3.3-.1 4.1v14.1c0 .4.1.7.2.9.2.2.4.4.8.5l.4.1v.3zm15.5-14.4c1.3 0 2.3.3 3.2.8s1.6 1.2 2 2.1c.5.9.7 1.9.7 3v.7c0 .2-.1.4-.1.6h-8.6c0 2.1.4 3.6 1.1 4.5s1.8 1.4 3.2 1.4c1 0 1.8-.2 2.3-.5.6-.3 1.2-.8 1.7-1.4l.3.3c-.6 1.1-1.4 1.9-2.4 2.5q-1.5.9-3.6.9c-1.4 0-2.6-.3-3.7-.9s-1.9-1.4-2.5-2.5q-.9-1.65-.9-3.9c0-1.6.3-2.9 1-4s1.6-2 2.7-2.5c1.2-.8 2.4-1.1 3.6-1.1m-.1.6c-.6 0-1 .2-1.4.5q-.6.45-.9 1.8c-.2.9-.3 2.1-.4 3.6h5c.2-2.1.1-3.6-.2-4.6-.4-.9-1.1-1.3-2.1-1.3m17.3 13.8v-.3l.9-.2c.7-.2 1-.7 1-1.4V34l-4.8-9.7c-.2-.4-.3-.7-.5-.9-.1-.2-.4-.4-.7-.5l-.5-.3v-.3h7.8v.3l-.5.2c-.4.2-.7.4-.7.7s0 .7.2 1.1l3.4 7.6 3.8-7.9c.2-.3.2-.6.2-1q0-.45-.6-.6l-.4-.1v-.3h3.5v.3l-.6.2c-.4.1-.6.3-.8.6-.2.2-.3.5-.5.9l-4 8.4v6.8c0 .4.1.7.2.9s.4.4.8.5l.9.2v.3h-8.1zm14.4.4c-1.1 0-2.1-.3-2.8-1-.8-.6-1.1-1.6-1.1-2.8 0-.9.5-1.7 1.4-2.5s2.4-1.3 4.4-1.7c.3-.1.7-.1 1-.2.4-.1.8-.1 1.2-.2v-2.3c0-1.3-.2-2.2-.5-2.8-.3-.5-.8-.8-1.5-.8-.5 0-.8.2-1.1.4-.3.3-.4.8-.5 1.6l-.1.3q0 1.2-.6 1.8c-.6.6-.8.6-1.4.6-.5 0-.9-.2-1.2-.5s-.5-.7-.5-1.2c0-.8.3-1.5.8-2 .6-.5 1.3-.9 2.2-1.2s1.9-.4 3-.4c1.7 0 3 .4 4 1.3.9.8 1.4 2.2 1.4 4.1v6.4c0 .9.4 1.3 1.2 1.3h.6l.3.2c-.4.5-.8.8-1.2 1.1s-1 .4-1.8.4c-.9 0-1.5-.2-2-.6s-.8-.9-1-1.6c-.6.6-1.2 1.1-1.8 1.6s-1.4.7-2.4.7m1.8-1.8c.4 0 .7-.1 1.1-.3s.7-.5 1.2-.9V34c-.2 0-.4.1-.6.1s-.4.1-.7.1q-1.35.3-2.1 1.2c-.5.6-.8 1.3-.8 2.2q0 1.2.6 1.8c.6.6.8.7 1.3.7m16.2 1.8q-1.95 0-3.6-.9c-1.1-.6-1.9-1.4-2.6-2.5-.6-1.1-.9-2.4-.9-4s.3-2.9 1-4 1.6-2 2.8-2.6 2.4-.9 3.8-.9c1.1 0 2.1.2 2.8.6.8.4 1.4.8 1.8 1.4s.6 1.2.6 1.8c0 .5-.2 1-.5 1.3s-.8.4-1.3.4c-.6 0-1-.2-1.4-.6-.3-.4-.6-.9-.6-1.6v-2c-.1-.3-.2-.5-.4-.7-.2-.1-.4-.2-.7-.2q-1.8 0-2.7 1.5c-.6 1-1 2.7-1 4.9 0 2 .4 3.4 1.1 4.5.7 1 1.8 1.6 3.3 1.6.9 0 1.6-.2 2.2-.5s1.1-.8 1.6-1.5l.3.2c-.5 1.1-1.2 2-2.2 2.6-.8.9-2 1.2-3.4 1.2m6.6-.4v-.3l.3-.1c.7-.2 1-.7 1-1.5V24.1c0-.4-.1-.7-.2-.9s-.4-.3-.8-.4l-.4-.1v-.3l5.1-1.2.5.3-.1 4.1v3.6c.7-.6 1.4-1 2.2-1.4s1.6-.6 2.6-.6c1.3 0 2.3.4 3 1.1s1.1 1.8 1.1 3.3v8.2c0 .4.1.7.2.9.2.2.4.4.8.5l.2.1v.3h-6.8v-.3l.3-.1c.7-.2 1-.7 1-1.5v-9.1c0-.8-.1-1.3-.4-1.6s-.7-.4-1.4-.4c-.4 0-.9.1-1.4.2-.5.2-1 .4-1.5.9v10.1c0 .8.3 1.2 1 1.5l.2.1v.3h-6.5zm22.1.4c-1.2 0-2.2-.3-2.9-.9s-1-1.6-1-3v-9.9h-2v-.3l.7-.1c.6-.1 1.1-.3 1.6-.6.4-.3.9-.6 1.3-1l2.4-2.6h.3l-.1 4.1h3.2v.6h-3.3v10.4c0 .7.1 1.2.4 1.5s.7.5 1.1.5.8-.1 1.1-.3.6-.5.9-.8l.3.3c-.4.7-.9 1.2-1.6 1.6-.6.3-1.4.5-2.4.5m21.3.1c-1.9 0-3.6-.4-5.1-1.1-1.5-.8-2.7-1.9-3.6-3.4s-1.3-3.4-1.3-5.5c0-1.7.3-3.1.8-4.4s1.3-2.3 2.2-3.2 2-1.5 3.2-1.9q1.8-.6 3.9-.6c1.1 0 2.1.1 3 .4s1.8.6 2.6 1l.1 3.6h-.3l-1.5-2.3c-.2-.4-.4-.7-.6-1s-.5-.5-.9-.7l-.9-.3c-.3-.1-.6-.1-1.1-.1-1.1 0-2.1.3-3.1.9-.9.6-1.7 1.6-2.2 3-.6 1.4-.8 3.3-.8 5.7s.3 4.3.8 5.6q.75 2.1 2.1 3t3 .9c.6 0 1.1 0 1.5-.1s.7-.2 1.1-.4.6-.4.8-.7.4-.6.5-1l1.3-2.8h.3l-.1 4.1c-.8.4-1.7.8-2.7 1-.7.1-1.8.3-3 .3m7.6-.5v-.3l.3-.1c.7-.2 1-.7 1-1.5V24.1c0-.4-.1-.7-.2-.9-.2-.2-.4-.4-.8-.4l-.4-.1v-.3l5.3-1.2.3.3-.1 4.1v14.1c0 .4.1.7.2.9.2.2.4.4.8.5l.4.1v.3zm13.3.4c-.8 0-1.4-.1-2.1-.4-.6-.3-1.1-.8-1.5-1.4s-.5-1.5-.5-2.6l.1-7.5c0-.4-.1-.8-.2-1-.2-.2-.4-.3-.7-.4l-.3-.1v-.3l5.2-1 .3.3-.1 4.1v7c0 .6.2 1.1.5 1.4s.8.4 1.3.4 1-.1 1.5-.2c.4-.2.9-.4 1.3-.7l.1-9.5c0-.4-.1-.8-.2-.9-.1-.2-.4-.3-.8-.4l-.3-.1v-.3l5.1-1.1.3.3-.1 4.1v7.9c0 .4.1.8.2 1s.4.4.8.6l.3.1v.3l-5.1.3-.3-1.7c-.6.5-1.3 1-2.1 1.3s-1.7.5-2.7.5m16.2-.1-4.9-.4v-.3l.3-.1c.8-.2 1.1-.7 1.1-1.5V24.1c0-.4-.1-.7-.2-.9s-.4-.4-.8-.4l-.4-.1v-.3l5.2-1.2.3.3-.1 4.1v2.9c.6-.4 1.3-.8 2.1-1s1.5-.3 2.3-.3c1.1 0 2.1.3 2.9.8.9.5 1.5 1.3 2 2.4s.7 2.5.7 4.1c0 1.7-.3 3.1-.8 4.2-.6 1.1-1.3 1.9-2.2 2.5s-1.9.8-3 .8c-.7 0-1.4-.1-2.2-.3-.7-.2-1.4-.5-1.9-.8zm3.1-.9c.6 0 1.2-.2 1.6-.6s.8-1 1.1-2c.3-.9.4-2.2.4-3.9s-.1-2.9-.4-3.8-.6-1.5-1.1-1.9c-.5-.3-1-.5-1.6-.5-.9 0-1.8.3-2.5.8v11.1c.4.2.7.4 1.1.5s.9.3 1.4.3"/></svg>