<svg xmlns="http://www.w3.org/2000/svg" id="Layer_1" width="100" height="100" viewBox="0 0 100 100"><defs><style>.st3{fill:#130c0e}</style></defs><path d="M50.708 98.063c26.855 0 48.626-21.587 48.626-48.216S77.564 1.632 50.708 1.632 2.082 23.218 2.082 49.847s21.77 48.216 48.626 48.216" style="fill:#fff"/><path d="M42.752 29.569c-.317-.004-.576.3-.58.677-.003.378.251.686.568.689s.578-.301.581-.678c.002-.378-.252-.686-.569-.689m-.635 2.6c-.002.352.26.642.588.644s.596-.28.6-.634c.002-.352-.261-.641-.589-.643-.327-.004-.595.28-.598.633m6.81-5.513a.655.655 0 0 0-.538-.752.654.654 0 0 0-.733.565c-.053.364.188.701.539.753s.679-.201.732-.566m2.947.715c.003-.323-.23-.587-.519-.59s-.526.257-.528.582c-.003.322.23.586.518.588s.525-.257.529-.58m10.507-.946a.67.67 0 0 0-.664-.68.67.67 0 0 0-.677.668.67.67 0 0 0 .665.682.673.673 0 0 0 .676-.67m1.556.468c.003-.388-.265-.705-.598-.708s-.606.31-.61.698c-.002.39.265.706.598.708.332.004.606-.309.61-.698m1.463.963c.003-.403-.294-.732-.665-.735-.37-.004-.673.32-.677.722-.003.403.294.73.665.734.37.003.674-.32.677-.722m1.025 1.38a.67.67 0 0 0-.665-.671.667.667 0 0 0-.677.66.67.67 0 0 0 .666.672.67.67 0 0 0 .676-.66M63.13 43.203l.732-.169-.308.822h-.145l-.442-.37zm-.133-12.217s-1.093-.058-2.036-1.018c0 0-1.18-1.2-2.617.025 0 0-1.267.765-2.79.704.838.164-.972.408-.34-1.452 0 0 .24-.078.594-.199l.474-.067.822-.28.796-.374.242-.156.526-.193.437-.169.376-.117.236-.072.409-.093.28-.021.454-.043.217.002.43.06.333.072.31.058.227.1.102.028.178.103.31.226.45.36h.044q.103.104.204.217c-.32-.28 1.432 1.643 1.062 3.875l.021.166-.007.009c-.102-.277-.74-1.918-1.744-1.751m-4.988 21.919-.793 1.473-3.94-5.837.452-.147-.035-.146.875-.209.019.08.025-.008zm-1.24 2.483-.823 1.6-5.906-8.39 1.605-.075zm-3.924-24.45s-1.415-.85-2.218-.864c0 0-1.084-.158-1.559-.257l.017.017c-.073-.052-.456-.243-1.258.4 0 0-.624.613-1.431.558 0 0-.523-.099-1.29.513 0 0-.715.33-1.01 1.433-.462-.642-.87-3.26 2.414-4.63.188-.085 1.682-.855 4.307.16 0 0 1.35.91 1.921.82 0 0 .2 1.524.107 1.85m-6.08 20.266.048-.074-.01-.013-.045.04-.023-.129-.018-.024c-.005-.087.006-.041.018.024l.068.09.034-.033-.024.045 7.322 9.654-.837 1.62-7.713-10.456s1.07-.371 1.18-.744m6.01 12.446-.654 1.214-9.033-11.978s.675-.033 1.364-.3zm-1.149 2.145-.58 1.121-10.052-12.683c.218-.556.177-.66.177-.66.327-.086 1.325.198 1.325.198zm-1.036 2.166-2.044 3.965c-.001-.193-.227-1.474-.5-1.57l.003-.006c-.068.024-.136.026-.136.026s-.757-.072.177-.044l-.003.002.035-.02c.819-.611.054-1.765.054-1.765 1.046-1.194-.41-2.074-.41-2.074.73-.954-.803-1.504-.803-1.504.23-1.22-1.32-1.468-1.32-1.468.011-1.261-1.848-1.074-1.848-1.074.674-1.313-1.112-1.08-1.112-1.08.359-1.354-1.054-1.471-1.054-1.471-.41-1.997-2.274-2.682-2.274-2.682 1.63-1.518-.26-.982-.19-1.302.07-.328.184-1.677.184-1.677l.605.286zm3.996-8.139-6.626-9.157s.486-.722.445-1.116c0 0 .69-.199.69-.283l.127.122 6.324 8.923zm3.872-8.142-3.35-4.608s4.452.329 4.756-1.776c0 0 1.71-.289 1.83-.563 0 0 .358 1.111-.218 1.772 0 0-1.066.576-1.933 2.833 0 0-.56 2.218-1.085 2.343m6.699-19.168.003-.01.003.008zm-2.234 7.61c.312-.067.495-.112.495-.112.052-.486.657-1.61.657-1.61-.347-1.519 1.078-4.518 1.078-4.518a.5.5 0 0 1-.109-.22l.134.019.052-.006c.059.055.132.09.214.09.186.002.336-.161.339-.365a.4.4 0 0 0-.049-.192l.011-.109-.02-.146.168.032c.324.003.59-.292.593-.658a.7.7 0 0 0-.2-.502.663.663 0 0 0-.898-.111 4 4 0 0 0 .067-.59.63.63 0 0 0 .494.254.65.65 0 0 0 .646-.658.65.65 0 0 0-.634-.67.64.64 0 0 0-.561.34c-.239-1.135-1.105-1.615-1.217-1.733l-.177-.183.001-.088-.077-.186-.263-.182-.331-.277-.264-.14-.892-.373-.251-.01a4.4 4.4 0 0 0-1.652-.123.71.71 0 0 0 .281-.555.7.7 0 0 0-.074-.312.713.713 0 0 0-1.391.213.7.7 0 0 0 .03.2.71.71 0 0 0 .51.574 5 5 0 0 0-.25.077l-.07.002-.311.15-.251.068-.164.097h-.162a.72.72 0 0 0 .252-.544c.003-.388-.288-.706-.652-.709-.363-.004-.66.308-.664.698a.684.684 0 0 0 .576.7l-.27.133-.445.19-.108.111-.185.043a.62.62 0 0 0 .212-.461.61.61 0 0 0-.6-.623.61.61 0 0 0-.609.612.61.61 0 0 0 .568.62 5 5 0 0 1-.21.093l-.19.067c-.302-.035-.44-1.298-.44-1.298l.217-.75c-.022-1.014-.641-1.521-.94-1.766.223.027-.022-.925-.022-.925l.915.41c.524-1.553.137-2.571.137-2.571-.506.409-1.454 1.146-1.454 1.146.362-.883.637-1.76.637-1.76-1.086-.899-2.53-.048-2.53-.048l.725 1.098.308.615-1.395-.967c-.36 1.602.238 2.275.238 2.275l.791-.528.381.011c-.575.485-.75 1.237-.75 1.237-1.121 1.448-.33 2.613-.378 2.565l.066.048c-.261.035-.467.318-.47.663a.8.8 0 0 0 .056.31c-.606.106-1.942-.81-1.942-.81l-.285-.051a.59.59 0 0 0 .406-.49c.048-.323-.155-.621-.452-.665s-.578.182-.625.506a.6.6 0 0 0 .243.583c-1.119-.149-1.986-.073-2.632.078.22-.1.394-.321.435-.6.06-.417-.19-.798-.56-.852-.37-.055-.72.238-.782.654-.06.416.19.798.56.852l.122.004c-.638.18-1.022.42-1.187.537a.94.94 0 0 0 .255-.527c.064-.438-.16-.834-.502-.884-.34-.05-.669.265-.733.704-.065.437.16.833.5.883a.5.5 0 0 0 .298-.05c-.463.338-.825.7-1.103 1.068a.8.8 0 0 0 .119-.414c.003-.39-.256-.706-.578-.708-.322-.004-.586.31-.59.698s.256.705.578.708a.53.53 0 0 0 .411-.2c-1.084 1.52-.805 3.163-.558 3.97a.6.6 0 0 0-.472-.239c-.346-.003-.629.293-.632.661s.275.668.62.671.628-.292.631-.66l-.001-.02.04.095a.79.79 0 0 1-.404.598c.208.634 1.467 2.98 1.467 2.98-.055.95.377 3.323.377 3.323.303-.258.677-.135.894-.025-.555.058-.88.098-.88.098-3.274 1.769-3.196 3.646-3.196 3.646 1.364 1.82.497 3.05.497 3.05-1.114 2.32-3.342 1.302-3.342 1.302.386-.567-.741-2.195-.741-2.195-.513-1.146.134-.175.134-.175s-.974-1.689.4-1.01c1.372.678 1.406-1.129 1.406-1.129 1.053-.838.47-1.773.47-1.773 1.009-1.086-.506-1.51-.506-1.51-.712-.059-.898-.721-.898-.721-1.494-3.26-4.082-2.176-4.632-1.287-.185.302-.538.459-.767-.273-.056-.18-.45.31-.45.31.186.523.529.938.529.938-.145.33-.039 1.015-.039 1.015.062 1.085-.89 1.936-.89 1.936l.692.47c.184 2.892 1.306 2.253 1.88 2.062-.396 4.553-3.517 6.085-3.517 6.085.207.848.99 1.554.99 1.554.345 1.349.764 4.775.764 4.775-.584 1.484-.222 1.538-.222 1.538.558 3.615 4.264 6.716 4.264 6.716 7.31 5.264 7.678 9.26 7.726 9.516-1.257-.391-1.502.32-1.502.32-.723 1.23.698 1.956.698 1.956 1.85.635 2.438-.803 2.438-.803.478-.281 3.247.489 3.247.489s-.013.03 0 .124c.135 1.001 1.164-.08 1.164-.08.965-1.936 4.032-1.785 4.228-1.784 1.075.713 1.269-.692 1.269-.692l7.496-27.789-.388-.703c.238-.094 1.003-1.552 1.003-1.552 1.346-1.607 1.341-.263 1.341-.263.113-1.256-.744-1.284-1.502-1.059l-.02.018.005-.012-.06.019.07-.042c.16-.44-.229-2.249-.229-2.249 2.492-1.576 2.163-1.484 2.06-2.011-1.66.59-3.284.644-4.176.614" style="fill:#ffd51e"/><path d="M63.193 39.9c-.292-.009-.584-.019-.785.065.114-.447.375-1.09.935-.848.092.164-.056.58-.15.783m-3.994-.249c-.392.008-.768.001-1.07-.08.027-.68.625-1.26 1.293-.845.022.406.01.779-.223.925m-4.035-.606c-.056.106-.182.476-.466.56-.45-.07-.958-.081-1.337-.222l.006-.565c.376-.411 1.345-.289 1.76.017zm-4.814.6c-.263.183-.81.179-1.07-.01-.155-1.213 1.449-1.027 1.07.01m-4.526.553c-.278.077-.58-.133-.673-.47-.093-.335.056-.67.336-.748.277-.078.578.133.672.47.092.335-.057.671-.335.748m17.825-1.376-.218.02-.847-.172-1.468-.272-1.84-.155-1.22-.13-1.552-.014-2.299-.02-.93-.007-1.12.11-1.593-.015-2.072.194-2.216.166-1.324-.011.332 2.16.247-.027.51-.11.426-.104.704-.14 1.493-.111 2.048-.002 1.924.016 2.215.06 1.8.12 2.11.018 1.72-.13 1.698.016 1.056-.095.05-.005.02-.146.062-.314zm-11.323-12.71 1.113-.28-.004-.089-.011-.25-.012-.316-.011-.173-.006-.262s-.012-.009-.11.006c-.825.11-.959 1.364-.959 1.364m3.37-.084s-.325-1.22-1.135-1.275c-.098-.007-.12-.003-.12-.003l.005.2.003.133v.227l-.004.188-.013.36zm-2.173 6.174a.35.35 0 0 0 .34.355.347.347 0 0 0 .347-.349.347.347 0 0 0-.34-.354.346.346 0 0 0-.347.347m.009-1.046a.347.347 0 0 0 .34.354.347.347 0 0 0 .347-.347.35.35 0 0 0-.34-.355.35.35 0 0 0-.347.348m.008-.946c-.001.235.15.426.34.428s.345-.187.347-.421c.002-.235-.15-.426-.339-.428-.191-.001-.346.187-.348.421m.01-1.18c0 .2.151.364.34.365s.346-.16.348-.36a.354.354 0 0 0-.34-.365.35.35 0 0 0-.347.36m.755-1.205c.001-.165-.178-.3-.402-.301s-.407.13-.41.293c0 .165.18.3.404.303.225.002.407-.131.408-.295m-8.739 10.097.053-.019-.829-.51.044.725zm4.881-.478.18-.093-.086-.099-.162-.148-.187-.15-.245-.249-.186-.252-.156-.268-.043.216-.111.392-.508.691-.061.076.116.002.42-.047.773-.02zm4.868-.292c-.583-.176-.899-.948-.97-1.065 0 0-.071.474-.214.672-.206.28-.522.563-.522.563.043-.008 2.197-.021 1.706-.17m2.931.196 1.58.092-.04-.079-.629-1.014-.36.47zm5.64.606-.023-.743-.905.592.063.016z" style="fill:#b09344"/><path d="M34.383 39.173c-.28-.033-.156-.46-.424-.504.028.173-.132.154-.074.356.12.381 1.025.68 1.07.01-.192-.175-.256.218-.572.138m5.197 1.472c-.06-1.173-1.134-2.33-2.333-2.518-.923-.145-2.01-.007-2.362.764 1.623-1.165 3.57-.332 4.273.965.15.278.09.652.422.789m-1.728.456c.05.43.386.534.425.8-.093.293-.362.316-.41.652.538-.05.53.092.897.514.483.225.195-.295.195-.295s-.246-.29-.356-.472c.023-.43-.339-1.166-.339-1.166s-.117-.274-.412-.033m2.723-.018c-.378-1.1-2.018.402-1.08 1.132.53.152 1.346-.523.647-.709-.06.053.03.385-.288.354-.105-.084-.318-.065-.283-.288.13-.425.504-.634 1.004-.49m.641.148c-.2-.11-.294.022-.57-.076.093.238.34.326.351.645-.026.357-.41.35-.364.782.436.11.825-.771.583-1.351M40.2 44.362c.226.784-.787 1.443-.98.762l-.036-.13.022-.053c.057-.178.25-.086.361-.158l.048-.07-.018-.148c-.059-.11-.196-.143-.327-.14a.4.4 0 0 0-.212.064l-.026.02c-.208.186-.172.621-.42.765a1 1 0 0 1-.048-.225c-.16-.953 1.079-1.535 1.636-.687m-.903 4.059c.049-1.117-1.254-2.228-.544-3.073.547.814 1.905.063 1.651-1.056.64.096 1.273-1.097.583-1.422.063.416-.13 1.086-.652 1.136-.37-.315-1.02-.591-1.709-.372.143-.15-.104-.361-.145-.542-.229-.105-.408-.601-.92-.039-.104.22-.092.56.208.573.325-.028-.142-.634.282-.459.177-.008.21.112.27.217-.069 1.012-1.159.778-1.193.165-.032-.565 1.15-1.248.516-1.85-.293-.142-.471-.145-.854-.293-.072-.441-.165-.721.009-1.071-.777.658-1.47-.056-1.779-.658-.647.343-1.185-.175-1.42-.654-.225.733.702 1.397 1.418 1.011.162.609.806 1.042 1.492.726-.372.257-.033.998.419 1.075q-.335-.052-.288.283c.45.122.443-.221.786-.207.123.868-.85 1.136-.588 1.994.167.54.958.546 1.423.44.217.567-.147 1.066-.086 1.64.088.82.96 1.54.907 2.505-1.019.047-2.173.329-2.293 1.05.708-.48 1.404-.781 2.361-.62.269.044.51.263.781.292 1.357.143 2.755-1.09 3.017-2.186.25-1.042-.555-1.985-.76-2.933.067-.427.449-.87.368-1.21-.51.225-.521.957-.727 1.492 1.987 1.53.074 5.426-2.532 4.046m3.547-5.82c.243-.031.483-.32.361-.497-.284.04-.522.203-.36.497m16.706-9.204c-.14.304-.57 1.254-.086 1.498-.253-.487.29-1.202.086-1.498m-9.574 1.343c.213-.322.697-.377.931-.49-.387-.2-.945.045-.931.49m-1.059-1.364c-.065.475-.023 1.428.414 1.645-.23-.458-.153-1.218-.414-1.645m-1.44 1.557c.297-.187.599-.295.929-.277-.264-.297-.907-.11-.93.277m9.926-.698c.363-.067.68-.216 1.07-.062-.153-.432-.912-.274-1.07.062m2.849.596c.308-.117.659-.204.927.007-.047-.467-.845-.42-.927-.008m-2.111 4.732c.02-.51.362-.964.813-.982a.83.83 0 0 1 .478.137c.022.406.013.78-.22.926q-.148.003-.291.002a3.2 3.2 0 0 1-.78-.083m-.117-.004-.003.093.089.024c.208.057.465.084.812.086h.291l.032-.002.028-.016c.297-.187.298-.63.276-1.032l-.002-.06-.053-.033a.97.97 0 0 0-.503-.157c-.51-.005-.943.488-.967 1.097m-4.646-.747c.118-.129.294-.205.492-.241q.12-.02.248-.023l.126.002.129.01q.127.015.25.045a1.5 1.5 0 0 1 .515.222l.038.211c-.029.053-.074.172-.149.289a.6.6 0 0 1-.318.271 7 7 0 0 0-.345-.045c-.35-.04-.707-.072-.99-.178zm-.098-.083-.03.033-.006.698.077.028c.275.104.614.141.942.177.145.017.295.033.434.055l.026.005.026-.008c.207-.061.316-.265.396-.415l.095-.15.027-.206v-.114l.004-.064-.051-.039c-.246-.182-.661-.301-1.055-.306-.388-.002-.702.106-.884.306m-2.92.909-.11.06a1.1 1.1 0 0 1-.425.074c-.101 0-.203-.012-.294-.036a.8.8 0 0 1-.24-.107c-.156-1.213 1.448-1.028 1.07.009m-1.004-.742c-.11.126-.233.357-.182.747l.006.051.041.03c.143.103.362.164.602.166.239.002.46-.055.604-.156l.03-.021.013-.034c.101-.278.082-.536-.05-.728a.67.67 0 0 0-.549-.28.68.68 0 0 0-.515.225m17.189-8.223a.67.67 0 0 1-.517.648l-.129.012-.146-.02-.042-.015-.094-.04-.042-.023-.084-.064-.028-.025-.093-.113.015.03-.065-.128-.039-.128-.001-.004-.014-.14a.68.68 0 0 1 .191-.47l.013-.01a.63.63 0 0 1 .442-.18l.128.014a.66.66 0 0 1 .505.656m-.846-.826-.134-.016-.126-.038a.666.666 0 0 1 .271-1.279.67.67 0 0 1 .665.671.665.665 0 0 1-.676.662m-.624.032c.226.803.278 2.3-.176 2.945-.037-.825-.199-2.234-.466-2.88-.532-1.281-1.702-2.535-3.403-2.599-2.083-.077-4.083 1.612-5.794 1.662.417-.582 1.618-.367 2.005-.981-.081.147-.078.15.07.073.683-.37 1.298-.453 1.935-.77.467.045.81-.039 1.072-.204 1.593-.032 2.733.38 3.558 1.102.023.56 1.02 1.015 1.2 1.652m-1.067-2.085c.005-.402.307-.725.678-.723.37.004.668.332.664.735s-.306.726-.677.722c-.37-.003-.668-.332-.665-.734m-.393-.369a.55.55 0 0 1-.216.105l-.122.013a.5.5 0 0 1-.234-.057.6.6 0 0 1-.191-.153l-.073-.105a.8.8 0 0 1-.099-.395c0-.145.04-.28.106-.391l.075-.104a.6.6 0 0 1 .193-.15.5.5 0 0 1 .235-.052l.122.015q.117.03.214.107a.7.7 0 0 1 .216.313.8.8 0 0 1-.004.548.7.7 0 0 1-.222.306m-1.96-.378a.676.676 0 0 1 .012-1.352c.37.003.668.309.665.682a.674.674 0 0 1-.677.67m-1.149-.552a.716.716 0 0 1-.728.705.713.713 0 0 1-.657-.996.72.72 0 0 1 .67-.429.717.717 0 0 1 .715.72m-1.88.524a.72.72 0 0 1-.296.581.63.63 0 0 1-.368.117l-.132-.017a.69.69 0 0 1-.52-.693.69.69 0 0 1 .532-.684l.132-.013a.63.63 0 0 1 .366.122.72.72 0 0 1 .286.587m-1.536.706a.61.61 0 0 1-.61.611.613.613 0 0 1-.6-.624.61.61 0 0 1 .61-.611.61.61 0 0 1 .6.624m-1.38-1.575c-.01.095.014.687-.035.814l-.042-.02c-.222-.089-.302-.222-.918-.34l-.288-.005.008-.646.023.003.102.01.073.01a23 23 0 0 1 .593.082l.2.034c.124.02.229.04.285.058m-.019-.12-1.264-.171.013-.361.002-.188.003-.227-.004-.133-.005-.2s.02-.002.12.004c.81.055 1.135 1.275 1.135 1.275m-1.266-2.595c-.196-.623.286-.634.587-.844l.044-.022c.355-.248.58-.682.882-.761.175.84.14 1.646-.163 2.353-.469-.224-.857-.526-1.35-.726m-.48-.868c-.644-.443-.808-.888-1.192-1.502l-.02-.07c.673-.468 1.683-.196 2.364.04-.101.665-.84 1.747-1.152 1.532m-.229.097c.173-.011.398-.019.565.054.033.247.077.746.077.746s-.496.042-.738.005c.02-.28-.115-.792.096-.805m-.083.98a3.4 3.4 0 0 1 .861-.022c.187.264.388.482.435.885-.551-.032-1.28-.047-1.85.068-.107-.131.444-.801.554-.931m-.353 1.105c.099-.014.11-.005.11-.005l.006.262.011.173.012.316.01.25.006.088-1.113.28s.134-1.252.958-1.364m-.954 1.508c.2-.092 1.038-.288 1.103-.3l.041.611-.208.038c-.405.14-.549.197-.669.277l-.12.092-.061-.287-.034-.106c-.028-.116-.038-.253-.052-.325m.136 1.25c.198.002.357.186.355.41-.002.225-.164.405-.362.404s-.357-.186-.355-.41c.002-.225.164-.405.362-.403m.06 1.406c-.809.046-1.462-.726-2.346-1.02-1.664-.552-4.211-.254-5.433 1.095-.644.71-1.315 2.1-1.03 3.487.093.452.662 1.034.274 1.359-.21-.021-.265-.461-.351-.718-.62-1.859.129-3.652 1.483-4.734l.006.001c.277.003.519-.176.657-.444q.265-.149.546-.26a.65.65 0 0 0 .305.08c.236 0 .447-.132.59-.34a4.46 4.46 0 0 1 2.313.183c.245.033.4-.025.571-.066.405.157.917.586 1.42.797.375.157 1.118.033.995.58m-1.228-1.01c-.288-.002-.52-.266-.518-.59s.238-.583.528-.58.521.265.52.589c-.004.323-.24.583-.53.58m-1.6-.489a.53.53 0 0 1-.356-.228.62.62 0 0 1-.097-.437.6.6 0 0 1 .076-.222l.143-.168a.53.53 0 0 1 .296-.12l.11.003a.52.52 0 0 1 .355.23.6.6 0 0 1 .098.436c-.047.323-.328.55-.625.506m-1.178-.301a.6.6 0 0 1-.242.067l-.13-.006a.6.6 0 0 1-.24-.089.66.66 0 0 1-.299-.663c.054-.365.382-.618.733-.567s.592.389.54.753a.67.67 0 0 1-.362.505m-1.229-.303a.83.83 0 0 1-.176.404l-.098.099a.66.66 0 0 1-.37.156l-.137-.005a.64.64 0 0 1-.441-.29.8.8 0 0 1-.119-.562c.054-.364.328-.634.644-.659l.137.005a.6.6 0 0 1 .253.097c.225.15.353.443.307.755m-1.385.66.139.031c.016.178-.027.294-.193.284q.048-.148.054-.315m-.207.01q-.025.165-.093.3l-.077.127a.7.7 0 0 1-.314.248.5.5 0 0 1-.48-.07.6.6 0 0 1-.172-.2.9.9 0 0 1-.098-.587.95.95 0 0 1 .17-.428.64.64 0 0 1 .437-.278l.127.002c.34.051.564.447.5.885m-1.42 1.306c-.003.388-.267.702-.59.699s-.582-.32-.578-.709c.003-.388.268-.702.59-.699.323.003.581.32.578.709m-1.158.766c.158.048.348.065.478.14-.023.156-.08.278-.134.4a.73.73 0 0 0-.344-.54m.153.659a.8.8 0 0 1-.049.265l-.054.115a.7.7 0 0 1-.156.184.52.52 0 0 1-.322.115.52.52 0 0 1-.32-.12.7.7 0 0 1-.153-.186l-.053-.117a.8.8 0 0 1-.043-.266c.003-.377.263-.682.58-.679.318.002.572.312.57.689m-.018 1.92a.65.65 0 0 1-.266.529.55.55 0 0 1-.332.105l-.12-.013a.6.6 0 0 1-.212-.098l-.086-.08-.017-.021a.66.66 0 0 1-.103-.68.59.59 0 0 1 .549-.385.56.56 0 0 1 .376.154l.082.091.084.15q.046.115.045.248m-.186.884.125.014a.66.66 0 0 1 .494.658.66.66 0 0 1-.505.648l-.126.012a.63.63 0 0 1-.573-.411.7.7 0 0 1-.047-.26c0-.091.02-.18.051-.258a.63.63 0 0 1 .581-.403m.344 1.458c.469-.124.648-.54 1.218-.56.167.768.013 1.772-.517 2.065a6.4 6.4 0 0 1-.7-1.505m1.414 1.511c-.014.225.187.24.138.5-.096.071-.216.116-.287.212-.313-.104-.442-.834.15-.712m-.082 1.07c.034-.19.281-.355.43-.212-.062.154-.178.252-.43.212m.043.342.828.51-.053.019-.731.196zm.158 1.123 1.325.01 2.215-.165 2.072-.194 1.125.01c.1-.01.213-.005.327.002l.142.002 1.119-.11.93.008 2.299.02 1.552.013 1.22.131 1.84.155 1.468.272.847.173.218-.021-.152.48a.46.46 0 0 0-.04-.25l-.02-.035-.035-.016a.7.7 0 0 0-.274-.063c-.259-.002-.61.169-.821.99l-.058.227.216-.091c.138-.056.34-.062.499-.06q.118.001.237.005l.078.003.032-.071.02-.041-.027.136-.021.146-.05.005-1.056.095-1.697-.016-1.72.13-2.111-.019-1.8-.118-2.214-.06-1.925-.017-2.05.002-1.491.11-.704.14-.425.104-.51.111-.249.025-.109-.705.042.074c.122.181.288.282.468.293v.003l.014-.002.009.002v-.002c.357-.008.59-.251.594-.627a1 1 0 0 0-.172-.57c-.122-.18-.288-.282-.467-.293v-.002h-.025v.002c-.293.006-.5.173-.567.44zm.548.456.106-.016c.245-.007.486.19.567.485.094.336-.056.671-.334.748-.278.078-.58-.132-.672-.468-.094-.337.056-.672.333-.75m17.708.921c-.293-.01-.585-.018-.786.065l.05-.175.067-.18.082-.174a.9.9 0 0 1 .225-.275c.133-.101.301-.135.511-.044.093.164-.056.58-.15.783m.585-1.463c-.352.423-1.118.033-1.712-.086-.659-.13-1.429-.25-1.994-.302-4.939-.461-10.497.135-14.99.368.526-.638 1.452-.273 2.143-.338.42-.04.735-.153 1.144-.23.814-.15 1.967-.23 2.785-.189.37.018.736.05 1.096.041.39-.01 1.418-.185 1.536-.205.692-.12 1.588.079 3.22.097.963.011 2.094-.19 2.926.027.587.153.986.501 1.565.512.776.016 1.767-.538 2.28.305m.099-.476-.164-.026v.003l-.026-.007-.676-.106-.063-.014.906-.592zm.06-1.306c-.238 0-.475-.005-.425-.288.096.14.43.048.425.288m-.017-.293a.33.33 0 0 1-.305-.208l-.03-.002.011-.06-.005-.064a.332.332 0 1 1 .329.335m-2.048-.154c.084-.73.342-1.284.587-1.85.563.249 1.015.606 1.058 1.365-.27.445-1.112.392-1.645.485m-.698-1.861c.245.352.034.893-.011 1.355-.238-.237-.215-.733-.563-.861-.236.097-.611.05-.717.28.015-.395.56-.87 1.29-.774m-4.141.391c-.36-.942 1.795-1.54 1.715-.199-.504-.309-1.37-.22-1.715.2m-1.135-.866c.293.178.114 1.056.06 1.355-.442-.084-.62-.428-1.137-.438.027-.643.663-.669 1.077-.917m8.995-.28c-.313-.07-.487-.275-.926-.22-.308.373-.17 1.091-.23 1.852-.421-.363-.734-.835-1.275-1.082-.462.466-.644 1.218-.803 1.992.375.521 1.79-.11 1.77.014-.363 2.258-3.243 1.74-3.908-.318-.04-.128.3-.254.004-.356.217-.145.64-.304 1.073-.42.247.253.369.629.42 1.074.491-.194.653-1.604.159-1.925-.465-.042-.804.045-1.002.276-.119-.707-.039-1.612-.338-2.143-.449.406-.703 1.01-.942 1.634-.8-1.036-2.24-.07-2.079 1.051.527-.616 1.776-.764 2.07.161-.297.317-.051.36-.149.641-.397 1.13-2.019 1.526-3.014.901-.517-.324-1.11-.858-.975-1.72.507.019.703.345 1.21.366.408-.276.386-1.14.3-1.71-.722.01-.993.478-1.646.557.117-.543.584-1.076.157-1.569.392-.295.248-1.137.513-1.565.82-.219 1.626-.259 2.645-.691.844-.356 1.422-.872 2.218-.694.49.11.935.775 1.42 1.01.892.435 1.898.236 2.419.879.32.397.595 1.075.628 1.575.008.228.262.215.281.43m-9.669-4.223c1.757-.467 4.569-2.326 6.866-1.653 1.63.479 2.673 2.513 2.599 4.805-.35-.625-.84-1.614-1.288-1.602-1.711.048-2.322-1.27-3.467-1.437-1.627-.235-2.604 1.77-4.72 1.029-.116-.349-.044-.68.01-1.142m.442-1.034a.35.35 0 0 1-.184.318l-.116.025-.06-.007a.3.3 0 0 1-.184-.148l-.043-.123-.005-.07.006-.071.045-.123a.3.3 0 0 1 .187-.144l.06-.007.116.029c.106.052.18.177.178.32m-11.603 4.364c-.62-1.142.02-2.693.672-3.42.796-.886 2.147-1.46 3.725-1.537 1.568.153 3.08 1.123 4.266 1.678.072.4.078.867.06 1.357-.34.115-.355-.241-.782-.364a20 20 0 0 0-2.065-.447c-.41-.068-.826-.25-1.211-.224-.646.045-.945.63-1.578.842-.42.142-.81.012-1 .063-.562.15-.597.213-1.492.819-.182.123-.585.666-.595 1.233m1.625 1.869c.395.35.552 1.287.412 1.93-.326.038-.444-.13-.785-.077-.552-.636-.017-1.389.373-1.853m-.792.85c-.202-.58.183-1.737-.556-1.79-.335-1.429.172-1.861 1.095-2.406.663-.39.7-.275 1.498-.354.762-.076 1.167-.964 1.794-.983 1.437.523 3.637.182 4.125 1.463.156.408-.178 1.023.489 1.36-.126.525-.031 1.126.271 1.43-.324.105-.692-.355-1.066-.437-.504.388-.274 1.442-.088 1.925.484-.155.886-.395 1.361-.559-.099.256-.245.519.066.643-.323.905-1.403 1.935-2.651 1.262-.61-.33-1.3-1.021-1.346-1.226l.076-.498c.305-.606 1.416-.408 1.711.157.31-1.223-1.223-2.245-1.915-1.301-.02-.948-.633-1.312-1.127-1.794-.146.523-.16 1.18-.158 1.854-.405-.101-.719-.056-1.07.062-.323.353-.421 1.424-.161 1.925.277-.677 1.197-1.263 1.79-.626.293 1.74-1.96 2.183-3.653 1.61-.092-.13.066-.36-.067-.572 1.678.773 1.077-1.669.52-2.208-.464.2-.567.768-.938 1.062m-.015 1.785c.309-.165.548.191.839.276 1.36.395 3.267-.1 3.523-1.38.1.007.201.014.215-.07.018 1.882-3.357 2.512-4.577 1.174m5.737.155-.18.092-.256.053-.772.019-.42.047-.118-.001.063-.077.507-.69.11-.394.043-.214.157.267.186.252.245.25.186.148.163.15zm-.871-1.825c-.038.224-.327.194-.501.28.04-.223.267-.255.5-.28m-1.064-.438c-.1.114-.495-.065-.787.006-.155.179-.39.26-.503.482-.212-.315-.05-.779.01-1.142.288-.162.834-.314 1.106-.056.02.287.01.564.174.71m.022-2.498c.732.414.979 1.675.831 2.719-.133.009-.238.045-.286.14-.585-.59-.687-1.755-.545-2.859m2.512 1.606c.07.345.257.621.325.843-.2-.135-.632-.291-.88-.38-.488.215-.709.211-.84.582-.298-.876.499-1.729 1.395-1.045m3.386 1.015c-.034.253-.432.135-.573.28-.201-.208.282-.335.573-.28m-.424-.36c-.062-.128-.198-.183-.139-.43.168.003.212-.12.428-.068.062.327-.122.404-.148.641-.204.012-.389.006-.354-.217a.33.33 0 0 0 .213.073m-.425-.431c.078.759-.898.802-1.221.916-.143-.338-.062-1.004.012-1.355.5.05.746.35 1.21.439m1.011-1.49c.025.504-.181.775-.294 1.14-.67.231-1.092-.247-.99-1.152a10 10 0 0 1 1.284.011m-.905-1.073c.19.002.341.16.34.354a.35.35 0 0 1-.347.349.35.35 0 0 1-.34-.355.35.35 0 0 1 .347-.349m.349-.692a.347.347 0 0 1-.346.35.34.34 0 0 1-.287-.165l-.01.001v-.02l-.044-.17a.35.35 0 0 1 .347-.35c.189.002.342.16.34.355m-.331-1.375c.19.003.342.194.34.428-.003.235-.158.424-.348.422-.19-.001-.341-.193-.34-.428.002-.233.157-.423.348-.422m.01-1.668c-.224-.003-.404-.138-.403-.303 0-.164.185-.296.41-.294s.403.137.402.302-.184.297-.408.295m-.003.55c.192.002.344.165.341.365s-.157.362-.346.36a.35.35 0 0 1-.34-.366c.001-.2.156-.36.345-.36m5.566 7.012c-.262.022-.396-.083-.57-.148.09-.128.662-.136.57.148m.239-2.923c.104.915.297 2.208-.451 2.564-.51-.62.055-1.991.45-2.564m-.903 4.058.36-.469.63 1.014.04.08-1.58-.093zm-4.666-.057c.144-.197.215-.672.215-.672.072.116.388.89.97 1.065.491.148-1.664.161-1.706.17 0 0 .316-.282.52-.563m-4.447-.878c.57.191.98 1.154 1.93 1.351.963.2 1.629-.178 2.067-.696.228-.27.323-.722.573-.972l.142.001c.467.666.979 1.395 1.779 1.525.814.132.928.124 1.557-.073l.22-.064c.585-.281.585-.827 1.185-1.077.556.746 1.078 1.67 2.02 1.792.55.071.684.054.999.035.6-.035 1.08-.803 1.65-.842.32-.022-.934.676-1.295.988-1.095.212-1.923-.157-2.636-.522-.255-.41-.474-.855-.773-1.22-.58 1.938-4.48 1.47-4.778-.399-.12 2.594-4.355 2.008-4.64.173m4.616-9.377-.095.095c-.065.025-.147.015-.26.014h-.078a.5.5 0 0 1-.253-.068l-.026-.525-.04-1.287.371-.033.374.034s.011.677.014 1.194v.399c-.001.104-.004.17-.007.177m1.311.722c.033.15-.04.405-.002.55a.44.44 0 0 0-.209-.057c-.267-.002-.487.238-.49.537a.7.7 0 0 0 .064.28c-.04.67.136 1.612.106 2.325-.034.834-.06 1.702-.872 1.848-.284.006.133-.345.147-.497-.098-.164-.075-.447-.353-.433.067-.266.294-.371.362-.639-.394-.559.344-1.219-.343-1.572.11-.225.363-.302.363-.639.044-.327-.236-.335-.352-.503.014-.321.406-.258.432-.567-.033-.72-1.117-.566-1.143.061.06.25.256.362.496.433-.097.32-.414.412-.434.71-.02.28.32.264.353.502.01.074-.275.42-.29.497-.067.337.166.83-.082 1.141.044.217.108.414.353.431-.099.187-.302.269-.36.498.026.233.057.462.28.501-.74-.06-.745-.92-.696-2.004.039-.836-.112-1.762-.051-2.213.06-.455.268-.946-.348-1.145.528-.913 2.36-.484 3.07-.045m9.364 6.735c-.082.204-.338 1.326-.933 1.53l-.011-.055c-.231-.456-.063-1.27.017-1.823.039-.006 1.049.037.927.348m.09-.611a.39.39 0 0 1 .15-.305.3.3 0 0 1 .189-.06c.185 0 .333.167.33.369-.001.204-.152.367-.337.365a.3.3 0 0 1-.186-.064.38.38 0 0 1-.146-.306m.454-.526a.69.69 0 0 1-.254-.553.7.7 0 0 1 .176-.466.55.55 0 0 1 .416-.192c.325.004.584.303.581.67a.69.69 0 0 1-.263.547.536.536 0 0 1-.656-.006m-12.055-9.786-.001-.006c.03.498-.684.758-1.035.885-.262-.784-.404-1.136-.125-2.07.263.153 1.121.712 1.16 1.185v-.005zm12.614 6.822a.79.79 0 0 0 .374-.671.77.77 0 0 0-.639-.781c-.426-.139-.968.408-1.008.853-.076-.209-.308-.213-.288-.516a.9.9 0 0 0 .467-.124.79.79 0 0 0 .401-1.07.79.79 0 0 0-.728-.546.78.78 0 0 0-.71.467c-.109.127-.15.31-.137.554-.029-.136-.152-.182-.14-.358.612-.543.283-1.637-.414-1.645-.774-.01-.387.808-1.079.99l.003-.04a.82.82 0 0 0 .31-.618c.003-.427-.52-.797-.94-.801l-.086.01-.13.014c-.577.145-.374 1.016-.797 1.277q.05-.176.053-.324l.003-.03-.003-.042-.01-.088-.006-.044a.7.7 0 0 0-.109-.258.86.86 0 0 0-.717-.39.85.85 0 0 0-.822.583c-.114.237-.11.553.11.937-.094.071-.264.068-.358.14l.012-.187a1 1 0 0 0 .028-.202c.004-.442-.32-.802-.724-.806-.352-.004-.649.267-.72.63-.214.456.424 1.001-.029 1.123l-.055-.1.011-.1a.7.7 0 0 0-.7-.696.71.71 0 0 0-.611.339l-.139.116c-.108-.493.265-.498.293-.854-.192-.754-.51-1.684-1.054-1.864.378-.116-.1-.481.006-.786.355.077.472.386.925.365.24-.608.535-2.106.094-2.71-.56.148-.65.777-1.291.845.083-.54.422-.819.511-1.353-.487-.595-2.284-.729-2.712-.023.28.534.809.843.987 1.508-.543-.222-.768-.755-1.276-1.01-.451.6-.412 2.245.263 2.57.394-.103.647-.73 1.076-.562-.324.272-.67.52-.653 1.138-.53.348-.682 1.083-.802 1.847.06.272.32.347.28.717-.351.164-.444.576-.436.923-.239 0-.376-.1-.497-.217a.69.69 0 0 0 .497-.666c.003-.384-.29-.697-.651-.7-.36-.004-.654.298-.664.677-.066.127-.154.227-.32.25-.054-.059-.042-.175-.014-.31a.7.7 0 0 0 .114-.386c.004-.383-.289-.697-.652-.7a.66.66 0 0 0-.63.49 1.15 1.15 0 0 0-.171.537q-.183.01-.278-.07a.8.8 0 0 0 .26-.528.6.6 0 0 0-.143-.55.69.69 0 0 0-.56-.309.66.66 0 0 0-.38.117c-.345.15-.55.568-.184 1.33-.196.043-.282.006-.316-.07a1.1 1.1 0 0 0 .043-.294c.006-.529-.336-.96-.762-.965a.6.6 0 0 0-.221.042c-.424.085-.544.544-.64 1.034-.134-.268-.372-.449-.645-.45-.382-.004-.699.337-.766.787-.128.416-.022.927.298 1.245-.071 0-.085.056-.143.07-.345-.273-.5-.733-1.28-.583-.393.222-.397 1.179-.3 1.489a.7.7 0 0 0-.21-.036.73.73 0 0 0-.733.655l-.006.063-.002.013v.002c-.033.547.424 1.16 1.225.811-.024.216.075.556-.147.57-.17-.067-.187-.288-.497-.218-.807.169-.872 1.634.127 1.643-.643.4-.52 1.716.557 1.574.255.891.808 1.492 1.208 2.24l.004.01c.269.98.403 2.567.633 3.54l.05.372c-.313.053-.586.269-.383.63.297-.049.383-.22.46-.397l.24-.046.775-.102.024-.017.004.005a24 24 0 0 1 2.733-.351l1.664-.002 1.931.017 2.223.06 1.806.12 2.12.018.302-.023a8 8 0 0 0 1.237-.092l.185-.014 1.704.014 1.164-.177-.015-.006c.36-.054.684-.15.864-.334-.151-.177-.658.156-.785-.008.14-.576.378-1.055.656-1.493-.255-1.657.626-3.356 1.103-4.746a.44.44 0 0 0 .218.065c.254.002.462-.222.465-.5a.54.54 0 0 0-.092-.3l.066-.023.043.004c.371.004.676-.324.68-.732a.77.77 0 0 0-.204-.533c-.085-.115-.222-.178-.277-.322.349-.05.62-.376.624-.779.003-.408-.27-.744-.623-.792M43.35 41.962c.22.171.47-.11.574-.28-.208-.207-.561-.088-.574.28m21.978-2.065c-.108-.013-.212.01-.276.087a.28.28 0 0 0-.063.169c.227-.008.541.074.5-.207v-.003l-.145-.043zm.518.12c.15-.022.292-.054.413-.107a.55.55 0 0 0 .232-.172c-.098-.084-.242-.102-.374-.078-.221.04-.405.197-.27.358M55.495 73.11c-.312.07-.328-.15-.498-.218.116-.289.151-.662.576-.638-.054.42.13.643-.078.856m.353.36c.253-.453.32-1.283-.129-1.571-1.18-.032-1.513 2.134.13 1.57m1.33-5.34c-.336.072-.357-.168-.497-.29.217-.163.135-.63.575-.565-.073.397.17.682-.078.856m.282.43c.352-.332.429-1.397-.057-1.642-.71.092-1.223.832-.94 1.49.221.16.596.168.997.152m1.33-5.34c-.247.125-.468-.009-.569-.22.08-.278.267-.752.577-.566a2 2 0 0 0-.008.786m.283.358c.242-.37.186-1.191-.059-1.5-.619-.117-1.06.547-1.223 1.133.116.424.833.704 1.282.367m1.257-4.983c-.336.071-.357-.168-.497-.29.215-.164.135-.63.575-.566-.073.397.17.682-.078.856m.282.43c.352-.332.429-1.398-.057-1.641-.676.081-.927.593-1.08 1.203.094.047.13.153.139.286.222.16.596.168.998.152M45.298 72.238l-.143-.003a.46.46 0 0 0 .046.25l.043.077c.378.41.737.916 1.013 1.48q.131.272.234.56c.067.192.06.492.168.7a.42.42 0 0 0 .343.272 7 7 0 0 0-.625-1.87 5.1 5.1 0 0 0-1.08-1.466m-5.841-7.005c1.27.779 3.252 1.912 5.27 1.258-2.389.107-3.823-.655-5.34-1.544q-.01.188.07.286m-1.34-1.868c-.817-.823-1.764-1.52-2.332-2.589-.163-.022-.269.014-.287.141.687.954 1.532 2.123 2.619 2.448m-.861.563c-.105-.082-.18-.084-.285-.002.625 1.012 1.531 1.75 2.692 2.237-.688-.858-1.801-1.296-2.407-2.235m1.083-1.417c.6 1.218 3.214 2.07 5.196 1.472-.08-.015-.11-.08-.14-.144-2.067.446-3.915-.407-5.056-1.328m3.105-.946c.325-.17.751-.24.784-.71-.444-.212-.94.312-.784.71m1.67.493c-.428-.567-1.33.07-1.56.465.464.229 1.376-.02 1.56-.465m1.459-12.144c.328.478 1.903.841 2.15-.046-.54-.208-1.457-.3-2.15.046m-5.785 2.499c.197-.47-.284-.815-.66-.956a.742.742 0 0 0 .66.956m1.503-1.249c-.29-.353-.856-.737-1.392-.684.085.505.999 1.333 1.392.684M65.163 41.15l-.005.002.002-.004zm-.008-.002-.125.1c-.28.224-.617.326-1.064.322a5 5 0 0 1-.914-.108l-.05.01.011.078-.01.153-.088.043q-.126.004-.245.003c-.224 0-.472-.022-.634-.148l-.047.018.047.096.047.174-.087.062h-.028c-.277-.001-.477-.079-.673-.153-.185-.07-.36-.137-.599-.143.015.046.064.087.132.138.066.05.128.097.126.17l-.076.11-.013.009-.015.002q-.178.026-.344.025a2.5 2.5 0 0 1-.74-.136 3 3 0 0 0-.482-.115l-.01.006.03.032c.06.053.157.145.1.276l-.015.035-.037.006a2 2 0 0 1-.314.026c-.302-.002-.567-.083-.8-.154-.198-.06-.39-.12-.558-.114a.6.6 0 0 0 .157.08l.19.098.082.063-.09.052a.86.86 0 0 1-.434.093c-.411-.005-.926-.173-1.248-.285.01.146.13.179.333.22l.193.05.187.065-.187.066a1 1 0 0 1-.333.056c-.293-.002-.566-.127-.83-.247a3 3 0 0 0-.367-.154c.001.09.06.116.154.157l.106.052.077.048-.066.062c-.11.105-.272.16-.471.158a1.36 1.36 0 0 1-.864-.337l-.005.014.057.146.048.174-.083.065-.008.002h-.01c-.262-.004-.497-.119-.705-.22-.157-.076-.305-.148-.43-.153.018.066.074.096.167.137.106.046.249.11.254.3l.002.085-.083-.014c-.23-.035-.458-.085-.637-.193l-.172.105c-.074.046-.162.072-.246.098a.7.7 0 0 0-.248.107l-.229.184.121-.267c.116-.256.235-.519.215-.749l-.001-.016.099.003c2.82-.115 5.478-.329 8.06-.74.829-.131 1.646-.184 2.43-.274.218-.025.412-.064.648-.062.44.005.873.054 1.333.107zm-12.92.928-.037.101c-.544 1.456-2.478 1.745-4.004 1.732a11 11 0 0 1-.432-.012l-.053-.003-.012-.051c-.032-.138.011-.208.045-.266.03-.049.049-.08.03-.162l-.021-.091.092.005q.23.014.438.014c.965.01 1.655-.155 2.105-.501-.139-.153-.322-.226-.572-.228-.288-.003-.617.091-.936.183-.308.089-.6.171-.849.169a.65.65 0 0 1-.38-.104c-.044.113-.034.3-.024.481a2.2 2.2 0 0 1-.004.422c-.187.592-.813.708-1.418.821-.317.06-.641.12-.891.248.219.007.49-.037.75-.102.25-.064.476-.107.681-.106l.174-.019.03.007.015.028c.22.383.253.729.1 1.025-.373.713-1.718.922-2.333.981l-.012.043-.018.09c.001 0 .022.016.117.019l.047.001c.28-.096.599-.13.842-.229a3 3 0 0 0 .721-.25l.059-.03.033.056q.266.441.22.784l.126-.027c.297-.034 1.25-.073 1.945-.12a10 10 0 0 0 1.556-.207l.073-.037.01.114c-.136 1.246-1.399 1.379-2.337 1.37a16 16 0 0 1-1.526-.108l-.3-.03.02-.078c.087-.36.489-.398.784-.396.2.002.424.024.66.05.24.025.487.05.716.051.412.005.676-.073.826-.242-.097-.163-.298-.24-.628-.244a6 6 0 0 0-.726.063c-.238.03-.462.06-.656.058-.211-.002-.353-.04-.448-.123l-.097-.084a.7.7 0 0 1-.067.216c-.307.616-1.383.694-2.142.772.104.006-.123.077.017.064.13-.013.53-.05.658-.05.186.002.319.035.421.102l.022.014.008.025q.122.44-.07.697c-.273.358-.943.358-1.591.358a5 5 0 0 0-.778.033c.167.04.42.045.667.05.137.002.278.004.413.013l.055.003.01.054c.009.052.017.124.018.204l.158-.105c.29-.19.64-.276 1.106-.272.34.003.683.09 1.036.14.36.05.754.067 1.103.07.213.003.399-.017.57-.052l-.02.126-.136.314-.277.43-.15.153a1.44 1.44 0 0 1-.633.236l-.368.106-.202.375a1.4 1.4 0 0 1-.245.251l-.069.054-.017.01c-.31.207-.729.318-1.215.313a3.7 3.7 0 0 1-1.236-.236l-.554-.276a1.8 1.8 0 0 1-.433-.37l-.043-.056.055-.043q.13-.1.314-.098c.227.001.495.118.78.241.323.139.69.297 1.032.3a.96.96 0 0 0 .481-.117c-.047-.327-.363-.389-.726-.46-.246-.047-.502-.098-.667-.248l-.088-.079q-.135.037-.307.036c-.286-.002-.61-.085-.898-.16-.275-.07-.538-.134-.686-.116.067.06.185.082.307.105.16.028.325.06.417.179l.017.02-.003.027c-.03.477-.304.727-.794.722-.436-.004-.955-.197-1.333-.338l-.188-.07.023.03c.206.264.4.512.281 1.007l-.009.037-.036.013a1.6 1.6 0 0 1-.559.101c-.413-.004-.73-.201-1.065-.41q-.118-.075-.245-.15c.026.102.107.149.21.208.111.064.2.17.276.298.043.33.015.525-.109.767a.83.83 0 0 1-.67.316.98.98 0 0 1-.626-.24l-.013-.01-.006-.017c-.183-.605-.237-1.439.018-2.539l.005-.022.017-.015c.307-.27.821-.303 1.33-.298q.224.001.453.01c.27.01.55.016.76.007l.08-.003-.007.08q-.015.199.15.381c.238.26.732.443 1.201.448q.148 0 .28-.021c-.058-.44-.5-.516-.966-.594-.132-.023-.268-.046-.395-.078l-.227-.057.22-.077c.146-.051.306-.086.461-.12.242-.054.491-.11.67-.22l.034-.022.036.018c.519.278.933.413 1.267.416a.85.85 0 0 0 .398-.085c-.113-.283-.556-.347-.92-.35a4 4 0 0 0-.343.013l-.141.012.078-.12c.103-.16.247-.276.387-.39.125-.1.244-.197.334-.32l.025-.034.04.006q.164.021.358.056c.267.046.57.098.84.1.364.003.597-.085.708-.272-.135-.127-.32-.185-.605-.188q-.168.002-.35.013c-.2.011-.422.021-.605.005l-.085-.008.024-.083c.05-.172.143-.301.232-.424.082-.113.158-.22.204-.359l.017-.055.059.008c.173.023.439.052.721.054.51.004 1.141-.075 1.272-.473-.017-.155-.142-.217-.438-.22q-.113.001-.23.005c-.15.006-.301.009-.408-.004l-.033-.004c-.109.09-.273.11-.431.13l-.09.011-.124.018.049-.114c.111-.258.118-.375.13-.607q.004-.098.015-.226l.003-.045.043-.016c.145-.053.348-.082.583-.115.493-.072 1.103-.16 1.295-.515-.087-.157-.235-.236-.453-.238-.408-.003-.938.265-1.219.426l-.07.04-.03-.075c-.225-.572-.002-1.33.239-1.638l.02-.026h.033c.657-.01 1.388-.069 1.857-.442-.051-.243-.376-.283-.572-.285-.353-.003-.74.108-.879.214l-.216.164.11-.249c.46-.59 1.585-.837 1.976-.889a40 40 0 0 1 3.52-.306 86 86 0 0 0 1.496-.071zM38.521 53.29l.06-.04a.6.6 0 0 1 .34-.11c.237.002.457.159.67.31.206.146.42.297.638.299a.55.55 0 0 0 .316-.104c-.002-.193-.12-.26-.27-.346a1 1 0 0 1-.204-.142l-.101-.098.14-.022c.25-.04.61.188.81.473l.116.223.007.024-.006.02c-.17.535-.514.645-.772.643-.665-.006-1.413-.725-1.702-1.072zm1.669 1.354c.216-.115.586-.075.716-.28 3.838 4.883 8.03 9.869 11.657 14.723l.06.15c.023.36-.272.519-.481.643-3.837-4.932-7.99-10.192-11.952-15.236m10.463 13.673 1.368 1.773c.248.012.576-.042.706-.333.183-.407.087-.588.087-.588l-1.588-2.145.528-1.037 1.578 2.014s.105-.152.244-.332c.402-.522.07-.911.07-.911-.442-.674-1.387-1.905-1.387-1.905l.509-1.007L54.3 65.78c.205-.313.27-.375.41-.678.212-.45.11-.692-.145-1.003l-1.194-1.565.802-1.411 1.308 1.771s.212-.104.4-.463c.241-.458-.045-.92-.045-.92l-1.088-1.458.797-1.666 1.114 1.396s.099-.152.285-.494c.294-.538-.088-1.048-.088-1.048l-.734-1.112.72-1.519.96 1.242s.15-.112.325-.44c.209-.397-.086-.848-.086-.848l-.712-1.028.717-1.478.857 1.116s.283-.106.383-.572c.096-.443.009-.66.009-.66l-.697-.994c.947-1.787 1.35-4.757 3.475-5.32.408.619.2 1.644.2 1.644l-1.53 3.626S54.013 69.08 50.672 77.43c-.689-.17-1.447-.276-2.064-.517.058-.157.1-.354.124-.574l.001.001v-.007a6.3 6.3 0 0 0-.278-2.507l-.007-.023-.036-.099a2.2 2.2 0 0 0-.26-.518l.04-.137c.95-1.597 2.461-4.73 2.461-4.73m-2.358 3.359c-.058.242-.181.48-.338.695-.867.009-1.6-.615-2.059-1.231l-.006-.011.05-.006c.128-.014.306.075.513.18.23.118.49.25.716.253a.42.42 0 0 0 .332-.143c-.282-.49-.865-.683-1.484-.887l-.18-.06-.014-.022a1.03 1.03 0 0 1-.146-.547c.024-.299.069-.588.106-.798l.017-.09c.026-.137.046-.226.046-.226l.01-.037.067.026c.226.09.409.226.587.356.28.206.546.401.978.435q.096-.198.037-.357c-.104-.284-.558-.465-.96-.623-.212-.085-.413-.164-.559-.255l-.03-.019-.002-.035.02-.06s.029-.21.05-.466a1 1 0 0 0 .016-.243l.006-.183.077.023c.145.043.287.114.438.187.25.122.509.25.794.253a1 1 0 0 0 .313-.05c0-.07.005-.15.053-.196-.238-.448-.798-.584-1.39-.728a12 12 0 0 1-.438-.114l-.049-.125-.23-.902.096.03q.15.05.316.116c.286.11.61.237.927.239q.155.001.293-.037c-.133-.538-.801-.565-1.506-.595q-.17-.007-.337-.017h-.008l-.038-.122-.025-.037c-.026-.16-.14-.301-.245-.427l-.053-.069c-.069-.134-.116-.26-.098-.328l-.007-.005.006-.02.062.01q.115.017.24.043c.188.037.382.076.558.077.217 0 .365-.054.459-.175-.158-.152-.369-.225-.658-.227-.237-.002-.5.043-.754.086l-.16.026a8.5 8.5 0 0 0-1.096-.61l.017-.009c.16-.09.389-.096.63-.102.109-.004.215-.006.318-.017V63.5l.004.001c.216-.02.405-.076.504-.232-.112-.156-.395-.254-.751-.256-.49-.005-.997.181-1.025.5l-.124-.03c-.76-.244-1.653-.356-2.276-.734-.11-.668-.018-1.836.365-2.4a.9.9 0 0 1 .262-.258l.11-.048c.359-.103.642 0 .806.223.137.211.174.516.077.857-.015.06-.083.145-.167.233q-.357.066-.517.33c.473-.036 1.436-.507 1.908.034l.038.054.028.04c-.082.384-.198.523-.395.654-.115.07-.248.133-.399.225.61.055 1.79-.207 2.29.228a.85.85 0 0 1 .203.406l-.002.062c-.177.212-.585.33-.903.176.07.523.83.177 1.21.226.332.041.635.17.817.358.148.179.194.41.079.688l-.01.027a14 14 0 0 1-1.25-.22c.07.479.775.316 1.21.438.318.09.82.264 1.046.563.09.137.125.296.063.485a.4.4 0 0 1-.101.17l-.174.111c-.359.022-.919-.38-1.272-.262.5.394 1.533.533 1.98 1.028.118.19.196.378.196.53-.002.214-.152.369-.28.563l-.18.142c-.596-.21-1.088-.785-1.657-.763.523.464 1.821.927 2 1.675l.012.072c.034.245-.052.52-.323.836-.708-.081-1.014-.56-1.707-.658.406.635 1.744.691 2.016 1.493l.017.134c.019.142.017.306-.005.477m-7.659-11c-1.308.25-1.731-.726-1.412-1.655.514-.158 1.28-.062 1.135.652-.155.17-.437-.223-.642-.005.138.368.463.425.703.295l.069-.042.002-.002.12-.12.01-.021c.099-.152.13-.362.027-.602-.455-1.065-1.963-.562-1.86.627.08.923.978 1.4 2.06 1.088-.197.4-.154 1.042-.51 1.28-.364-.045-.466-.344-.78-.435.32 1.948 3.68 1.521 5.042 2.684-.094.221-.4-.182-.43.139.231.315.79.309.85.793-.068.194-.223-.102-.429-.004.186.549.92.558.99 1.222-.025.264-.448.12-.575.28.045.31.486.23.638.434.124.264.057.65-.006.927-.268.004-.214-.309-.57-.219-.174.383.477.505.419 1.004-1.48-.1-2.626-.462-3.63-1.104-.273-.174-.547-.545-.924-.435 1.06 1.057 2.593 1.649 4.552 1.824-.058.35-.594-.275-.715.136.092.334.646.213.564.718.1.341-.53-.06-.43.282.28.197.646.309.707.72-.207.173-.706.049-.646.495.364-.033.908-.064 1.21.295-.056.279-.281.386-.361.639.134.02.274-.052.424-.126l.005-.001.076-.037c.224-.104.476-.182.78.033-.045.265-.272.347-.29.639-.184-.074-.238-.276-.418-.355l-.032-.038c.111.7.99 1.705 1.192 2.65.176.833-.106 1.717-.664 2.15-1.318 1.02-3.845-.494-2.194-1.817.656-.057 1.127.071 1.423.37.12.569-.268.95-.72.707-.177-.18.085-.281.077-.5-.17-.15-.458.014-.643.066.195 1.914 2.624.074 1.292-.845-.815-2.665-2.654-4.326-4.155-6.316-2.315-2.04-5.227-4.15-7.005-6.84a8 8 0 0 1-.771-1.65c-.153-.477-.47-1.372.014-1.65l.15-.022c.155.819.347 1.599.739 2.184.13.201.284.382.466.533-.194-.775-.798-1.762-.902-2.862l.015-.02-.034.011-.004-.025q.172-.258.573-.28c.224.53.448 1.059.739 1.52l.061.092.131.193c.233.32.508.602.854.813-.314-.766-1.185-1.546-1.447-2.612l-.014.004-.036-.15q.39-.213.93-.278c.064.354.197.642.373.886l.077.102.014.019q.208.26.474.462c.04-.216-.051-.39-.174-.564-.07-.102-.152-.204-.23-.313a1.14 1.14 0 0 1-.223-.561l.004-.001-.029-.17.163.125-.01.004c.246.202.443.454.792.555a.24.24 0 0 0-.028-.28c-.115-.18-.448-.297-.56-.473.334-.257.758-.38 1.207-.398l.217.012.124.006-.008-.011c1.806.09 3.682 1.748 2.028 3.168m-1.23-3.925c-.391.209-1.027.329-1.596.518-.39.13-.755.351-.955.415-1.076.344-2.214.646-3.006 1.258.114-1.455 2.354-1.972 4.017-2.463.283-.084.656-.166.946-.25.156-.046.662-.108.832.039.053.046.196.252-.237.483m8.229 18.271a8 8 0 0 0-.095-.304l-.055-.16-.064-.173a8 8 0 0 0-.138-.337l-.001-.002a5.6 5.6 0 0 0-.406-.757c.15-.134.319-.25.36-.496.244.129.48.363.688.656.57 1.06.9 2.676.04 3.314a10 10 0 0 0-.062-.506l-.001-.004a9 9 0 0 0-.26-1.215zm3.833.915c3.074-8.16 6.565-16.56 9.85-24.747.55-1.376.95-2.739 1.632-3.888l.248-.162c.088-.007.005.383.01.373a234 234 0 0 0-2.923 7.45c-2.637 7.095-5.426 14.198-8.178 21.409-.196.511-.278 1.56-1.155 1.488-.07-.674.289-1.318.516-1.923m.706.791c3.727-9.74 7.3-19.64 11.244-29.16.041-.102.351-.45.455-.49.81.218-.38 2.873-.626 3.772-2.239 8.206-4.939 16.939-7.21 24.913-1.12-.066-2.383.159-3.217.615-.226.122-.455.502-.646.35m4.472-2.431c2.103-7.431 4.3-15.123 6.523-22.663.36-1.225.718-2.347 1.07-3.592.108-.38.238-.298.259-.288.014.005.062.16-.021.549-.077.36-.241.967-.237.983a1128 1128 0 0 1-6.908 25.133c-.123.431-.097 1.406-.868 1.349-.308-.04.065-1.063.182-1.471m6.953-31.08-.031.13-.009.027-.042.084-.041.068-.09.173-.004.013-.001.002c-.117-.089-.265-.146-.28-.334v-.027c.136-.076.336-.087.498-.136m-.497.134v-.004l.008-.007zM50.103 44.37c-.18-.141-.404-.21-.683-.213-.417-.004-.889.141-1.346.282-.342.105-.665.205-.95.237l-.121.014.05-.111c.076-.18.218-.285.355-.387l.164-.131.02-.021h.03c1.561.058 2.854-.143 3.896-.811l.067-.038.03.07c.201.448.197.836-.012 1.154-.554.844-2.377.916-3.407.908-.304-.003-.601.022-.877-.003l-.076-.006.013-.076q.054-.308.359-.306c.109 0 .23.032.345.062.103.026.2.051.275.051h.015c1.07-.041 1.677-.263 1.853-.675m-.287 3.712c.085-.135.199-.236.31-.333.187-.164.364-.319.394-.621l.008-.075.073.012a9 9 0 0 0 1.322.09q.377.001.76-.003.386-.004.763-.003a9 9 0 0 1 1.365.095l.082.015-.027.079-.051.107-.019.04-.07.098-.029.035-.055.056-.087.075-.002.003-.15.091-.213.095a1.4 1.4 0 0 1-.426.064q-.195-.001-.39-.055l-.007.028.008.044.12.064-.092.061-.179.052c-.133 0-.275-.072-.411-.14-.105-.051-.213-.105-.303-.12l-.05.028.08.124.064.033-.034.062-.12.071a.5.5 0 0 1-.215-.08c-.09-.05-.195-.11-.235-.065-.029.074-.017.08.032.106.054.026.154.078.114.234l-.002.009c-.052.004-.07.001-.145 0l-.086-.008c-.232-.073-.497-.13-.6-.254l-.191.14-.149.05c-.117 0-.224-.083-.336-.17-.09-.07-.184-.141-.269-.157l-.051.03.083.123.057.031-.026.06c-.019.04-.065.088-.186.088-.133-.003-.378-.05-.423-.213zm6.887 7.316-.717 1.464c-1.998-2.66-3.946-5.42-5.848-8.195.561.062 1.408-.26 1.712.157a888 888 0 0 0 4.853 6.574m1.067 1.21c-1.886-2.58-4.007-5.31-5.87-7.913.267-.018.727.156 1.306-.096 1.322 1.863 2.521 3.762 3.863 5.81.72.927 1.343 1.49.701 2.199m.098-3.823-.713 1.51s-2.468-3.9-3.852-5.707l.02-.004c.56-.197.747-.394 1.185-.482 1.06 1.428 3.36 4.683 3.36 4.683m.595-.84c.468.663 1.075 1.461.43 1.937-1.506-1.868-2.837-3.825-4.23-5.804l.006-.014.036-.017.24-.115.214-.14.19-.14c.784 1.02 2.363 2.943 3.032 4.163zm3.116-5.82-.864.85c-.964 1.32-2.252 4.62-2.252 4.62s-2.135-2.904-3.174-4.382c1.935-.145 4.49-.094 4.567-1.894l.002-.003c.648-.024 1.158-.239 1.73-.331-.005.37-.01 1.14-.01 1.14m-9.957-1.537a1 1 0 0 0 .144-.188l.02-.037h.043c3.215.006 7.016-.34 10.7-.976l.087-.015-.004.088c-.06 1.105-1.396 1.119-2.058 1.12l-.017.014.046.04.07.138-.1.09c-.268.057-.51-.004-.713-.059-.171-.047-.33-.083-.453-.043l.022.073.117.025.25-.019-.204.147a.5.5 0 0 1-.308.088 1.7 1.7 0 0 1-.451-.09c-.106-.029-.205-.058-.286-.065l-.05.01.011.078-.01.154-.088.042a2.3 2.3 0 0 1-.653-.077 2.3 2.3 0 0 0-.524-.076h-.03l-.01.002.047.047.082.164-.123.073c-.305.025-.51-.045-.706-.115a1.6 1.6 0 0 0-.5-.11l-.034.018.068.099.07.175-.114.064-.183.01c-.267-.002-.454-.082-.634-.159a1.5 1.5 0 0 0-.484-.144c-.007.067.03.082.104.112l.087.04.1.061-.1.06a.47.47 0 0 1-.25.064 1.4 1.4 0 0 1-.426-.1l-.395.126-.147.022c-.18-.002-.348-.1-.512-.195-.186-.11-.364-.207-.522-.16.001.061.04.08.127.114l.135.068.091.075-.109.045a.6.6 0 0 1-.247.048c-.172-.002-.337-.064-.512-.13-.197-.075-.4-.153-.617-.139l-.066.004-.008-.064c-.045-.338.1-.498.227-.637m-.105 2.05c-.005.137.056.145.087.15l.215.032-.193.1c-.122.063-.36-.021-.591-.11a2.4 2.4 0 0 0-.311-.106l-.162-.035.138-.091c.243-.162.49-.326.576-.73l.136-.056c.42.033.844.053 1.295.056 1.463.013 2.906-.132 4.3-.271.826-.083 1.678-.169 2.515-.22l.082-.004-.017.113a1.3 1.3 0 0 1-.046.236l-.071.182h-.001l-.11.164-.041.042-.086.082c-.176.138-.405.216-.67.245l-.032.029a3 3 0 0 1-.305.016 4 4 0 0 1-.511-.043l.015.15-.01.048-.05.007q-.102.011-.2.01c-.159-.001-.294-.026-.425-.049-.146-.026-.285-.051-.457-.046.008.05.048.067.126.097l.134.07.071.056-.09.012.036.025a.48.48 0 0 1-.336.03l-.11.02a2 2 0 0 1-.344-.136c-.205-.096-.403-.18-.556-.131l.022.071.117.027.277-.02-.235.15a.5.5 0 0 1-.29.083c-.152-.002-.3-.061-.441-.119-.133-.052-.258-.103-.377-.106l-.046.009.013.034.013.158-.103.08-.033.004c-.261-.003-.423-.102-.58-.197-.116-.07-.225-.138-.375-.164l-.007.048c.015.06.11.138.21.167l.21.065-.208.07-.192.03c-.193-.002-.372-.093-.563-.19l-.125-.064-.25.138a.4.4 0 0 1-.204.051c-.136 0-.261-.063-.395-.13-.138-.068-.28-.138-.437-.14zm-1.618 2.096.163.212 5.517 7.694c1.379 2.051 1.62 1.826 1.011 2.876-2.552-3.268-4.868-6.738-7.319-10.105.094-.289.458-.467.628-.677m-1.917 1.912c.17-.264.48-.706.47-1.025.213-.041.352-.137.54-.251 2.17 2.866 6.345 8.867 6.345 8.867l-.798 1.458s-4.404-6.002-6.557-9.049m-2.367 1.334c.53-.107 1.02-.287 1.169-.75 2.538 3.049 7.175 9.53 7.175 9.53l-.726 1.492zm-.963.685c.617-1.196 1.297.038 1.793.696 2.554 3.386 5.28 7.289 7.853 10.631.778.905-.002 1.468-.038 1.47 0 0-.862-1.064-1.234-1.57-2.75-3.753-5.635-7.412-8.374-11.227m7.947 10.943-.529 1.06s-6.05-7.733-8.89-11.78c.498.025.863-.02 1.215-.204 2.812 3.58 8.204 10.924 8.204 10.924M40.692 51.915l.067-.012.144-.015c.171.002.273.076.364.141l.167.096.12.038-.096.082c-.02.015-.045.025-.119.025-.005 0-.596-.013-.637-.288zm10.867 13.89c-.166.335-.35.651-.508.995-3.353-4.134-6.624-8.347-9.953-12.505.018-.308.258-.48.012-.707v-.008c.366-.098.712.287 1.278.155 2.907 4.17 6.201 7.96 9.17 12.07m-8.713-12.85.07.073c3.127 4.104 6.467 8.28 9.616 12.465.65.862.986 1.244 1.046 1.501.05.213-.333.672-.333.672s-.853-1.09-1.273-1.638c-3.04-3.957-6.364-8.262-9.418-12.29-.018-.379.375-.338.292-.783m-3.421-.35c.14.03.239.096.333.161.076.053.149.104.241.131l.119.034-.091.085-.127.036c-.183 0-.545-.135-.56-.375l-.004-.09zm-.013-.66.089.018c.333.063.657.256.97.443.361.218.736.443 1.108.446a.94.94 0 0 0 .476-.127l-.023-.033-.09-.026.05-.08c.02-.028.057-.062.132-.06.094 0 .22.055.342.11l.172.068.037.022.006.039.004.046h-.004l.01.168a.6.6 0 0 1-.044.194c-.077.17-.245.26-.47.286v.001h-.002a2 2 0 0 1-.632-.048l-.16.01c-.892-.217-1.932-.85-1.966-1.385zm5.036.141.064.04-.045.063q-.392.522-1.132.516c-.9-.007-1.924-.608-2.388-.962l-.03-.022.002-.037c.012-.195.008-.382-.099-.434l.057-.128c.18.073.377.21.584.353.438.304.934.648 1.55.654q.187.002.373-.04c-.163-.322-.542-.442-.94-.57l-.295-.095.17-.074q.202-.085.424-.084l.165.021 1.362.68zm3.341-1.37L55.4 61.134s.824.892.041 1.433a870 870 0 0 0-8.489-11.5c.15.199.609-.31.833-.396zm1.963-2.596.008.002.007.114a.8.8 0 0 1-.024.258l-.026.07-.072.14-.072.096-.048.06-.123.106-.033.027q-.169.123-.386.203v.001h-.001c-.185.07-.18.097-.398.129l-.216.046a6 6 0 0 1-.799.058c-.716-.006-1.443-.147-1.81-.35l-.074-.042.056-.065c.088-.104.224-.153.42-.152.188.002.413.05.65.102.253.055.515.113.752.115.262.002.443-.064.568-.21-.161-.15-.457-.185-.848-.188q-.114-.002-.23 0h-.234c-.455-.005-.95-.042-1.083-.457l-.034-.102.107.01c.19.022.357.07.553.094.532.111 1.209.122 1.779.151.63.03 1.126-.042 1.559-.239l.053-.035.004.004.003.054zm.232-2.247a1.8 1.8 0 0 0-.597-.094c-.348-.003-.73.062-1.1.125-.375.064-.765.131-1.13.128l-.196-.004.09-.111c.313-.385.887-.42 1.441-.453.205-.012.437.006.625-.024a3.5 3.5 0 0 0 1.955-.482v-.005c.121-.017.223.005.247.098l-.007.033c.075 1.52-1.077 1.565-2.568 1.817l-.057.005c-.258.018-.552.023-.828.037-.654.033-.96-.125-1.106-.38l-.058-.103.12-.001.335-.002c1.123-.002 2.282-.008 2.834-.584m14.78-4.226.005.002v.072l-.004.051a.8.8 0 0 1-.05.273l-.065.144-.01.018-.118.16c-.288.323-.795.52-1.323.515a2 2 0 0 1-.515-.068c-.064.01-.08.08-.07.28l.004.076-.075-.002a4 4 0 0 1-.656-.072 9 9 0 0 0-.57-.076c-.007.067.03.081.105.11l.086.042.095.058-.093.06a.4.4 0 0 1-.236.063c-.15-.001-.314-.057-.489-.115-.179-.06-.364-.122-.531-.125l-.133.015.112.09.153.104.055.072-.085.035a1.6 1.6 0 0 1-.637.12c-.285-.002-.57-.067-.846-.13q-.15-.035-.299-.065l-.003.041c.017.047.093.097.189.1l.272.009-.242.123a.8.8 0 0 1-.378.086c-.199-.001-.395-.065-.584-.125a2.3 2.3 0 0 0-.406-.106l-.014.015.077.074c.057.046.114.094.104.163l-.09.099-.022.004c-.313.024-.488-.087-.658-.192-.137-.086-.268-.169-.473-.175.04.126.155.187.284.253l.09.048.08.045-.063.065a.22.22 0 0 1-.168.062c-.142-.001-.329-.088-.543-.188-.187-.087-.396-.184-.567-.214-.005.08.054.133.142.2.063.05.122.096.122.168l-.067.112-.02.016-.025-.002c-.376-.014-.673-.108-.961-.199-.185-.058-.375-.119-.584-.156.046.116.156.174.28.237l.089.049.122.068-.129.056a.7.7 0 0 1-.281.056c-.208-.002-.435-.083-.674-.17a5 5 0 0 0-.503-.161c.006.128.092.168.213.227l.111.057.128.077-.142.05-.17.026c-.219-.002-.453-.122-.678-.239-.11-.056-.214-.109-.307-.144l-.025.024.098.125c.065.064.121.118.104.188l-.097.083-.014.003-.014-.002c-.377-.048-.343-.31-.315-.521.022-.174.046-.353-.078-.506l-.094-.115h.149c.325.002.685-.074 1.035-.148.239-.05.463-.1.672-.121 1.174-.127 2.398-.203 3.583-.274 2.608-.16 5.303-.325 7.546-1.053l.082-.026.01.083v.033zm-.334 4.932c-.417-.587-2.493-.523-2.493-.523l-.061-1.07s.01-.227.173-.407l-.004.002c.25-.278.616-.67.877-.89l.05-.043.046.049a.7.7 0 0 1 .151.305l.019.09c.042.258.047.559.116.763.453-.092.262-.576.364-.852.254-.695.84-1.177 1.227-1.702.636.921-.185 2.071-.522 2.707.543-.157.813-.845.937-1.206.451-.196.93.035 1.14.296-1.178.313-1.42 1.579-2.02 2.48m2.918-7.253c-.01.157-.304.027-.428.068-.005.961-.581 1.346-1.304 1.455l-.012.01.015-.016c-.164.006-.732.076-.92.061a10 10 0 0 0-.608-.024c-1.216-.01-2.521.124-3.902.33-1.204.18-2.4.383-3.647.438-.6.026-3.568.218-4.68.304l-.232.018-.499.036h-.246.009-.009c-.696-.007-1.406-.048-1.816-.427-.026.037-.005.078.051.162.043.064.087.13.069.203l-.092.102q-.24.08-.453.077c-.411-.003-.722-.224-.928-.411-.013.032 0 .079.03.167.037.109.094.274-.076.367l-.02.007q-.119.023-.22.022c-.354-.002-.501-.216-.633-.403a1 1 0 0 0-.211-.245c-.062.095-.024.2.04.349.046.11.095.227.08.35l-.005.05-.048.011q-.172.04-.315.038c-.36-.004-.537-.2-.692-.372l-.126-.134c-.037.1.007.203.078.35.048.102.099.206.108.32l.003.04-.032.023a.76.76 0 0 1-.468.138c-.157 0-.313-.038-.452-.07-.163-.04-.314-.069-.394-.036.076.196.265.29.464.387l.099.05-.011.053c-.107.508-.563.504-.712.503-.105-.001-.21-.013-.304-.022l.012.092c.029.045.106.063.188.081.122.028.29.065.308.247q.007.209-.107.325c-.148.151-.4.153-.624.154-.07.002-.137.002-.192.007.044.176.265.2.544.209.105.006.196.008.256.03l.044.016.002.048c.026.47-.23.674-.455.854-.128.104-.25.2-.326.341.066.049.195.006.303-.035a.6.6 0 0 1 .193-.05c.076 0 .111.046.125.073l.006.017c.147.687-.246.853-.592 1-.106.046-.209.09-.296.146l.118.053c.133.056.283.119.327.294l.004.016-.003.017c-.09.362-.405.48-.709.596-.213.08-.415.157-.534.312l.06-.006.126-.01c.161.003.19.096.192.15l.001.02-.009.018c-.178.334-.587.417-.984.496l-.094.02.006.046.15.031c.105.005.235.013.278.128l.028.076-.079.017q-.209.046-.427.1c-.496.122-1.06.262-1.663.24l-.403-.015c-.262-.011-.531-.023-.793-.026-.966-.007-1.896.094-2.205.86a.8.8 0 0 0 .248-.095.8.8 0 0 1 .418-.119l.175.019.047.009.008.048c.051.292.065.623.077.944.02.469.018 1.006.157 1.358.238.238.498.448.742.67.36.398.762.865 1.345 1.014l-.025-.058.033.061-.008-.003.008.019c3.45 4.57 7.129 8.92 10.57 13.498-.658 1.249-1.234 2.581-1.933 3.79a2 2 0 0 0 0-.243c.01-.436-.13-.918-.41-1.146.649-.284.546-1.462.093-1.843.867-.62.252-1.71-.459-2.083.73-.577-.214-1.397-.782-1.57a1.1 1.1 0 0 0 .028-.336c-.003-.34-.188-.57-.45-.735-.251-.172-.571-.282-.876-.364.032-.288-.03-.494-.15-.64-.343-.467-1.246-.377-1.687-.45.076-.246.328-.395.211-.754L44 61.53c-.197-.354-.868-.225-1.29-.36l.017-.043.016-.042c.165-.436.027-.83-.286-1.074a1.2 1.2 0 0 0-.745-.286 2.6 2.6 0 0 0-.152-.741c-.319-.991-1.156-1.42-2.145-1.781.915-.158.951-1.342-.114-1.568-.082-.441.22-.724-.062-.856-.22.186-.13.684-.153 1.068-1.674.625-3.64.953-5.011 1.884-.25-1.598-.275-3.483-.74-5.145-.27-.106-.14.195-.358.14-.228-.295-.526-.52-.564-1.004 1.63-1.59 3.427-3.366 3.481-6.322.51-.114 1.088-.511 1.008-.99-.622.558-1.114 1.11-2.363.978-.404-.134-.43-.976-.49-1.217.267-.04.753.142.717-.208-.373-.224-.663.18-.855-.22-.095-.313.277-.15.218-.428-.269-.136-.691-.123-.782-.434.34-.303.601-.684.796-1.134.272.025-.062.552.35.573.225-.048.095-.19.076-.357.156.054.234.338.428.148-.038-.483-.672-.38-.852-.722.227-.429.557.36.856.08-.045-.452-.687-.316-.922-.58-.05-.33.24-.566.078-.784-.265-.078-.143.239-.288.283.152 1.283-.4 1.848-.808 2.562.108.295.47.339.637.577.016 1.218.365 2.447 1.908 2.157-.12 2.245-1.864 4.87-3.474 5.75-.263.885.474 1.298.983 1.65.083 2.252.74 3.934.305 6.068.413.473.257 1.305.482 1.93.356.998 1.16 1.994 1.76 2.8 1.461 1.96 3.763 3.275 5.593 5.044.909.878 1.74 1.8 2.473 2.804.735 1.009 1.664 2.086 1.825 3.513-2.643.255-1.644 2.905.333 2.858.885-.022 1.292-.705 1.79-.912.986-.407 2.007.549 2.851.524.087.127.218.34.363.41.816.247.833-.398 1.21-.824.44-.495 1.198-.984 2.008-1.196.792-.207 1.442.065 2.143-.124.184.078.348.177.642.148.629-.763.775-2.123 1.099-3.344 1.517-5.727 3.012-11.143 4.57-16.803.78-2.827 1.841-5.743 2.288-8.614-.1-.232-.283-.382-.351-.645.71-.694.74-2.079 1.876-2.338.342.135.278.668.275 1.144.56-.85-.01-2.32-1.338-2.01.01-.743-.157-1.308-.269-1.93.791-.682 2.389-.927 2.303-2.263M35.471 53.597c-.875-.068-1.083-.74-1.346-1.225.077 2.277 3.793 1.57 2.86-.688.168 1.198-.416 1.999-1.514 1.913m.292-.782c-.11-.377-.361-.174-.568-.433-.219.306.282.608.568.433" class="st3"/><path d="M49.937 82.035v.655c18.188 0 32.933-14.702 32.935-32.843-.002-18.14-14.747-32.842-32.936-32.842S17.002 31.707 17.002 49.847 31.748 82.69 49.937 82.69v-1.31a31.57 31.57 0 0 1-22.364-9.237c-5.724-5.708-9.261-13.587-9.262-22.296 0-8.71 3.538-16.588 9.262-22.296s13.627-9.237 22.364-9.237 16.637 3.53 22.362 9.237 9.262 13.586 9.262 22.296-3.538 16.588-9.262 22.296a31.57 31.57 0 0 1-22.362 9.238z" class="st3"/><path d="M49.936 98.45v.656c27.28 0 49.398-22.053 49.398-49.258S77.216.588 49.936.588.54 22.642.54 49.849s22.116 49.258 49.397 49.258v-1.31c-13.282 0-25.3-5.367-34.004-14.044C7.23 75.073 1.849 63.09 1.849 49.849s5.38-25.226 14.084-33.905C24.636 7.265 36.654 1.899 49.936 1.899s25.3 5.366 34.005 14.043c8.702 8.68 14.082 20.663 14.083 33.906 0 13.241-5.381 25.224-14.083 33.904-8.705 8.677-20.724 14.043-34.005 14.044z" class="st3"/><path d="M81.844 18.97c-.083.2-.187.223-.333.109-.11-.086-.219-.174-.335-.248-.341-.218-.507-.218-.813.048-.455.396-.892.81-1.338 1.217l-.559.51 2.8 3.058c.08-.058.157-.105.222-.163q.769-.704 1.536-1.413.114-.106.22-.22c.18-.193.201-.413.086-.642a5 5 0 0 0-.265-.448c-.108-.165-.037-.248.177-.343q.095.13.2.268a18 18 0 0 0 1.804 1.974q.087.086.166.178c.122.137.063.227-.106.308-.136-.1-.28-.213-.428-.317-.44-.308-.655-.305-1.049.053a786 786 0 0 0-3.869 3.548c-.372.343-.397.567-.154 1.014.09.162.193.316.32.525-.053.05-.108.105-.184.179-.112-.107-.193-.17-.256-.247a22 22 0 0 0-1.898-2.077c-.089-.085-.273-.178-.141-.337.15-.181.26.016.375.088.098.063.187.137.286.198.24.152.483.161.703-.037.662-.595 1.32-1.195 2.009-1.819l-2.822-3.078-1.251 1.14c-.222.203-.447.405-.661.616-.325.322-.344.487-.118.893.056.1.126.194.186.294.095.162.093.163-.11.325l-2.294-2.501c.13-.221.137-.224.312-.102.142.099.28.205.424.302.277.185.549.162.802-.045.188-.154.367-.319.547-.484q1.666-1.526 3.33-3.055c.51-.469.537-.676.175-1.258a5 5 0 0 0-.133-.202c-.06-.086-.084-.17.006-.246.092-.076.17-.043.24.037.077.087.16.168.231.26a17 17 0 0 0 1.714 1.869c.091.085.167.185.245.272M12.499 65.766c-.138-.5-.277-.986-.594-1.398-.248-.324-.572-.498-.987-.484a2.66 2.66 0 0 0-1.573.567c-.293.224-.45.53-.435.905.017.44.185.832.43 1.192.12.18.295.255.51.208q.155-.029.302-.081 1.088-.409 2.175-.822c.052-.02.1-.05.172-.087m-.597-1.984c.09-.112.172-.209.25-.309.54-.694 1.065-1.402 1.627-2.081.373-.451.466-.944.37-1.496-.01-.058-.026-.113-.04-.169-.027-.114-.014-.208.122-.24.125-.031.165.051.196.143.033.1.055.202.092.3.189.52.38 1.04.585 1.596-.452.581-.93 1.193-1.403 1.808-.262.338-.515.685-.778 1.025-.316.41-.287.83-.046 1.286q.804-.299 1.595-.597.391-.15.776-.306c.283-.116.412-.33.384-.632-.019-.196-.05-.39-.081-.584-.018-.117 0-.212.13-.24s.149.08.186.162q.034.08.058.164.395 1.353.994 2.63c.034.073.074.15.077.228.002.055-.04.139-.085.16-.046.023-.134.002-.179-.032-.052-.04-.074-.116-.112-.173-.098-.144-.187-.295-.298-.427-.163-.194-.371-.272-.623-.183-.098.034-.2.06-.297.097l-4.65 1.75c-.032.013-.063.03-.095.041-.594.234-.7.431-.58 1.068.018.103.051.206.049.308-.002.054-.064.149-.101.15-.063.002-.138-.044-.189-.091-.037-.037-.048-.104-.063-.16-.283-.993-.689-1.941-1.093-2.89a3.6 3.6 0 0 1-.297-1.522c.035-1.322 1.41-2.12 2.54-1.523.262.14.496.337.738.514.082.06.15.14.242.225m22.513-51.423c.494-.139.935-.275 1.322-.54.355-.243.575-.569.57-1.014a2.6 2.6 0 0 0-.612-1.662c-.325-.39-.761-.467-1.231-.34a3.3 3.3 0 0 0-.641.259c-.432.223-.512.42-.344.876.248.672.513 1.339.77 2.009zm1.986-.618c.264.202.51.393.76.582.544.414 1.098.815 1.63 1.246.457.372.954.503 1.525.367q.1-.025.204-.039c.156-.018.156-.016.22.252-.11.04-.223.09-.34.125-.478.143-.958.283-1.388.543-.203.122-.352.078-.53-.062-.676-.53-1.362-1.043-2.047-1.561-.183-.14-.377-.268-.56-.411-.417-.325-.848-.316-1.31-.069.018.067.03.136.054.198q.378.991.766 1.976c.214.542.417.65.992.554.125-.021.25-.065.375-.066.057 0 .136.067.165.124.016.034-.035.128-.08.158-.075.05-.169.076-.257.103q-1.301.389-2.526.976c-.093.045-.19.09-.291.106-.05.008-.14-.038-.16-.083-.023-.048-.003-.136.032-.182.039-.052.116-.073.173-.112.142-.1.29-.194.423-.304a.52.52 0 0 0 .182-.592c-.033-.11-.064-.223-.104-.33q-.9-2.335-1.802-4.669c-.256-.658-.41-.742-1.105-.621q-.12.02-.237.05c-.107.029-.186.005-.223-.104-.036-.11.017-.175.121-.21.165-.055.33-.108.493-.17.67-.257 1.335-.526 2.008-.775a18 18 0 0 1 1.412-.477c.347-.097.711-.073 1.066.016a1.726 1.726 0 0 1 1.227 2.163c-.12.398-.337.736-.617 1.036zm6.612-1.455.153 1.154c.055.401.099.805.168 1.204.084.487.25.626.74.665.15.01.3.015.45.033.151.016.188.11.141.26-1.151.158-2.304.316-3.47.478-.079-.145-.092-.254.105-.311q.234-.066.458-.162c.377-.167.484-.321.45-.727-.039-.461-.105-.92-.167-1.38-.175-1.286-.356-2.57-.534-3.856a6 6 0 0 0-.048-.272c-.058-.282-.225-.454-.511-.494a7 7 0 0 0-.552-.053c-.12-.008-.25.005-.254-.159s.137-.165.25-.176c.426-.04.855-.058 1.28-.116.538-.074 1.073-.18 1.608-.27.114-.02.227-.03.333-.044.11.17.095.275-.09.335-.188.06-.376.122-.555.201-.259.114-.396.318-.364.608.036.335.08.667.123 1q.08.62.165 1.24c.02.147.05.292.075.436.307-.004.468-.187.62-.38q.892-1.156 1.782-2.314c.135-.174.277-.343.397-.528.179-.276.108-.423-.22-.473-.125-.02-.255-.013-.378-.042-.053-.011-.134-.09-.127-.124.01-.062.068-.15.122-.164.144-.039.298-.043.446-.063l1.753-.24q.169-.025.34-.055c.108.16.112.289-.078.331-.67.152-1.093.618-1.493 1.127-.587.747-1.187 1.484-1.781 2.226-.07.089-.136.181-.215.287.09.077.165.146.245.209 1.074.827 2.154 1.648 3.22 2.485.439.342.914.537 1.474.521.137-.003.343-.058.34.175-.004.21-.203.149-.325.16-.96.08-1.913.192-2.854.396a1.8 1.8 0 0 1-.378.047c-.05-.001-.127-.066-.139-.116s.026-.145.069-.168c.132-.068.283-.101.417-.168.29-.148.31-.305.075-.535q-.076-.073-.16-.134-1.194-.927-2.392-1.852c-.192-.148-.39-.292-.714-.202m45.391 54.21c-.144.412-.31.795-.41 1.195-.15.608.038 1.042.581 1.35.277.158.589.27.898.348.449.113.84-.046 1.087-.43.18-.277.31-.593.419-.907.111-.317-.005-.531-.311-.674-.167-.078-.343-.137-.515-.205zm-.34-.102c-.066-.044-.093-.068-.124-.08q-1.21-.474-2.423-.944-.081-.029-.166-.047c-.29-.068-.537.01-.699.26a3.6 3.6 0 0 0-.354.672c-.221.578-.124 1.114.278 1.588.279.328.642.525 1.046.653.823.26 1.54-.026 1.916-.801.2-.414.347-.854.527-1.3m-2.8-3.621c.202.015.287.077.237.266a4 4 0 0 0-.089.478c-.044.322.067.57.368.716q.139.07.284.13 2.33.908 4.662 1.813c.628.243.82.173 1.174-.397q.11-.176.215-.34c.204.01.284.084.205.268-.055.128-.106.257-.165.383-.372.774-.657 1.58-.932 2.394-.13.38-.307.75-.503 1.102a1.92 1.92 0 0 1-.861.786 1.513 1.513 0 0 1-2.03-.65c-.211-.387-.287-.805-.27-1.3-.094.098-.151.16-.21.22-.196.196-.373.416-.59.585-1.02.795-2.39.456-2.945-.717-.302-.636-.265-1.284-.037-1.928.113-.316.259-.62.38-.933.303-.777.599-1.555.898-2.333zM9.43 58.95c.993 0 2.014-.264 2.71-.697.575-.359 1.03-.826 1.254-1.482.46-1.347-.233-2.783-1.59-3.314-.665-.258-1.352-.302-2.052-.218-.912.11-1.76.381-2.49.969-1.587 1.277-1.203 3.7.627 4.433a4.3 4.3 0 0 0 1.542.31m4.49-2.715c.02 1.921-1.31 3.536-3.336 3.837-1.182.175-2.259-.026-3.21-.776-.814-.644-1.238-1.51-1.415-2.514a4.5 4.5 0 0 1-.043-1.384c.224-1.638 1.38-2.89 3.003-3.257 1.078-.246 2.12-.184 3.087.403 1.016.618 1.568 1.55 1.791 2.693.064.328.084.665.124.998m16.676-39.14c-.02-.172-.025-.347-.058-.516-.261-1.31-.95-2.351-2.012-3.143a3.7 3.7 0 0 0-.858-.447 2.34 2.34 0 0 0-1.534-.078c-1.345.382-2.12 1.647-1.857 3.081.24 1.298.92 2.338 1.95 3.148.463.365.999.587 1.594.625 1.497.094 2.762-1.13 2.775-2.67m-7.287-.727c-.002-.774.159-1.494.589-2.125.778-1.14 1.847-1.844 3.229-2.006 1.012-.117 1.932.165 2.728.8a4.37 4.37 0 0 1 1.5 2.21c.344 1.162.163 2.258-.547 3.237a4.54 4.54 0 0 1-2.657 1.787c-1.328.324-2.51-.005-3.487-.959-.824-.805-1.315-1.783-1.355-2.944m38.465 72.103c.005-.546-.11-1.066-.323-1.479-.81-1.57-2.91-1.759-3.955-.357-.717.96-.735 2.585-.06 3.577.929 1.362 3.02 1.351 3.904-.082.314-.51.43-1.068.434-1.66m-5.82-.035c-.048-1.949 1.595-3.452 3.446-3.411 1.928.043 3.383 1.504 3.38 3.455-.002 2.078-1.71 3.436-3.458 3.418-1.764-.02-3.434-1.457-3.367-3.461M92.66 61.26v-.035c-.007-.657-.153-.83-.805-.952-1.116-.208-2.234-.408-3.346-.634a5 5 0 0 1-1.054-.336c-1.185-.546-1.705-1.557-1.477-2.838.082-.47.22-.924.467-1.338.563-.95 1.594-1.464 2.685-1.289 1.017.164 2.027.369 3.042.555.34.062.682.137 1.025.18.408.052.57-.044.75-.41.076-.156.119-.328.198-.48.029-.057.118-.115.178-.115.116.002.143.098.122.202-.015.08-.027.16-.049.238a18 18 0 0 0-.51 2.73c-.01.08-.014.169-.051.236-.025.046-.108.092-.157.085-.05-.005-.124-.077-.128-.124-.016-.173 0-.347-.011-.521-.029-.45-.175-.642-.607-.723a323 323 0 0 0-4.1-.743 2.5 2.5 0 0 0-1.202.106c-.331.108-.6.307-.788.6a2.8 2.8 0 0 0-.438 1.721c.04.625.361 1.088.884 1.418.417.264.88.41 1.36.504 1.08.209 2.161.41 3.243.614.696.132.915.009 1.163-.654.032-.087.043-.187.095-.258.038-.05.14-.1.19-.083.052.017.11.117.107.177-.003.114-.044.227-.075.338a8.3 8.3 0 0 0-.335 1.774c-.01.137-.03.277-.07.41-.015.047-.098.104-.147.102-.051-.003-.135-.065-.144-.112-.022-.111-.007-.23-.007-.345zM65.392 9.961l-.083-.03c-.612.691-1.231 1.378-1.858 2.117l1.847.701c.032-.967.062-1.878.094-2.788m-.1 3.188-2.08-.8c-.068.065-.132.113-.184.171q-.517.585-1.033 1.174-.057.067-.109.135c-.344.456-.291.714.205 1.01.088.05.176.104.26.153-.088.27-.089.272-.291.194-.13-.05-.254-.112-.384-.162q-.81-.31-1.62-.616c-.117-.044-.236-.081-.364-.125.013-.19.056-.297.252-.243.591.163 1.038-.096 1.425-.503.687-.722 1.368-1.45 2.05-2.175q1.249-1.33 2.496-2.663c.032-.034.06-.07.095-.102.081-.076.146-.198.286-.15.16.054.135.199.132.323l-.08 3.753c-.02.915-.036 1.83-.059 2.744-.016.642.2 1.157.778 1.483.05.029.115.054.138.1.028.053.042.14.016.186-.023.041-.119.076-.167.062a3 3 0 0 1-.417-.17c-.721-.35-1.475-.611-2.237-.85-.14-.044-.274-.108-.404-.16.006-.213.084-.282.268-.23.144.042.291.081.44.095.265.027.413-.092.473-.35a1 1 0 0 0 .023-.137zM11.43 38.762l-2.803.222-.023.076c.767.533 1.523 1.082 2.33 1.615zm3.023.859c.019-.18.05-.362.053-.546.004-.342-.146-.514-.479-.497-.727.037-1.453.102-2.208.157l-.57 2.185c.592.4 1.166.809 1.763 1.183.335.21.576.116.774-.237.074-.13.127-.27.187-.402.266.02.29.04.24.24-.04.156-.1.307-.14.465q-.206.788-.406 1.577c-.025.102-.034.208-.074.303-.022.052-.112.125-.135.114a.32.32 0 0 1-.146-.156c-.023-.06 0-.137.005-.207a1.08 1.08 0 0 0-.322-.884 6 6 0 0 0-.57-.506c-1.687-1.265-3.378-2.524-5.067-3.786-.075-.055-.159-.102-.219-.17-.048-.054-.109-.152-.09-.2a.3.3 0 0 1 .193-.161c.216-.038.437-.045.656-.065l4.118-.37c.6-.053 1.2-.109 1.799-.158.655-.054 1.145-.341 1.402-.968.018-.043.034-.1.068-.12.053-.029.125-.054.18-.042.037.008.068.08.087.13.01.028-.003.07-.014.101a25 25 0 0 0-.763 2.92c-.04.207-.072.207-.322.1m-8.839 7.894c.186-.049.266 0 .287.148.016.114.032.231.064.341.087.294.228.364.527.264q.148-.05.285-.125 1.215-.678 2.428-1.358c.03-.016.053-.04.104-.08-.055-.058-.099-.121-.156-.165-.709-.544-1.416-1.087-2.13-1.624-.507-.38-.768-.283-.937.338l-.033.134c-.027.108-.062.209-.204.18-.145-.03-.127-.146-.118-.248.021-.22.059-.437.072-.657.032-.496.054-.993.076-1.49.008-.16.001-.32.001-.466.17-.078.264-.054.307.092a.7.7 0 0 1 .026.172c.013.503.259.878.64 1.18.963.763 1.925 1.529 2.893 2.285a.7.7 0 0 0 .345.125c.658.05 1.318.087 1.978.125q.173.01.347 0a.475.475 0 0 0 .453-.32c.07-.185.12-.376.176-.564.06-.203.067-.206.298-.118l-.21 3.361q-.258.039-.288-.178c-.022-.16-.035-.322-.07-.48-.08-.364-.241-.531-.611-.563-.74-.063-1.48-.105-2.22-.142a.66.66 0 0 0-.322.102q-1.389.76-2.77 1.526c-.113.062-.218.133-.327.2-.426.262-.712.622-.795 1.127-.027.17-.09.292-.31.197zm52.529-33.407c-.135-.026-.272-.04-.403-.076-.84-.23-1.698-.362-2.563-.454-.08-.007-.17-.004-.238-.04-.06-.029-.133-.106-.13-.16 0-.05.087-.132.146-.14.135-.023.277-.005.416-.012.518-.023.711-.178.808-.682q.191-.973.343-1.95a.94.94 0 0 0-.058-.47c-.397-.988-.809-1.972-1.217-2.955q-.05-.112-.103-.221c-.223-.485-.558-.85-1.09-.997-.187-.052-.254-.146-.128-.343.084.01.176.01.262.034.894.257 1.816.356 2.733.483.115.016.289-.025.287.168-.004.21-.178.168-.312.175-.572.03-.697.195-.488.72.356.893.737 1.775 1.11 2.662.016.04.05.072.097.136.13-.139.247-.265.366-.39l1.585-1.66c.495-.519.444-.769-.215-1.034-.152-.061-.334-.09-.196-.364.108.011.233.008.35.039.73.193 1.465.345 2.22.39.035.002.08-.005.102.012.053.049.137.113.131.162-.005.057-.087.12-.15.153-.045.024-.113.009-.17.003-.515-.042-.92.175-1.27.528q-.908.914-1.817 1.823c-.238.24-.47.482-.712.715a.7.7 0 0 0-.21.423c-.11.697-.243 1.392-.353 2.09-.066.42.017.556.404.738q.189.088.387.151c.197.066.173.18.076.342M82.862 33.46c-.058-.094-.125-.185-.173-.286a20 20 0 0 0-1.379-2.454c-.045-.067-.095-.136-.115-.212-.016-.055 0-.16.033-.175a.3.3 0 0 1 .211.003c.047.017.075.085.112.129.06.072.117.144.18.212.36.385.574.43 1.041.174.812-.447 1.619-.905 2.426-1.359l2.303-1.296c.1-.057.199-.12.289-.19.101-.08.139-.185.083-.309-.345-.773-.805-1.437-1.644-1.744-.287-.105-.582-.158-.886-.093-.163.035-.24-.033-.27-.223.307-.155.659-.146.984-.232.323-.083.65-.153.98-.23a48 48 0 0 0 3.383 6.027l-1.49 1.228c-.214-.179-.213-.179-.083-.348.112-.146.23-.29.33-.446.25-.383.32-.805.152-1.228a10 10 0 0 0-.546-1.123c-.171-.313-.302-.34-.622-.161-.74.41-1.477.827-2.214 1.24-.85.478-1.698.952-2.544 1.434-.57.324-.64.517-.437 1.134.025.077.058.152.082.23.057.176.056.176-.187.297m3.733 11.028c-.285-.749-.6-1.496-.853-2.264-.27-.817-.314-1.664-.083-2.5.43-1.556 1.506-2.44 3.048-2.752 1.932-.393 3.744.633 4.503 2.485.294.719.379 1.477.464 2.237l.102.948q-.13.058-.253.107-.68.26-1.363.518c-.088.033-.18.066-.238-.052-.05-.105 0-.177.084-.234l.06-.036c1.365-.822 1.477-2.8.3-3.94a3.24 3.24 0 0 0-1.986-.91c-1.33-.127-2.535.197-3.508 1.159-.58.572-.951 1.256-.918 2.101.04 1.038.568 2.24 1.986 2.696.143.046.289.082.435.117.138.034.197.11.144.298-.304.008-.621.018-.94.021-.31.005-.623.001-.984.001M19.497 17.615c.536.37 1.05.723 1.559 1.072-.105.263-.108.271-.34.169-.558-.25-1.122-.248-1.692-.053-.967.33-1.7 1.323-1.74 2.346-.04 1.026.306 1.913.98 2.67.849.956 1.883 1.51 3.199 1.477 1.62-.04 2.774-1.626 2.658-2.919-.034-.376-.151-.745-.25-1.112-.04-.153-.099-.285.125-.398l.568.777.571.78c-.42.633-.822 1.255-1.24 1.865a4.6 4.6 0 0 1-1.385 1.302c-1.122.696-2.301.795-3.521.285a4 4 0 0 1-2.452-3.964c.08-1.122.58-2.067 1.373-2.85.503-.494 1.042-.952 1.587-1.447m54.979 1.865-1.358 1.35.047.074c-.073-.029-.146-.054-.217-.086l-1.516-.693c-.738-.337-1.388-.793-1.894-1.435-.968-1.225-1.116-2.572-.483-3.98.59-1.32 1.622-2.125 3.061-2.346 1.117-.172 2.143.124 3.063.755.496.34.948.743 1.42 1.118l.435.353c-.25.533-.498 1.054-.743 1.578-.043.093-.093.165-.208.12-.123-.05-.128-.137-.093-.255q.155-.506.049-1.03c-.285-1.352-1.633-2.273-2.996-2.028-1.447.26-2.389 1.159-3 2.443-.37.777-.437 1.592-.248 2.44.331 1.49 2.163 2.507 3.632 1.948.247-.093.484-.221.72-.343.136-.07.253-.114.33.017M50.968 90.485h.614c.51 0 1.02-.013 1.53.002.415.013.745-.127.998-.455q.074-.097.158-.184c.176-.182.23-.174.437.054l-.714 1.71h-4.815c-.02-.202.117-.272.21-.365.68-.679 1.381-1.34 2.04-2.04.338-.36.619-.777.897-1.189a1.5 1.5 0 0 0 .249-.958c-.033-.478-.3-.8-.77-.9-.608-.13-1.148.026-1.629.404-.135.108-.258.232-.385.35-.104.098-.208.088-.311.004-.101-.084-.091-.182-.022-.277.418-.56.856-1.107 1.506-1.412.648-.302 1.308-.277 1.946.037.856.421 1.274 1.5.725 2.392a4.7 4.7 0 0 1-.679.876c-.565.565-1.161 1.097-1.746 1.643q-.127.118-.256.233zm43.388-44.941v3.494c-.146.067-.249.054-.283-.122-.028-.147-.051-.297-.09-.442-.123-.47-.275-.596-.755-.598q-2.033-.007-4.068-.008c-.452 0-.903-.004-1.355.003-.455.008-.633.177-.648.63q-.021.592 0 1.183c.02.578.256 1.055.732 1.393.236.167.492.305.74.454.06.036.14.052.179.103.042.053.07.143.056.206-.009.041-.1.07-.16.09-.028.011-.068-.007-.102-.014l-1.838-.392v-5.962c.25-.062.259-.059.3.145.03.16.05.321.096.476.11.379.278.519.674.528.568.016 1.136.013 1.703.014q1.67.004 3.338.005c.163 0 .325-.01.488-.012.309-.003.498-.17.584-.453a5 5 0 0 0 .126-.577c.031-.171.123-.205.283-.144M9.064 32.489c.115-.203.221-.381.318-.565q.52-.98 1.033-1.966.103-.201.2-.404c.046-.093.111-.152.221-.105.106.046.122.122.083.228q-.072.196-.123.397c-.129.484-.06.676.38.915.864.47 1.736.925 2.607 1.385q1.028.545 2.058 1.087c.081.044.163.09.25.121.281.103.515.053.663-.208.263-.462.516-.933.726-1.421.17-.397.138-.823-.053-1.216-.135-.28-.305-.543-.462-.814-.035-.06-.08-.113-.12-.17-.06-.089-.065-.171.021-.247.09-.08.165-.048.244.02q.407.356.819.7c.222.184.452.357.695.547-.106.195-.2.379-.303.556a65 65 0 0 0-2.345 4.458c-.03.063-.047.142-.097.182-.05.043-.15.083-.198.061-.047-.022-.085-.128-.078-.19.015-.113.069-.22.102-.331.167-.577.079-.796-.448-1.076-.95-.507-1.903-1.007-2.856-1.511l-1.504-.796q-.107-.058-.216-.113c-.482-.233-.676-.194-1.03.214q-.123.146-.234.301c-.119.163-.223.117-.353-.04m39.218 52.789c-.046.16-.073.305-.127.439q-1.566 3.92-3.137 7.836c-.142.356-.28.711-.428 1.063a.48.48 0 0 1-.618.29c-.128-.044-.2-.122-.146-.264.041-.107.089-.214.134-.32l3.15-7.342c.05-.116.093-.233.15-.38-.113-.01-.199-.025-.286-.025-.869-.001-1.738.004-2.607-.003-.528-.005-.908.22-1.156.683-.138.253-.156.255-.443.129l.51-2.106zm-10.644-.004h3.799c.067.265.057.297-.154.346-.19.044-.386.073-.578.112-.257.051-.405.22-.457.466a2.6 2.6 0 0 0-.06.515c-.006 1.146-.003 2.294-.003 3.44v.105c.024.678.195.87.872.976.091.014.185.016.275.034q.18.038.162.226c-.012.115-.08.159-.188.156-.128-.003-.256.001-.382-.008a16.5 16.5 0 0 0-2.776-.001c-.17.014-.34.002-.504.002-.068-.318-.053-.348.185-.39.158-.027.321-.044.478-.081.35-.084.509-.262.552-.624q.032-.277.03-.554.005-1.547.002-3.093-.001-.243-.026-.485c-.044-.453-.206-.635-.652-.726-.136-.029-.276-.04-.411-.068-.223-.046-.223-.05-.164-.348m36.6-2.16a1.77 1.77 0 0 1-1.768-1.768c.012-.958.8-1.737 1.762-1.739.973-.002 1.778.803 1.767 1.768a1.766 1.766 0 0 1-1.76 1.74m-47.195-1.91c.009.98-.774 1.77-1.754 1.77a1.75 1.75 0 0 1-1.752-1.738 1.747 1.747 0 0 1 1.755-1.769c.966 0 1.742.771 1.751 1.737" class="st3"/></svg>