<svg xmlns="http://www.w3.org/2000/svg" width="222.1" height="216.26" viewBox="0 0 222.1 216.26"><defs><clipPath id="clip-path"><path d="M55.37 151.82v2.9c5.57-1.94 10-4.89 11.87-8.76-2.64 2.56-6.88 4.55-11.87 5.86m-43.89-9.18c.29 14.65 27.23 17.88 43.89 12.08v-2.9c-15.07 3.94-37.12 1.77-43.89-9.18m43.89-21a42.6 42.6 0 0 0-11.88 1.65 50.2 50.2 0 0 1 11.88.24c33.17 4.79 39.56 43.88 104.84 24.91 28.23-8.21 40.91-10.29 54.5-5.38-11.15-6-26.27-9.61-54.5-1.4-59.2 17.2-66.47-10.5-87.66-17.34a55.9 55.9 0 0 0-16.92-2.68z" style="fill:none"/></clipPath><style>.cls-2{fill:#fff}</style></defs><g id="Layer_2" data-name="Layer 2"><g id="Layer_1-2" data-name="Layer 1"><path d="M91.67 103.9C100.58 93.84 117.24 74.25 126 59c4.62-8 8.83-16.06 12.44-23.36a90 90 0 0 0-7.88-17.77s-7.48 19.77-24.51 45.25C96.15 78 82.25 92.6 75.7 99.19a68 68 0 0 1 7.63 1.57 48.7 48.7 0 0 1 8.34 3.14" class="cls-2"/><path d="M154.61 8.46s-5 12.43-13 28.53c-3.61 7.3-7.81 15.36-12.43 23.36-8.78 15.21-25.44 34.8-34.35 44.86a150 150 0 0 1 13.81 7.94c5-6.38 25.44-32.73 37.68-52.84l.3-.48a296 296 0 0 0 16.71-32.34 109 109 0 0 0-8.72-19.03" class="cls-2"/><path d="M196.62 59.06C194.32 26.64 177.82 0 177.82 0s-4.12 12.65-11.53 29.27a296 296 0 0 1-16.71 32.34c-.09.16-.19.32-.29.48-12.29 20.11-32.68 46.46-37.68 52.84l2.09 1.28c7.09 4.31 14.65 8.38 24.16 10.1 8.88 1.61 19.47 1.17 33-3 8.56-2.67 16.57-5.15 23.79-7a276 276 0 0 0 1.97-57.25m-11.87 8.66.18 2.1c-5.51.54-7.7.38-9.1.18a26 26 0 0 1-8.47-2.68 50.7 50.7 0 0 1-7.16-5l1.4-1.64c1.14.91 2.62 1.92 2.62 1.92 5.33-7.47 5.67-17.35 5.67-17.35a38.2 38.2 0 0 1 16.55 5s-5.34 8.49-4.87 17.6a31 31 0 0 0 3.18-.13" class="cls-2"/><path d="M58.57 103.54c-22.75 0-46.51 7.24-45.77 23.27 1.3 28.38 67.37 23.56 60.29 2.93-.71 10-34.79 13-37.51-2.52-2.06-11.74 23.78-15.88 41-10.31 21.18 6.84 28.45 34.54 87.65 17.33 28.24-8.2 46.72-15.17 57.87-9.14-7-10.75-29.48-4.58-58 3.41-44.63 12.54-56.71-14.44-80.8-21.71a88.4 88.4 0 0 0-24.8-3.26" class="cls-2"/><path d="M55.37 151.82v2.9c5.57-1.94 10-4.89 11.87-8.76-2.64 2.56-6.88 4.55-11.87 5.86m-43.89-9.18c.29 14.65 27.23 17.88 43.89 12.08v-2.9c-15.07 3.94-37.12 1.77-43.89-9.18m43.89-21a42.6 42.6 0 0 0-11.88 1.65 50.2 50.2 0 0 1 11.88.24c33.17 4.79 39.56 43.88 104.84 24.91 28.23-8.21 40.91-10.29 54.5-5.38-11.15-6-26.27-9.61-54.5-1.4-59.2 17.2-66.47-10.5-87.66-17.34a55.9 55.9 0 0 0-16.92-2.68z" class="cls-2"/><path d="M11.48 121.66h203.23v45.77H11.48z" class="cls-2" style="clip-path:url(#clip-path)"/><path d="M6.2 63.59H0l7.3-32.26h6.2Zm18.58 0h-6.19l6.1-27h-9.46l1.2-5.29h25.12l-1.2 5.29h-9.46Zm36.35-21.46.39-1.77c.85-3.74-.55-4-6-4-6.24 0-7.55 1-9 7.36L45 50.86c-1.42 6.45-.93 7.69 5.57 7.69 5 0 7.26-.17 8.3-4.77l.4-1.76h6.19l-.46 2.1c-2.07 9.72-7.54 9.38-15.62 9.72-11.45.43-12.63-3.31-10.62-12.73l1.67-7.39c2.34-10.33 6.86-12.65 16.37-12.65 8 0 12.63.05 11 9.29l-.4 1.77Zm12.78 15.35-3.4 6.11H64.1l18-32.26h9.12l3.62 32.26h-6.27l-.73-6.11Zm11.86-21.42h-.09l-9.29 16.73h11.14ZM.64 170.88h1.75V189H.64Zm4.97 5.36h1.6v1.65C8 176.51 8.89 176 10.74 176c3 0 3.75 1.47 3.75 4v9h-1.6v-8.63c0-1.48-.32-2.88-2.42-2.88s-3.31.75-3.31 3.45v8H5.61Zm12.01 1.45h-1.33v-1.45h1.33v-3h1.6v3h4.13v1.45h-4.13v8.53c0 1.05.33 1.53 1.38 1.53s1.72-.23 1.72-3.06h1.45c0 4.08-1.3 4.51-3.15 4.51-2.35 0-3-.73-3-2.63ZM27 183v1.18c0 2.77.48 3.58 2.68 3.58 2.57 0 3.12 0 3.12-2.56h1.6v.48c0 2.55-.62 3.53-4.45 3.53-4.2 0-4.7-1.41-4.7-6.58S26.15 176 30 176s4.45 1.55 4.45 5v2Zm5.8-1.6c0-2.7-.05-3.9-2.9-3.9s-2.9 1.2-2.9 3.9Zm4.31-5.16h1.6v1.55a2.78 2.78 0 0 1 3-1.75c2 0 2.95.87 2.95 3.42v1h-1.45c0-2.35-.25-3-2.08-3-1.6 0-2.42.87-2.42 2.63V189h-1.6Zm9.25 0H48v1.65c.8-1.38 1.68-1.85 3.53-1.85 3 0 3.75 1.47 3.75 4v9h-1.6v-8.63c0-1.48-.32-2.88-2.43-2.88S48 178.28 48 181v8h-1.6Zm19.06 11.66c-.92 1-1.85 1.3-3.73 1.3-3.25 0-4-1.55-4-4s.57-4 4-4c2.43 0 3 .28 3.53 1.15V180c0-1.88-.17-2.53-2.83-2.53s-2.67.65-2.67 2.28h-1.6v-.68c0-1.55.37-3 4.35-3 3.55 0 4.35 1.15 4.35 3.63v9.3h-1.4Zm-3-.3c2.13 0 3-.53 3-2.48s-.92-2.48-3-2.48-3 .53-3 2.48.82 2.48 2.95 2.48Zm7.58-9.91h-1.38v-1.45H70v-3h1.6v3h4.13v1.45h-4.18v8.53c0 1.05.32 1.53 1.38 1.53s1.72-.23 1.72-3.06h1.45c0 4.08-1.3 4.51-3.15 4.51-2.35 0-3-.73-3-2.63Zm8.28-6.81h1.6V173h-1.6Zm0 5.36h1.6V189h-1.6Zm9.15-.24c4.21 0 4.71 1.5 4.71 6.58 0 5.28-.55 6.58-4.71 6.58s-4.7-1.3-4.7-6.58c0-5.04.5-6.58 4.7-6.58m0 11.71c2.56 0 3-.38 3-5.13s-.4-5.13-3-5.13-3 .37-3 5.13.45 5.17 3 5.17Zm7.13-11.47h1.6v1.65c.8-1.38 1.68-1.85 3.53-1.85 3 0 3.75 1.47 3.75 4v9h-1.6v-8.63c0-1.48-.32-2.88-2.42-2.88s-3.31.75-3.31 3.45v8h-1.6Zm19.06 11.66c-.92 1-1.85 1.3-3.72 1.3-3.26 0-4-1.55-4-4s.57-4 4-4c2.42 0 3 .28 3.52 1.15V180c0-1.88-.17-2.53-2.82-2.53s-2.68.65-2.68 2.28h-1.6v-.68c0-1.55.37-3 4.35-3 3.56 0 4.36 1.15 4.36 3.63v9.3h-1.46Zm-3-.3c2.13 0 3-.53 3-2.48s-.92-2.48-3-2.48-3 .53-3 2.48.83 2.48 2.95 2.48Zm7.53-16.72h1.6V189h-1.6Zm15.44 1.76h-5v-1.76h11.66v1.76h-4.95V189h-1.75Zm12.68 3.36c4.2 0 4.7 1.5 4.7 6.58 0 5.28-.55 6.58-4.7 6.58s-4.7-1.3-4.7-6.58c0-5.04.5-6.58 4.7-6.58m0 11.71c2.55 0 3-.38 3-5.13s-.4-5.13-3-5.13-3 .37-3 5.13.4 5.17 3 5.17Zm7.28-11.47h1.6v1.6a3.55 3.55 0 0 1 3.52-1.8c3.31 0 4.28 1.57 4.28 6.58s-1 6.58-4.53 6.58c-1.8 0-2.67-.53-3.27-1.8v6h-1.6Zm4.65 1.4c-2.3 0-3 1.1-3 4.23 0 4.77.37 5.73 3 5.73 2.5 0 3.05-.58 3.05-5s-.55-5-3.05-5Zm7.38-1.4h1.6v1.6a3.57 3.57 0 0 1 3.53-1.8c3.3 0 4.27 1.57 4.27 6.58s-1 6.58-4.52 6.58c-1.81 0-2.68-.53-3.28-1.8v6h-1.6Zm4.65 1.4c-2.3 0-3 1.1-3 4.23 0 4.77.37 5.73 3 5.73 2.5 0 3.05-.58 3.05-5s-.55-4.96-3.05-4.96M179 183v1.18c0 2.77.48 3.58 2.68 3.58 2.58 0 3.13 0 3.13-2.56h1.6v.48c0 2.55-.63 3.53-4.45 3.53-4.21 0-4.71-1.41-4.71-6.58s.85-6.58 4.71-6.58 4.45 1.55 4.45 5V183Zm5.81-1.6c0-2.7 0-3.9-2.9-3.9s-2.91 1.2-2.91 3.9Zm4.19-5.16h1.6v1.55a2.79 2.79 0 0 1 3-1.75c2 0 3 .87 3 3.42v1h-1.46c0-2.35-.25-3-2.07-3-1.6 0-2.43.87-2.43 2.63V189H189ZM12 211.36c0 3.93-1.23 4.85-5.61 4.85-4.77 0-6.4-.9-6.4-6.2v-6.11c0-5.3 1.63-6.2 6.4-6.2 4 0 5.61.53 5.61 4.73v1.3h-1.6v-1.18c0-2.82-.93-3.1-4-3.1-4.12 0-4.65.55-4.65 4.55v5.91c0 4 .53 4.55 4.65 4.55 3.66 0 4-.8 4-3.28V210H12Zm2.84-13.46h1.6V216h-1.6ZM27 214.91c-.92 1-1.85 1.3-3.73 1.3-3.25 0-4-1.55-4-4s.57-4 4-4c2.43 0 3 .27 3.53 1.15h.05V207c0-1.88-.17-2.53-2.83-2.53s-2.67.65-2.67 2.28h-1.6v-.68c0-1.55.37-3 4.35-3 3.55 0 4.35 1.15 4.35 3.63v9.3H27Zm-3-.3c2.13 0 3-.52 3-2.48s-.92-2.47-3-2.47-3.05.52-3.05 2.47.86 2.48 3 2.48Zm8.68-2.55c0 2.2.35 2.7 2.72 2.7 2.58 0 3.06-.37 3.06-2.53 0-1.67-.18-1.8-3.2-2-3.21-.18-4.08-.65-4.08-3.48 0-2.68.5-3.73 4.3-3.73s4.45.85 4.45 3.53h-1.6c0-2-.52-2.08-2.93-2.08-2.22 0-2.62.23-2.62 2.21 0 1.8.22 1.95 2.93 2.1 3.77.22 4.35.52 4.35 3.32 0 3-.58 4.08-4.7 4.08-2.93 0-4.28-.35-4.28-4.15Zm11.58 0c0 2.2.35 2.7 2.73 2.7 2.57 0 3-.37 3-2.53 0-1.67-.18-1.8-3.2-2-3.21-.18-4.08-.65-4.08-3.48 0-2.68.5-3.73 4.3-3.73s4.45.85 4.45 3.53h-1.6c0-2-.52-2.08-2.92-2.08-2.23 0-2.63.23-2.63 2.21 0 1.8.22 1.95 2.93 2.1 3.77.22 4.35.52 4.35 3.32 0 3-.58 4.08-4.7 4.08-2.93 0-4.28-.35-4.28-4.15Zm26.74.12h-7.83L62 216h-1.83l5.68-18.11h2.45L74 216h-1.85Zm-3.78-12.53H67l-3.23 10.78h6.7Zm9.93 12.41c0 2.2.35 2.7 2.73 2.7 2.58 0 3-.37 3-2.53 0-1.67-.17-1.8-3.2-2-3.2-.18-4.08-.65-4.08-3.48 0-2.68.5-3.73 4.3-3.73s4.46.85 4.46 3.53h-1.55c0-2-.53-2.08-2.93-2.08-2.23 0-2.63.23-2.63 2.21 0 1.8.23 1.95 2.93 2.1 3.78.22 4.35.52 4.35 3.32 0 3-.57 4.08-4.7 4.08-2.93 0-4.28-.35-4.28-4.15Zm11.58 0c0 2.2.35 2.7 2.73 2.7 2.58 0 3-.37 3-2.53 0-1.67-.17-1.8-3.2-2-3.2-.18-4.08-.65-4.08-3.48 0-2.68.5-3.73 4.31-3.73s4.45.85 4.45 3.53h-1.6c0-2-.53-2.08-2.93-2.08-2.23 0-2.63.23-2.63 2.21 0 1.8.23 1.95 2.93 2.1 3.78.22 4.35.52 4.35 3.32 0 3-.57 4.08-4.7 4.08-2.93 0-4.28-.35-4.28-4.15Zm14.49-9.01c4.2 0 4.7 1.5 4.7 6.58 0 5.28-.55 6.58-4.7 6.58s-4.7-1.3-4.7-6.58c0-5.08.48-6.58 4.7-6.58m0 11.71c2.55 0 3-.37 3-5.13s-.4-5.13-3-5.13-3 .38-3 5.13.4 5.13 3 5.13m14.18-7.25c0-2.33-.45-3-2.58-3-2.55 0-3 .38-3 5.13s.4 5.13 3 5.13c2.31 0 2.81-.62 2.81-3.38h1.6v.83c0 3.3-1.55 4-4.41 4-4.2 0-4.7-1.4-4.7-6.58s.85-6.58 4.7-6.58c3.46 0 4.18 1.08 4.18 4.46Zm4.48-9.61h1.6v2.1h-1.6Zm0 5.35h1.6V216h-1.6ZM134 214.91c-.93 1-1.86 1.3-3.73 1.3-3.25 0-4-1.55-4-4s.58-4 4-4c2.42 0 2.95.27 3.53 1.15V207c0-1.88-.18-2.53-2.83-2.53s-2.68.65-2.68 2.28h-1.6v-.68c0-1.55.38-3 4.35-3 3.56 0 4.36 1.15 4.36 3.63v9.3H134Zm-3.06-.3c2.13 0 3.06-.52 3.06-2.48s-.93-2.47-3.06-2.47-3 .52-3 2.47.91 2.48 3.06 2.48Zm7.62-9.91h-1.32v-1.45h1.32v-2.95h1.6v2.95h4.13v1.45h-4.13v8.53c0 1.05.33 1.53 1.38 1.53s1.73-.22 1.73-3h1.45c0 4.08-1.3 4.5-3.15 4.5-2.36 0-3-.72-3-2.63Zm8.33-6.8h1.6v2.1h-1.6Zm0 5.35h1.6V216h-1.6Zm9.11-.2c4.2 0 4.7 1.5 4.7 6.58 0 5.28-.55 6.58-4.7 6.58s-4.71-1.3-4.71-6.58c.05-5.08.55-6.58 4.71-6.58m0 11.71c2.55 0 3-.37 3-5.13s-.4-5.13-3-5.13-2.95.38-2.95 5.13.44 5.13 2.95 5.13m7.18-11.51h1.6v1.65c.8-1.37 1.67-1.85 3.52-1.85 3 0 3.76 1.48 3.76 4v9h-1.6v-8.63c0-1.47-.33-2.88-2.43-2.88-1.95 0-3.3.75-3.3 3.46v8h-1.6Z" class="cls-2"/></g></g></svg>