<svg xmlns="http://www.w3.org/2000/svg" id="svg2" width="200" height="150"><g id="layer1" transform="translate(0 -902.362)"><g id="1" transform="translate(5.116 915.453)"><path id="2" d="m184.664 88.688 2.75-7.875-9.374.125-1.75.187-1.562.375-1.5.5-1.312.688-1.312.75-1.063.937-1.062 1.063-.813 1.187v28.313h8.124V92.813l.75-1.188.688-.937.812-.688.875-.5.937-.25z" style="fill:#000;fill-opacity:1;fill-rule:evenodd;stroke:none"/><path id="3" d="m144.544 104.375-.562-.875-.438-.812-.375-.938-.187-.875h20.56l.125-1.437.062-1.375-.062-1.75-.188-1.625-.312-1.313-.313-1.187L162.48 91l-.438-1.062-.562-1.125-.625-1-.688-1-.75-.938-1.124-1.25-1.125-1-1.25-.875-1.187-.687-1.313-.563-.687-.25-.625-.125-.75-.187-.687-.063-1.438-.062-1.562.062-1.437.25-1.375.375-1.25.563-1.312.687-1.188.875-1.125 1-1.062 1.25-1.062 1.25-.813 1.375-.75 1.375-.562 1.563-.5 1.5-.313 1.625-.187 1.687-.062 1.813.062 1.687.187 1.688.313 1.625.187.75.313.812.562 1.438.313.687.437.75.813 1.375 1.062 1.375 1.062 1.125 1.125 1.063 1.188.812 1.312.75 1.25.5 1.375.438 1.437.25 1.562.125.125-.063h.563l.75-.062.687-.125.75-.125.625-.25.312-.125.375-.063.625-.25.688-.25.562-.375.625-.375 1.25-.812 1.125-1.063 1.124-1.125.688-.875.625-.875-6.5-4.687-.374.562-.313.25-.25.313-.5.5-.625.437-.5.375-.625.25-.562.25-1.25.25-1.375-.25-1.187-.5-.625-.375-.562-.437-.5-.5zm9.312-12.687.437.687.375.75.625 1.563h-12.186l.562-1.563.875-1.437.938-1.188 1.187-.75 1.187-.5 1.375-.125 1.25.125.562.188.625.312 1.125.75.5.5z" style="fill:#000;fill-opacity:1;fill-rule:evenodd;stroke:none"/><path id="4" d="m114.173 80.813-1.562.125-2 .062-1.812.313-1.688.437-1.562.688-1.437.812-1.312 1-1.188 1.125-.562.625-.438.75V126h8.187v-13.375l.312.688.563.625.687.437.812.438.938.187.5.063.625.125h.562l.688.062 1.437-.062 1.125-.25.25-.125.125-.063h.187l.625-.125 1.125-.437 1.125-.563 1-.687 1-.813.437-.5.5-.437 1-.938.937-1.375.875-1.375.313-.75.375-.687.312-.75.375-.688v-.375l.062-.062.125-.375.25-.75.313-1.625.062-.875.125-.813.063-.875v-.437l.062-.375-.125-1.813-.187-1.687-.313-1.625-.437-1.5-.687-1.563-.688-1.375-.875-1.375-.937-1.25-1.125-1.25-1.125-1-1.25-.875-1.187-.687-1.375-.563-.687-.25-.625-.125-.75-.187-.688-.063zm0 8.312h.625l.687.125.563.188.625.312 1.125.75.5.5.562.688.75 1.312.625 1.563.375 1.687.125 1.813-.063.375v.437l-.062.875-.125.375h-.063v.438l-.187.875-.313.75-.312.75-.375.687-.375.75-.312.25-.25.313-.5.5-.625.437-.5.375-.625.25-.563.25-.687.125-.625.125-1.375-.25-1.187-.5-.625-.375-.5-.437-.5-.5-.437-.563-.75-1.25V92.938l.312-.688.438-.562.937-1.188 1.125-.75 1.187-.5z" style="fill:#000;fill-opacity:1;fill-rule:evenodd;stroke:none"/><path id="5" d="m80.615 80.813-1.562.125-2 .062-1.812.313-1.688.437-1.562.688-1.437.812-1.313 1-1.187 1.125-.563.625-.437.75V126h8.187v-13.375l.312.688.562.625.688.437.812.438.938.187.5.063.624.125h.563l.687.062 1.438-.062 1.124-.25.25-.125.125-.063h.188l.625-.125 1.125-.437 1.125-.563 1-.687 1-.813.437-.5.5-.437 1-.938.937-1.375.875-1.375.312-.75.375-.687.313-.75.375-.688v-.375l.062-.062.125-.375.25-.75.313-1.625.062-.875.125-.813.063-.875v-.437l.062-.375-.125-1.813-.187-1.687-.313-1.625-.437-1.5-.688-1.563-.687-1.375-.875-1.375-.937-1.25-1.125-1.25-1.125-1-1.25-.875-1.187-.687-1.375-.563-.688-.25-.625-.125-.75-.187-.687-.063zM75.24 92.938l.312-.688.437-.562.938-1.188 1.125-.75 1.187-.5 1.375-.125h.625l.687.125.563.188.625.312.5.313.562.437.5.5.562.688.813 1.312.625 1.563.375 1.687.125 1.813-.063.375v.437l-.062.875-.125.375h-.063v.438l-.187.875-.313.75-.312.75-.25.312-.188.375-.375.75-.312.25-.25.313-.5.5h-.188v.062l-.125.125-.25.25-.5.375-.624.25-.563.25-.687.125-.625.125-1.375-.25-1.187-.5-.625-.375-.5-.437-.5-.5-.438-.563-.75-1.25z" style="fill:#000;fill-opacity:1;fill-rule:evenodd;stroke:none"/><path id="6" d="M34.683 80.875v-8.187H0v8.187h13.248v34.438h8.124V80.875z" style="fill:#000;fill-opacity:1;fill-rule:evenodd;stroke:none"/><path id="7" d="m36.183 85.875-1.062 1.25-.813 1.375-.75 1.375-.562 1.563-.5 1.5-.313 1.625-.187 1.687-.063 1.813.063 1.687.187 1.688.313 1.625.187.75.313.812.562 1.438.313.687.437.75.813 1.375 1.062 1.375 1.062 1.125 1.125 1.063 1.188.812 1.312.75 1.25.5 1.375.438 1.437.25 1.5.125.125-.063h.562l.75-.062.687-.125.75-.125.625-.25.313-.125.375-.063 1.374-.5.563-.375.625-.375 1.25-.812 1.125-1.063 1.124-1.125.938-1.375.875-1.375.312-.75.375-.687.313-.75.374-.688v-.375l.063-.062.125-.375.25-.75.312-1.625.063-.875.125-.813.062-.875v-.437l.063-.375-.125-1.813-.188-1.687-.312-1.625-.438-1.5-.687-1.563-.687-1.375-.875-1.375-.938-1.25-1.125-1.25-1.124-1-1.25-.875-1.188-.687-1.374-.563-.688-.25-.625-.125-.75-.187-.687-.063-1.437-.062-1.5.062-1.437.25-1.375.375-1.25.563-1.312.687-1.188.875-1.125 1zm5.624 18.5-.5-.75-.375-.687-.375-.75-.25-.75-.25-.875-.125-.813-.062-1.687.062-1.813.375-1.687.625-1.563.875-1.312.938-1.188 1.124-.75 1.188-.5 1.375-.125h.625l.687.125.562.188.625.312 1.125.75.5.5.563.688.75 1.312.624 1.563.375 1.687.125 1.813-.062.375v.437l-.063.875-.125.375h-.062v.438l-.188.875-.312.75-.313.75-.374.687-.375.75-.313.25-.25.313-.5.5-.625.437-.5.375-.625.25-.562.25-.687.125-.625.125-1.375-.25-1.188-.5-.624-.375-.5-.437-.5-.5z" style="fill:#000;fill-opacity:1;fill-rule:evenodd;stroke:none"/><path id="8" d="m140.795.25-.063.313.063.875.062 1-.187.875-.125.437-.063.5-.437.875-.5.875-.375.375-.125.063-.063.125-.125.25-.687.875-.937.75-.563.375-.5.437-1.187.75-1.187.75-1.438.625-1.562.75-1.687.625-1.75.75-1.062.25-1 .313-2.125.625-1.187.25-1.125.312-2.312.625-2.563.5-1.312.25-.687.125-.625.188-2.812.5-2.875.5-3.125.375-3.187.5-3.312.375-1.75.187-1.687.25-1.875.125h-.5l-.437.063-.875.125-3.687.375-1.937.125-1 .062-.938.125-3.937.375h-.25l-.124.188-.125.062v.25l.125.313.374.125h43.308l6.874-.125 6.749.062 6.561.063 6.375.312 6.124.313 5.937.437 5.749.5 5.624.688 1.75.25 1.5.375 1.25.375 1.125.375.812.375.625.375.375.375.187.437-.25.375-.375.438-.625.437-.812.5-1.125.5-1.312.5-1.5.563-1.75.625-.937.125-.5.062-.438.125-1.937.375-1.062.125h-.313l-.25.063-.5.125-1.124.125-1.125.187-1.25.063-1.25.125-2.625.25h-1.124l-.313.062-1.375.125-2.937.25h-2.437l-.75.063-3.312.125h-6.249l-.875.062-1-.062h-6.875l-2.124-.063h-2.062l-2.125-.062h-2.125l-70.74-.875-.313.125-.125.125v.375l.125.187.062.063.25.062 5.562.375 5.374.5 5.125.5 4.937.563 4.687.562 4.499.625 4.312.625 4.124.75 3.812.688 3.625.75 3.437.75 3.25.875 2.937.812 2.75.938 2.562.937 2.374 1 2 .938 1.875 1 1.625 1 1.437 1.125 1.187 1.062 1 1.188.813 1.187.625 1.25.312 1.188.125 1.25-.063 1.312-.25 1.375-.5 1.375-.687 1.438-.937 1.437-1.063 1.5-.062.25.125.375.25.125.125-.062h.187l5.937-3.313 6.124-3.187 6.312-3.188 6.562-3 6.624-3.062 6.874-2.875 7.062-2.875 7.249-2.75.062-.063 2.25-1.5 1-.75 1-.687.875-.75.812-.75 1.5-1.375.562-.75.5-.75.875-1.375.312-.75.25-.75.188-.75.125-.625v-.75l-.063-.75-.25-1.5-.25-.75-.312-.75-.375-.75-.437-.625-.563-.75-.625-.75-1.375-1.375-1.75-1.5-.937-.75-1-.625-1.312-.875-1.437-.75-1.563-.75-1.687-.688-1.875-.75-1.937-.625-2.062-.625-2.187-.562-1.188-.375-1.187-.375-1.25-.5-1.25-.438-1.375-.625-1.374-.562-.75-.375-.375-.188-.313-.125-1.437-.625-.437-.25-.375-.187-.75-.375-.438-.25-.375-.188-.75-.375-1.624-.875-1.625-.875-1.75-1-1.75-1-1.812-1.125-1.75-1.062-.25-.063-.125.063z" style="fill:#000;fill-opacity:1;fill-rule:evenodd;stroke:none"/></g></g></svg>