<?xml version="1.0" encoding="UTF-8" standalone="no"?>
<!-- Created with Inkscape (http://www.inkscape.org/) -->
<svg
   xmlns:svg="http://www.w3.org/2000/svg"
   xmlns="http://www.w3.org/2000/svg"
   version="1.0"
   width="53.799999"
   height="59.099998"
   id="svg2225">
  <defs
     id="defs2228" />
  <path
     d="M 20.560819,57.422669 C 19.020752,56.436218 15.583362,55.371249 12.922176,55.056071 C 5.4431367,54.170289 0.42662769,51.432009 0.035986691,48.022094 C -0.14273831,46.461992 0.36193669,44.43784 1.1574877,43.523979 C 4.7111207,39.44187 6.9249837,31.641055 8.3736157,18.097083 C 9.1815677,10.543148 11.637924,6.3624134 15.268224,6.3624134 C 16.521024,6.3624134 18.723001,5.0238618 20.203358,3.3624145 C 23.987343,-0.88446222 29.734541,-0.88446222 33.518525,3.3624145 C 34.998885,5.0238618 37.200865,6.3624134 38.453665,6.3624134 C 42.083965,6.3624134 44.540315,10.543148 45.348265,18.097083 C 46.796905,31.641055 49.010765,39.44187 52.564395,43.523979 C 53.359945,44.43784 53.864625,46.461992 53.685895,48.022094 C 53.299125,51.39821 48.469015,54.072857 41.077205,55.004076 C 38.483265,55.330862 34.872725,56.445172 33.053785,57.480322 C 28.967937,59.805559 24.247025,59.783773 20.560819,57.422669 z "
     style="fill:#000000"
     id="path2234" />
</svg>
