<svg xmlns="http://www.w3.org/2000/svg" viewBox="0 0 1122 368">
  <path fill="#e2261d" d="m245.91 34.5 74.23.01c-21.91 56.99-43.84 113.98-65.76 170.97 27.57.03 55.14.01 82.71.01 22.04-56.99 43.82-114.08 65.99-171.02l74.15.03c-21.92 57.01-43.86 114.01-65.81 171 41.15.01 82.3-.04 123.45.02 4.18-21.58 11.08-42.61 20.03-62.67 13.51-29.91 32.94-57.88 59.56-77.51 17.73-13.05 38.5-21.62 59.97-26.15 16.91-3.65 34.27-4.88 51.54-4.69 24.95-.01 49.9.01 74.86-.02-8.78 19.39-17.73 38.7-26.65 58.02-21.72 0-43.44.01-65.17 0-14.47.15-29.39 2.76-41.75 10.68-14.13 8.74-24.08 22.54-32.65 36.46-12.25 20.32-20.93 42.7-26.04 65.85 62.24.02 124.49-.01 186.74.02 9.56-20.54 19.06-41.1 28.59-61.65 6.58-13.79 12.51-27.89 19.58-41.45 10.75-20.13 25.11-39.02 44.54-51.46 17.14-11.15 37.66-16.2 57.97-16.46 18 .01 35.99.01 53.98 0 4.05.09 8.41.12 11.88 2.49 4.76 2.85 7.3 8.53 6.69 13.99-1.11 35.99-3.17 71.94-4.92 107.9-1.09 19.47-1.87 38.96-3.19 58.4-330.29-.05-660.58-.01-990.87-.01 1.53-3.95 3.21-7.84 4.8-11.76 52.32-.01 104.63 0 156.94-.01 21.56-56.98 43.05-114 64.61-170.99m689.85 59.27c-10.6 3.91-18.22 13.22-22.93 23.19-13.59 29.53-27.39 58.98-40.9 88.55 23.33-.02 46.66-.04 69.99.01 2.48-37.66 4.85-75.33 7.12-113.01-4.44.03-9.05-.44-13.28 1.26"/>
  <path d="m174.82 228.25 74.27-.04-40.3 107.29-74.26-.01zm157.01 0c24.76-.01 49.52.03 74.29-.02-4.23 11.94-9.06 23.66-13.2 35.64-.84 3.13-2.22 6.61-.74 9.77 2.02 3.33 6.33 3.63 9.83 3.85 36.44.02 72.88-.01 109.32.01-7.24 19.35-14.49 38.7-21.83 58.01-45.51-.01-91.03 0-136.54-.01-11.94.16-24.52.22-35.46-5.23-6.08-2.89-10.89-8.52-12.21-15.18-1.57-8.03.19-16.27 2.88-23.87 7.85-21 15.79-41.97 23.66-62.97m202.73-.01c24.4.04 48.8-.01 73.19.03-.66 9.99-.42 20.63 4.34 29.69 3.98 7.64 11.54 12.8 19.53 15.54 8.76 3.09 18.13 4.16 27.38 4 18.79 0 37.59-.02 56.38.01-7.96 19.35-16.04 38.65-24.06 57.98-15.1.04-30.2 0-45.3.01-17.56.16-35.34-.49-52.42-4.91-20.82-5.54-39.1-20.05-49.02-39.2-10.22-19.26-11.94-41.78-10.02-63.15m254.16.03 221.55-.01-3.78 107.24-69.94.01 3.99-65-93.95-.01-28.75 65.02-76.49-.05zM1032 304.75l26.25.01v5.49l-9.76.01.01 27.24h-6.75v-27.25H1032Zm30 0h10.03l6.11 22.44 5.94-22.45 10.16.01.01 32.74-6.24.02-.28-26.15-6.55 26.13-6.12.03-6.83-26.16.02 26.13-6.24.02z" fill="#949b90"/>
</svg>
