<?xml version="1.0" encoding="UTF-8"?> <!-- Generator: Adobe Illustrator 25.0.1, SVG Export Plug-In . SVG Version: 6.00 Build 0) --> <svg xmlns="http://www.w3.org/2000/svg" xmlns:xlink="http://www.w3.org/1999/xlink" version="1.1" id="Layer_1" x="0px" y="0px" width="302.3px" height="55.3px" viewBox="0 0 302.3 55.3" style="enable-background:new 0 0 302.3 55.3;" xml:space="preserve"> <style type="text/css"> .st0{fill:#000182;} .st1{fill:#D6B154;} </style> <path class="st0" d="M47.8,8.8C41.8,8,39,9.3,35,9.4c-3.9,0-9.3-2.5-14.5-3.6c-6.8-1.4-13-0.7-14.9-0.5C5.3,4.9,4.8,4.2,4.2,3.5 C3.5,2.7,2.7,1.8,2,1.2L1.5,1.7h0C2.2,2.3,3,3.1,3.6,3.9c0.7,0.8,1.2,1.5,1.4,1.9c0.3,0.4,0.5,0.9,0.8,1.5c2,4.6,7,17.1,8.5,31.5 c0,0.3,0.1,0.6,0.1,0.9c0.5,6.2,0.6,11.2,0.7,14.7l0.7,0c0-3.1-0.2-7.5-0.5-12.8c2.5-0.6,11.4-3.3,19.1-10.9 c4.1-4.1,8.1-4.3,13.2-9.3c6.1-6.1,12-5.6,15.3-5.4C62.8,16,61.5,10.6,47.8,8.8z"></path> <path class="st1" d="M2.6,1.5C3,1.3,3.3,1,3.2,0.7C3,0.2,2.2-0.1,1.3,0C0.5,0.1-0.1,0.6,0,1.1c0.1,0.3,0.5,0.6,1.1,0.6L1,1.8 l11.9,53.5l1.6-0.4L2.6,1.5z"></path> <path class="st1" d="M32.1,28.1L32,25.2l-0.6,0.2L27,12.4l1.1,0l-0.6-1.5l-1.7,0l0.1,0.4l0.2,0.6L13,11.7l-0.4-1.2l-1.8-0.1l0.1,0.4 l0.5,1.4l1.2,0l6.1,16.9l-0.5,0.2l2,3.2l-0.4-3.7L19.3,29l-1.2-3.2l2-0.5l1.1,3.1l-0.5,0.2l1.9,3.1l-0.4-3.6l-0.5,0.2l-1.1-3l2-0.5 l1,2.9l-0.5,0.2l1.9,2.9l-0.3-3.4l-0.5,0.2l-1-2.9l2-0.5l1,2.7l-0.5,0.2l1.8,2.8l-0.2-3.2l-0.5,0.2l-0.9-2.7l2-0.5l0.9,2.6l-0.5,0.2 l1.8,2.6l-0.2-3.1L29,26l-0.9-2.6l2-0.5l0.8,2.4l-0.5,0.2L32.1,28.1z M13.2,12.3l2.2,0l1,2.7l-2.1,0.1L13.2,12.3L13.2,12.3 L13.2,12.3z M26.4,12.4l0.7,2.1L25,14.6l-0.8-2.2L26.4,12.4z M19.8,15.4l2.1-0.1l0.8,2.4l-2.1,0.2L19.8,15.4z M20.2,18l-2.1,0.2 l-1-2.7l2.1-0.1L20.2,18z M22.5,15.2l2.1-0.1l0.8,2.3l-2.1,0.2L22.5,15.2z M25.2,15.1l2.1-0.1l0.7,2.1L26,17.4L25.2,15.1z M24.4,14.6l-2.1,0.1l-0.8-2.4l2.2,0L24.4,14.6z M21.8,14.7l-2.1,0.1l-0.9-2.5l2.2,0L21.8,14.7z M19.1,14.9l-2.1,0.1L16,12.3l2.2,0 L19.1,14.9z M16.6,15.5l1,2.7l-2.1,0.2l-1-2.8L16.6,15.5z M17.7,18.8l1,2.8l-2,0.3l-1-2.9L17.7,18.8z M18.3,18.7l2.1-0.2l0.9,2.6 l-2,0.3L18.3,18.7z M20.9,18.4l2.1-0.2l0.9,2.5l-2,0.3L20.9,18.4z M23.5,18.2l2.1-0.2l0.8,2.3l-2,0.3L23.5,18.2z M26.2,17.9l2.1-0.2 l0.7,2.1l-2,0.3L26.2,17.9z M27.3,11.9l-0.5,0l-0.2-0.4l0.5,0L27.3,11.9z M11.9,11.7l-0.2-0.6l0.6,0l0.2,0.6L11.9,11.7z M17.9,25.3 l-1-2.9l2-0.3l1,2.8L17.9,25.3z M20.4,24.7l-1-2.8l2-0.3l0.9,2.6L20.4,24.7z M22.9,24.1L22,21.5l2-0.3l0.9,2.5L22.9,24.1z M25.4,23.6l-0.9-2.4l2-0.3l0.8,2.3L25.4,23.6z M27.9,23l-0.8-2.3l2-0.3l0.7,2.2L27.9,23z"></path> <g> <path d="M67.4,41.5v-0.3l0.6-0.2c0.4-0.1,0.6-0.3,0.8-0.6c0.1-0.2,0.2-0.5,0.2-0.9V24.3c0-0.4-0.1-0.7-0.2-0.9 c-0.1-0.2-0.4-0.4-0.8-0.6l-0.6-0.2v-0.3h7.2v0.3L74,22.9c-0.3,0.1-0.6,0.3-0.7,0.5c-0.1,0.2-0.2,0.6-0.2,1v15.2 c0,0.4,0.1,0.7,0.2,0.9c0.1,0.2,0.4,0.4,0.7,0.5l0.6,0.2v0.3H67.4z M78.1,41.5v-0.3l0.4-0.1c0.4-0.1,0.6-0.3,0.6-0.6 c0-0.3-0.1-0.6-0.3-0.9l-5.6-7.9l7.4-7.5c0.3-0.3,0.4-0.5,0.4-0.8c0-0.3-0.2-0.4-0.6-0.6l-0.5-0.2v-0.3h4.2v0.3l-0.8,0.2 c-0.4,0.1-0.8,0.3-1,0.5c-0.3,0.2-0.5,0.5-0.9,0.8l-5.2,5.3l6.8,9.9c0.3,0.4,0.6,0.8,0.8,1c0.3,0.3,0.6,0.5,1.1,0.6l0.4,0.1v0.3 H78.1z"></path> <path d="M86.4,41.5v-0.3l0.4-0.1c0.4-0.1,0.7-0.3,0.8-0.5c0.1-0.2,0.2-0.5,0.2-0.9v-9.1c0-0.4-0.1-0.7-0.2-0.9 c-0.1-0.2-0.4-0.3-0.8-0.4l-0.4-0.1v-0.3l5.3-1.7l0.3,0.3l-0.1,4.1v8.1c0,0.4,0.1,0.7,0.2,0.9c0.1,0.2,0.4,0.4,0.8,0.5l0.3,0.1v0.3 H86.4z M89.8,25.6c-0.7,0-1.2-0.2-1.7-0.6c-0.5-0.4-0.7-0.9-0.7-1.6c0-0.7,0.2-1.2,0.7-1.6c0.5-0.4,1-0.6,1.7-0.6 c0.7,0,1.2,0.2,1.7,0.6c0.4,0.4,0.7,0.9,0.7,1.6c0,0.6-0.2,1.2-0.7,1.6C91,25.4,90.5,25.6,89.8,25.6z"></path> <path d="M94.5,41.5v-0.3l0.4-0.1c0.7-0.2,1-0.7,1-1.4v-9.1c0-0.4-0.1-0.7-0.2-0.9c-0.1-0.2-0.4-0.3-0.8-0.4l-0.4-0.1v-0.3l5-1.7 l0.3,0.3l0.2,1.7c0.7-0.6,1.4-1.1,2.3-1.5c0.9-0.4,1.7-0.6,2.5-0.6c1.3,0,2.3,0.3,2.9,1c0.7,0.7,1,1.8,1,3.2v8.4 c0,0.8,0.4,1.2,1.1,1.4l0.3,0.1v0.3h-6.8v-0.3l0.4-0.1c0.7-0.2,1-0.7,1-1.4v-9.3c0-1.2-0.6-1.9-1.9-1.9c-0.9,0-1.8,0.4-2.8,1.3v9.9 c0,0.8,0.3,1.2,1,1.4l0.3,0.1v0.3H94.5z"></path> <path d="M116.2,41.9c-0.9,0-1.8-0.1-2.6-0.3c-0.8-0.2-1.5-0.5-2.1-0.8l0-3.5h0.3l1,1.7c0.4,0.8,0.9,1.3,1.4,1.7 c0.5,0.4,1.2,0.6,2,0.6c0.9,0,1.7-0.2,2.2-0.6s0.9-1,0.9-1.7c0-0.6-0.2-1.2-0.6-1.6c-0.4-0.4-1.2-0.8-2.3-1.1l-1.2-0.4 c-1.2-0.3-2.1-0.9-2.8-1.6c-0.7-0.7-1-1.6-1-2.7c0-1.3,0.5-2.4,1.5-3.2c1-0.9,2.4-1.3,4.3-1.3c0.8,0,1.5,0.1,2.1,0.2 c0.7,0.2,1.3,0.4,1.9,0.7l-0.2,3.1h-0.3l-1-1.8c-0.4-0.6-0.7-1.1-1.1-1.3c-0.4-0.3-0.9-0.4-1.6-0.4c-0.7,0-1.3,0.2-1.9,0.6 s-0.9,0.9-0.9,1.6c0,0.7,0.2,1.2,0.7,1.6c0.5,0.4,1.2,0.7,2.2,1.1l1.3,0.4c1.4,0.4,2.4,1,3,1.8c0.6,0.7,0.9,1.6,0.9,2.7 c0,1.4-0.6,2.5-1.7,3.4S118.2,41.9,116.2,41.9z"></path> <path d="M127.9,41.9c-1.1,0-2.1-0.3-2.8-1c-0.8-0.6-1.1-1.6-1.1-2.8c0-0.9,0.5-1.7,1.4-2.5c0.9-0.8,2.4-1.3,4.4-1.7 c0.3-0.1,0.7-0.1,1-0.2c0.4-0.1,0.8-0.1,1.2-0.2v-2.3c0-1.3-0.2-2.2-0.5-2.8c-0.3-0.5-0.8-0.8-1.5-0.8c-0.5,0-0.8,0.2-1.1,0.4 c-0.3,0.3-0.4,0.8-0.5,1.6l-0.1,0.3c0,0.8-0.2,1.4-0.6,1.8c-0.4,0.4-0.8,0.6-1.4,0.6c-0.5,0-0.9-0.2-1.2-0.5s-0.5-0.7-0.5-1.2 c0-0.8,0.3-1.5,0.8-2c0.6-0.5,1.3-0.9,2.2-1.2c0.9-0.3,1.9-0.4,3-0.4c1.7,0,3,0.4,4,1.3c0.9,0.8,1.4,2.2,1.4,4.1v6.4 c0,0.9,0.4,1.3,1.2,1.3h0.6l0.3,0.2c-0.4,0.5-0.8,0.8-1.2,1.1s-1,0.4-1.8,0.4c-0.9,0-1.5-0.2-2-0.6c-0.5-0.4-0.8-0.9-1-1.6 c-0.6,0.6-1.2,1.1-1.8,1.6C129.7,41.7,128.9,41.9,127.9,41.9z M129.7,40.1c0.4,0,0.7-0.1,1.1-0.3s0.7-0.5,1.2-0.9v-4.9 c-0.2,0-0.4,0.1-0.6,0.1c-0.2,0-0.4,0.1-0.7,0.1c-0.9,0.2-1.6,0.6-2.1,1.2c-0.5,0.6-0.8,1.3-0.8,2.2c0,0.8,0.2,1.4,0.6,1.8 C128.7,39.9,129.2,40.1,129.7,40.1z"></path> <path d="M138.8,41.5v-0.3l0.3-0.1c0.7-0.2,1-0.7,1-1.5V24.1c0-0.4-0.1-0.7-0.2-0.9c-0.2-0.2-0.4-0.4-0.8-0.4l-0.4-0.1v-0.3l5.3-1.2 l0.3,0.3l-0.1,4.1v9.9c0,0.7,0,1.4,0,2.1c0,0.7,0,1.4,0,2.1c0,0.4,0.1,0.7,0.2,0.9c0.2,0.2,0.4,0.4,0.8,0.5l0.4,0.1v0.3H138.8z"></path> <path d="M154.3,27.1c1.3,0,2.3,0.3,3.2,0.8c0.9,0.5,1.6,1.2,2,2.1c0.5,0.9,0.7,1.9,0.7,3c0,0.2,0,0.4,0,0.7c0,0.2-0.1,0.4-0.1,0.6 h-8.6c0,2.1,0.4,3.6,1.1,4.5c0.7,0.9,1.8,1.4,3.2,1.4c1,0,1.8-0.2,2.3-0.5c0.6-0.3,1.2-0.8,1.7-1.4l0.3,0.3 c-0.6,1.1-1.4,1.9-2.4,2.5c-1,0.6-2.2,0.9-3.6,0.9c-1.4,0-2.6-0.3-3.7-0.9c-1.1-0.6-1.9-1.4-2.5-2.5c-0.6-1.1-0.9-2.4-0.9-3.9 c0-1.6,0.3-2.9,1-4c0.7-1.1,1.6-2,2.7-2.5C151.9,27.4,153.1,27.1,154.3,27.1z M154.2,27.7c-0.6,0-1,0.2-1.4,0.5 c-0.4,0.3-0.7,0.9-0.9,1.8c-0.2,0.9-0.3,2.1-0.4,3.6h5c0.2-2.1,0.1-3.6-0.2-4.6C155.9,28.1,155.2,27.7,154.2,27.7z"></path> <path d="M171.5,41.5v-0.3l0.9-0.2c0.7-0.2,1-0.7,1-1.4V34l-4.8-9.7c-0.2-0.4-0.3-0.7-0.5-0.9c-0.1-0.2-0.4-0.4-0.7-0.5l-0.5-0.3 v-0.3h7.8v0.3l-0.5,0.2c-0.4,0.2-0.7,0.4-0.7,0.7c0,0.3,0,0.7,0.2,1.1l3.4,7.6l3.8-7.9c0.2-0.3,0.2-0.6,0.2-1 c0-0.3-0.2-0.5-0.6-0.6l-0.4-0.1v-0.3h3.5v0.3l-0.6,0.2c-0.4,0.1-0.6,0.3-0.8,0.6c-0.2,0.2-0.3,0.5-0.5,0.9l-4,8.4v6.8 c0,0.4,0.1,0.7,0.2,0.9c0.1,0.2,0.4,0.4,0.8,0.5l0.9,0.2v0.3H171.5z"></path> <path d="M185.9,41.9c-1.1,0-2.1-0.3-2.8-1c-0.8-0.6-1.1-1.6-1.1-2.8c0-0.9,0.5-1.7,1.4-2.5c0.9-0.8,2.4-1.3,4.4-1.7 c0.3-0.1,0.7-0.1,1-0.2c0.4-0.1,0.8-0.1,1.2-0.2v-2.3c0-1.3-0.2-2.2-0.5-2.8c-0.3-0.5-0.8-0.8-1.5-0.8c-0.5,0-0.8,0.2-1.1,0.4 c-0.3,0.3-0.4,0.8-0.5,1.6l-0.1,0.3c0,0.8-0.2,1.4-0.6,1.8s-0.8,0.6-1.4,0.6c-0.5,0-0.9-0.2-1.2-0.5s-0.5-0.7-0.5-1.2 c0-0.8,0.3-1.5,0.8-2c0.6-0.5,1.3-0.9,2.2-1.2c0.9-0.3,1.9-0.4,3-0.4c1.7,0,3,0.4,4,1.3c0.9,0.8,1.4,2.2,1.4,4.1v6.4 c0,0.9,0.4,1.3,1.2,1.3h0.6l0.3,0.2c-0.4,0.5-0.8,0.8-1.2,1.1c-0.4,0.3-1,0.4-1.8,0.4c-0.9,0-1.5-0.2-2-0.6c-0.5-0.4-0.8-0.9-1-1.6 c-0.6,0.6-1.2,1.1-1.8,1.6C187.7,41.7,186.9,41.9,185.9,41.9z M187.7,40.1c0.4,0,0.7-0.1,1.1-0.3s0.7-0.5,1.2-0.9v-4.9 c-0.2,0-0.4,0.1-0.6,0.1c-0.2,0-0.4,0.1-0.7,0.1c-0.9,0.2-1.6,0.6-2.1,1.2c-0.5,0.6-0.8,1.3-0.8,2.2c0,0.8,0.2,1.4,0.6,1.8 S187.2,40.1,187.7,40.1z"></path> <path d="M203.9,41.9c-1.3,0-2.5-0.3-3.6-0.9c-1.1-0.6-1.9-1.4-2.6-2.5c-0.6-1.1-0.9-2.4-0.9-4c0-1.6,0.3-2.9,1-4 c0.7-1.1,1.6-2,2.8-2.6s2.4-0.9,3.8-0.9c1.1,0,2.1,0.2,2.8,0.6c0.8,0.4,1.4,0.8,1.8,1.4s0.6,1.2,0.6,1.8c0,0.5-0.2,1-0.5,1.3 c-0.3,0.3-0.8,0.4-1.3,0.4c-0.6,0-1-0.2-1.4-0.6c-0.3-0.4-0.6-0.9-0.6-1.6c0-0.4,0-0.8,0-1.1c0-0.3,0-0.6,0-0.9 c-0.1-0.3-0.2-0.5-0.4-0.7c-0.2-0.1-0.4-0.2-0.7-0.2c-1.2,0-2.1,0.5-2.7,1.5c-0.6,1-1,2.7-1,4.9c0,2,0.4,3.4,1.1,4.5 c0.7,1,1.8,1.6,3.3,1.6c0.9,0,1.6-0.2,2.2-0.5c0.6-0.3,1.1-0.8,1.6-1.5l0.3,0.2c-0.5,1.1-1.2,2-2.2,2.6 C206.5,41.6,205.3,41.9,203.9,41.9z"></path> <path d="M210.5,41.5v-0.3l0.3-0.1c0.7-0.2,1-0.7,1-1.5V24.1c0-0.4-0.1-0.7-0.2-0.9c-0.1-0.2-0.4-0.3-0.8-0.4l-0.4-0.1v-0.3l5.1-1.2 l0.5,0.3l-0.1,4.1v3.6c0.7-0.6,1.4-1,2.2-1.4c0.8-0.4,1.6-0.6,2.6-0.6c1.3,0,2.3,0.4,3,1.1c0.7,0.7,1.1,1.8,1.1,3.3v8.2 c0,0.4,0.1,0.7,0.2,0.9c0.2,0.2,0.4,0.4,0.8,0.5l0.2,0.1v0.3h-6.8v-0.3l0.3-0.1c0.7-0.2,1-0.7,1-1.5v-9.1c0-0.8-0.1-1.3-0.4-1.6 c-0.3-0.3-0.7-0.4-1.4-0.4c-0.4,0-0.9,0.1-1.4,0.2c-0.5,0.2-1,0.4-1.5,0.9v10.1c0,0.8,0.3,1.2,1,1.5l0.2,0.1v0.3H210.5z"></path> <path d="M232.6,41.9c-1.2,0-2.2-0.3-2.9-0.9c-0.7-0.6-1-1.6-1-3v-9.9h-2v-0.3l0.7-0.1c0.6-0.1,1.1-0.3,1.6-0.6 c0.4-0.3,0.9-0.6,1.3-1l2.4-2.6h0.3l-0.1,4.1h3.2v0.6h-3.3v10.4c0,0.7,0.1,1.2,0.4,1.5c0.3,0.3,0.7,0.5,1.1,0.5 c0.4,0,0.8-0.1,1.1-0.3s0.6-0.5,0.9-0.8l0.3,0.3c-0.4,0.7-0.9,1.2-1.6,1.6C234.4,41.7,233.6,41.9,232.6,41.9z"></path> <path d="M253.9,42c-1.9,0-3.6-0.4-5.1-1.1c-1.5-0.8-2.7-1.9-3.6-3.4s-1.3-3.4-1.3-5.5c0-1.7,0.3-3.1,0.8-4.4 c0.5-1.3,1.3-2.3,2.2-3.2c0.9-0.9,2-1.5,3.2-1.9c1.2-0.4,2.5-0.6,3.9-0.6c1.1,0,2.1,0.1,3,0.4c0.9,0.3,1.8,0.6,2.6,1l0.1,3.6h-0.3 l-1.5-2.3c-0.2-0.4-0.4-0.7-0.6-1c-0.2-0.3-0.5-0.5-0.9-0.7c-0.3-0.1-0.6-0.2-0.9-0.3s-0.6-0.1-1.1-0.1c-1.1,0-2.1,0.3-3.1,0.9 c-0.9,0.6-1.7,1.6-2.2,3c-0.6,1.4-0.8,3.3-0.8,5.7c0,2.4,0.3,4.3,0.8,5.6c0.5,1.4,1.2,2.4,2.1,3c0.9,0.6,1.9,0.9,3,0.9 c0.6,0,1.1,0,1.5-0.1s0.7-0.2,1.1-0.4c0.4-0.2,0.6-0.4,0.8-0.7c0.2-0.3,0.4-0.6,0.5-1l1.3-2.8h0.3l-0.1,4.1c-0.8,0.4-1.7,0.8-2.7,1 C256.2,41.8,255.1,42,253.9,42z"></path> <path d="M261.5,41.5v-0.3l0.3-0.1c0.7-0.2,1-0.7,1-1.5V24.1c0-0.4-0.1-0.7-0.2-0.9c-0.2-0.2-0.4-0.4-0.8-0.4l-0.4-0.1v-0.3l5.3-1.2 l0.3,0.3l-0.1,4.1v9.9c0,0.7,0,1.4,0,2.1c0,0.7,0,1.4,0,2.1c0,0.4,0.1,0.7,0.2,0.9c0.2,0.2,0.4,0.4,0.8,0.5l0.4,0.1v0.3H261.5z"></path> <path d="M274.8,41.9c-0.8,0-1.4-0.1-2.1-0.4c-0.6-0.3-1.1-0.8-1.5-1.4s-0.5-1.5-0.5-2.6l0.1-7.5c0-0.4-0.1-0.8-0.2-1 c-0.2-0.2-0.4-0.3-0.7-0.4l-0.3-0.1v-0.3l5.2-1l0.3,0.3l-0.1,4.1v7c0,0.6,0.2,1.1,0.5,1.4s0.8,0.4,1.3,0.4s1-0.1,1.5-0.2 c0.4-0.2,0.9-0.4,1.3-0.7l0.1-9.5c0-0.4-0.1-0.8-0.2-0.9c-0.1-0.2-0.4-0.3-0.8-0.4l-0.3-0.1v-0.3l5.1-1.1l0.3,0.3l-0.1,4.1v7.9 c0,0.4,0.1,0.8,0.2,1s0.4,0.4,0.8,0.6l0.3,0.1v0.3l-5.1,0.3l-0.3-1.7c-0.6,0.5-1.3,1-2.1,1.3S275.8,41.9,274.8,41.9z"></path> <path d="M291,41.8l-4.9-0.4v-0.3l0.3-0.1c0.8-0.2,1.1-0.7,1.1-1.5V24.1c0-0.4-0.1-0.7-0.2-0.9c-0.1-0.2-0.4-0.4-0.8-0.4l-0.4-0.1 v-0.3l5.2-1.2l0.3,0.3l-0.1,4.1v2.9c0.6-0.4,1.3-0.8,2.1-1c0.8-0.2,1.5-0.3,2.3-0.3c1.1,0,2.1,0.3,2.9,0.8c0.9,0.5,1.5,1.3,2,2.4 s0.7,2.5,0.7,4.1c0,1.7-0.3,3.1-0.8,4.2c-0.6,1.1-1.3,1.9-2.2,2.5c-0.9,0.6-1.9,0.8-3,0.8c-0.7,0-1.4-0.1-2.2-0.3 c-0.7-0.2-1.4-0.5-1.9-0.8L291,41.8z M294.1,40.9c0.6,0,1.2-0.2,1.6-0.6s0.8-1,1.1-2c0.3-0.9,0.4-2.2,0.4-3.9s-0.1-2.9-0.4-3.8 c-0.3-0.9-0.6-1.5-1.1-1.9c-0.5-0.3-1-0.5-1.6-0.5c-0.9,0-1.8,0.3-2.5,0.8v11.1c0.4,0.2,0.7,0.4,1.1,0.5S293.6,40.9,294.1,40.9z"></path> </g> </svg> 