<?xml version="1.0" encoding="UTF-8"?> <svg xmlns="http://www.w3.org/2000/svg" id="Layer_1" width="100" height="100" version="1.1" viewBox="0 0 100 100"><defs><style> .st0 { fill: #b09344; } .st1 { fill: #fff; } .st2 { fill: #ffd51e; } .st3 { fill: #130c0e; } </style></defs><path class="st1" d="M50.7078,98.063c26.8556,0,48.6263-21.5869,48.6263-48.2159S77.5634,1.6323,50.7078,1.6323,2.0815,23.2181,2.0815,49.8471s21.7707,48.2159,48.6263,48.2159"></path><path class="st2" d="M42.7522,29.5685c-.3168-.0033-.5765.3004-.5798.6777-.0033.3774.2508.6854.5677.6887.3168.0033.5776-.3014.5809-.6777.0022-.3784-.2519-.6865-.5688-.6887M42.1175,32.1682c-.0022.3521.2596.6414.5875.6435.3278.0034.5963-.2805.5996-.6337.0022-.3521-.2607-.6414-.5886-.6435-.3267-.0034-.5952.2805-.5985.6337M48.9284,26.6554c.0528-.3642-.1881-.7008-.538-.7525-.352-.0528-.6799.2013-.7338.5654-.0528.3641.1881.7008.5391.7525s.6788-.2013.7327-.5654M51.8746,27.3704c.0033-.3234-.2288-.5875-.5182-.5908-.2893-.0022-.5259.2574-.5281.582-.0033.3224.2288.5864.5182.5886.2882.0033.5248-.2574.5281-.5798M62.3821,26.4243c.0033-.3729-.2948-.6788-.6645-.681-.3708-.0033-.6733.296-.6766.6689-.0033.374.2937.6799.6645.6821.3707.0033.6733-.296.6766-.67M63.9377,26.8918c.0033-.3883-.2651-.7052-.5974-.7074-.3333-.0033-.6062.3091-.6095.6975-.0033.3895.264.7063.5974.7085.3322.0033.6062-.3091.6095-.6986M65.4009,27.8545c.0033-.4026-.2937-.7316-.6645-.7349-.3696-.0034-.6733.3201-.6777.7228-.0022.4026.2948.7305.6656.7338.3697.0033.6733-.3202.6766-.7217M66.4262,29.2341c.0022-.3686-.2959-.6689-.6656-.6711-.3718-.0033-.6744.2927-.6766.6601-.0022.3685.2959.6689.6656.6721.3708.0022.6733-.2937.6766-.6611M63.1302,43.2037l.7316-.1683-.308.8218-.1452-.0011-.4412-.3685.1628-.2838ZM62.9971,30.9866s-1.0935-.0572-2.0364-1.0176c0,0-1.1794-1.1991-2.6172.0253,0,0-1.2663.7646-2.7889.7041.8372.1639-.9725.4081-.341-1.4522,0,0,.2398-.0781.5941-.1992l.4742-.0671.8218-.2805.7965-.3729.242-.1563.5259-.1936.4368-.1683.3762-.1177.2354-.0715.4092-.0935.2794-.0209.4544-.0429.2178.0022.4302.0594.3322.0726.3102.0583.2266.099.1023.0286.1782.1034.3091.2255.4511.3609h.044c.0682.0693.1375.1408.2035.2167-.319-.2805,1.4324,1.6426,1.0627,3.8747l.0209.1661-.0077.0088c-.1012-.2773-.7404-1.9176-1.7437-1.7515M58.009,52.9058l-.7932,1.4731-3.9407-5.8373.4533-.1463-.0352-.1463.8746-.209.0187.0792.0253-.0077,3.3972,4.7944ZM56.7692,55.3889l-.8229,1.6007-5.9067-8.3908,1.6051-.0748,5.1245,6.8649ZM52.845,30.9393s-1.4148-.8504-2.2179-.8647c0,0-1.0836-.1573-1.5589-.2563l.0165.0165c-.0726-.0517-.4555-.2431-1.2575.4005,0,0-.6238.6128-1.4313.5578,0,0-.5226-.099-1.2894.5127,0,0-.7151.3311-1.0099,1.4335-.4621-.6425-.8702-3.2608,2.4137-4.6305.1881-.0847,1.6821-.8549,4.3071.1595,0,0,1.3488.9109,1.9209.8207,0,0,.2002,1.5237.1067,1.8504M46.7656,51.205l.0473-.0737-.0099-.0132-.0451.0407-.0231-.1298-.0176-.0242c-.0055-.087.0055-.0408.0176.0242l.0682.0891.0341-.0319-.0242.0451,7.3225,9.6537-.8372,1.6195-7.7131-10.4558s1.0704-.3707,1.1805-.7437M52.7745,63.6509l-.6535,1.2146-9.0333-11.9784s.6755-.033,1.3642-.3004l8.3226,11.0641ZM51.626,65.7962l-.5798,1.121-10.052-12.6835c.2178-.5556.1771-.6601.1771-.6601.3267-.0858,1.3246.198,1.3246.198l9.1301,12.0246ZM50.5897,67.9624l-2.0441,3.9649c-.0011-.1937-.2266-1.4742-.4995-1.571l.0033-.0055c-.0682.0242-.1364.0264-.1364.0264,0,0-.7569-.0726.1771-.044l-.0033.0022.0352-.0209c.8185-.6106.0539-1.7646.0539-1.7646,1.0462-1.1937-.4092-2.0738-.4092-2.0738.7294-.9538-.8042-1.5039-.8042-1.5039.2299-1.2211-1.3202-1.4687-1.3202-1.4687.0121-1.2608-1.8471-1.0738-1.8471-1.0738.6733-1.3125-1.1122-1.0803-1.1122-1.0803.3586-1.3532-1.0539-1.4709-1.0539-1.4709-.4104-1.9968-2.274-2.6811-2.274-2.6811,1.6304-1.5182-.2596-.9824-.1903-1.3025.0704-.3279.1837-1.6767.1837-1.6767l.6051.286,10.6362,13.4581ZM54.5865,59.8235l-6.6262-9.1576s.4852-.7217.4445-1.1155c0,0,.6909-.1992.6909-.2838l.1265.1221,6.3236,8.9232-.9593,1.5116ZM58.4579,51.6814l-3.3499-4.6085s4.4523.329,4.7559-1.7756c0,0,1.7096-.2893,1.8306-.5632,0,0,.3575,1.1112-.2189,1.7723,0,0-1.066.5754-1.933,2.8329,0,0-.56,2.2179-1.0847,2.3422M65.1567,32.5136l.0033-.0099.0033.0088-.0066.0011ZM62.9234,40.1232c.3113-.066.4951-.1111.4951-.1111.0517-.4863.6568-1.6095.6568-1.6095-.3476-1.5193,1.0781-4.5183,1.0781-4.5183-.0517-.055-.0869-.132-.1089-.2211l.1331.0198.0528-.0055c.0583.055.132.0891.2134.0902.1859.0011.3366-.1617.3389-.3652,0-.0704-.0187-.1354-.0484-.1926l.011-.1089-.0209-.1463.1683.0319c.3245.0034.5897-.2915.593-.6578.0022-.2002-.077-.3784-.2002-.5017-.121-.1419-.2992-.2366-.5017-.2376-.1485-.0022-.2849.0451-.3961.1265.0418-.2112.0605-.4048.0671-.5897.1155.1518.2926.253.494.2542.3542.0033.6436-.2916.6458-.659.0033-.3674-.2805-.6667-.6337-.67-.2409-.0022-.45.1364-.5611.34-.2387-1.1343-1.1045-1.615-1.2168-1.7327l-.1771-.1826.0011-.088-.077-.1859-.2629-.1826-.3311-.2762-.264-.1408-.8922-.3729-.2508-.0099c-.6227-.1706-1.197-.1749-1.6524-.1232.1672-.1287.2794-.3279.2816-.5545,0-.1133-.0275-.2178-.0737-.3124-.0935-.2828-.3553-.4885-.67-.4918-.395-.0033-.7173.3124-.7217.7052-.0011.0694.0121.1364.0308.2002.0418.275.2442.4962.5094.5732-.1023.0286-.1859.0551-.2497.077l-.0704.0022-.3113.1507-.2508.0671-.1639.0979-.1617-.0011c.1507-.1276.2497-.3224.2519-.5435.0033-.3883-.2882-.7063-.6524-.7085-.363-.0044-.6601.308-.6634.6975-.0044.3609.2486.6557.5754.6997l-.2695.1331-.4456.1903-.1078.1111-.1848.0429c.1276-.1122.2112-.2761.2123-.461.0033-.341-.2662-.6204-.5996-.6227-.3333-.0033-.6062.2706-.6095.6116-.0033.3301.2486.5996.5677.6194-.1001.0462-.2002.0913-.209.0935-.0066.0022-.0902.0319-.1903.0671-.3025-.0353-.4412-1.2982-.4412-1.2982l.2178-.7503c-.022-1.0133-.6414-1.5204-.9395-1.7658.2222.0275-.0231-.9241-.0231-.9241l.9153.4093c.5237-1.5523.1375-2.5711.1375-2.5711-.5061.4093-1.4544,1.1463-1.4544,1.1463.3619-.8834.637-1.7602.637-1.7602-1.0858-.8988-2.5303-.0473-2.5303-.0473l.725,1.0979.308.6149-1.395-.967c-.3598,1.6018.2387,2.2751.2387,2.2751l.791-.528.3807.0109c-.5754.4852-.7492,1.2366-.7492,1.2366-1.1222,1.4478-.3311,2.6128-.3785,2.5656l.066.0473c-.2618.0352-.4676.3179-.4709.6634-.0011.1111.0198.2156.0561.3091-.6051.1067-1.9418-.8087-1.9418-.8087-.0979-.0187-.1914-.0352-.2849-.0517.2057-.0616.3708-.2486.406-.4896.0484-.3234-.1551-.6216-.4522-.6656-.2981-.044-.5776.1826-.6249.5061-.0352.2398.0671.4643.2431.583-1.1188-.1485-1.9857-.0726-2.6315.0782.22-.1001.3939-.3213.4346-.6007.0605-.4158-.1903-.7976-.56-.8515-.3707-.0551-.7206.2387-.7822.6546-.0605.4158.1903.7976.56.8515l.1221.0044c-.6381.1793-1.022.4203-1.187.5368.1276-.1276.2233-.3124.2552-.527.0638-.4379-.1606-.8339-.5017-.8845-.34-.0496-.6689.2651-.7338.704-.0649.4379.1595.8339.5006.8835.1034.0154.2046-.0055.2981-.0506-.4632.3388-.8251.6997-1.1034,1.0682.0726-.1166.1177-.2585.1188-.4136.0033-.3895-.2552-.7063-.5776-.7085-.3223-.0033-.5864.3102-.5897.6986s.2552.7052.5776.7074c.1595.0022.3058-.0748.4115-.2002-1.0847,1.5204-.8053,3.164-.5589,3.9715-.1133-.1441-.2816-.2387-.472-.2398-.3454-.0034-.6282.2926-.6315.6611-.0033.3675.275.6678.6205.6711.3443.0033.6271-.2927.6304-.6612l-.0011-.0187.0407.0946c-.0506.428-.4049.5985-.4049.5985.2079.6337,1.4676,2.9792,1.4676,2.9792-.055.9505.3763,3.3235.3763,3.3235.3036-.2585.6777-.1353.8944-.0253-.5545.0584-.8801.098-.8801.098-3.274,1.769-3.1959,3.6458-3.1959,3.6458,1.3642,1.8196.4973,3.0496.4973,3.0496-1.1144,2.3213-3.3422,1.3025-3.3422,1.3025.3862-.5666-.7415-2.1948-.7415-2.1948-.5127-1.1463.1342-.1749.1342-.1749,0,0-.9736-1.6887.3994-1.0099,1.373.6777,1.4071-1.1287,1.4071-1.1287,1.0528-.8383.4698-1.7734.4698-1.7734,1.0088-1.0858-.5061-1.5105-.5061-1.5105-.7118-.0583-.8977-.7206-.8977-.7206-1.494-3.2608-4.0826-2.1761-4.6327-1.2871-.1848.3025-.538.4588-.7668-.2729-.0561-.1804-.45.3091-.45.3091.1859.5237.5292.9385.5292.9385-.1452.3311-.0385,1.0154-.0385,1.0154.0616,1.0848-.89,1.9363-.89,1.9363l.692.4698c.1837,2.8923,1.3059,2.2531,1.8801,2.0617-.3961,4.5535-3.5172,6.0849-3.5172,6.0849.2068.8482.9901,1.5545.9901,1.5545.3443,1.3488.7635,4.7746.7635,4.7746-.5842,1.4841-.2222,1.5379-.2222,1.5379.5578,3.6151,4.2641,6.7164,4.2641,6.7164,7.3093,5.2642,7.6779,9.2599,7.7263,9.5162-1.2575-.3916-1.5017.3191-1.5017.3191-.7239,1.231.6975,1.9571.6975,1.9571,1.8493.6347,2.4379-.8031,2.4379-.8031.4786-.2817,3.2476.4884,3.2476.4884,0,0-.0132.0308-.0011.1243.1353,1.0012,1.165-.0792,1.165-.0792.9648-1.9373,4.032-1.7855,4.2279-1.7844,1.0748.7129,1.2685-.692,1.2685-.692l7.4964-27.7895-.3884-.703c.2387-.0935,1.0033-1.5523,1.0033-1.5523,1.3455-1.6062,1.3411-.2629,1.3411-.2629.1133-1.2553-.7437-1.2839-1.5017-1.0584l-.0209.0176.0055-.0121-.0605.0187.0704-.0418c.1595-.4389-.2288-2.2487-.2288-2.2487,2.4918-1.5765,2.1629-1.4841,2.0606-2.0111-1.6612.5908-3.285.6436-4.1772.6139"></path><path class="st0" d="M63.1934,39.9c-.2926-.0088-.5842-.0187-.7855.0649.1144-.4466.3752-1.0902.9351-.8482.0924.164-.0561.5809-.1496.7833M59.1988,39.6513c-.3916.0077-.7679.0011-1.0693-.0803.0264-.6799.6249-1.2597,1.2927-.8449.022.406.0099.7789-.2233.9252M55.1635,39.0451c-.055.1056-.1815.4764-.4654.56-.45-.0704-.9582-.0814-1.3367-.2223l.0055-.5644c.3762-.4114,1.3455-.2893,1.7602.0165l.0363.2101ZM50.3504,39.6458c-.2629.1826-.8108.1782-1.0704-.0099-.1551-1.2135,1.4489-1.0276,1.0704.0099M45.8244,40.1981c-.2783.077-.5798-.1332-.6733-.4698-.0935-.3355.0561-.6711.3355-.7481.2772-.0781.5787.1331.6722.4698.0924.3355-.0572.6711-.3344.7481M63.6489,38.8218l-.2178.0209-.8471-.1727-1.4676-.2717-1.8405-.1551-1.2201-.1299-1.5523-.0143-2.2982-.0198-.9307-.0077-1.1189.11-1.5941-.0143-2.0716.1937-2.2157.1661-1.3246-.011.3322,2.1596.2475-.0265.5105-.11.4247-.1045.7041-.1397,1.4929-.1111,2.0485-.0022,1.9242.0165,2.2146.0605,1.7998.1188,2.1112.0187,1.7195-.1298,1.6975.0154,1.0561-.0946.0495-.0055.0209-.1452.0616-.3146.2838-.9Z"></path><path class="st0" d="M52.3261,26.1117l1.1133-.2805-.0044-.088-.011-.2509-.0121-.3157-.011-.1727-.0055-.2618s-.0121-.0088-.1111.0055c-.824.1111-.9582,1.3642-.9582,1.3642M55.6959,26.028s-.3245-1.22-1.1354-1.2751c-.0979-.0066-.1199-.0033-.1199-.0033l.0055.2002.0033.1332-.0011.2266-.0033.1881-.0132.3598,1.2641.1705Z"></path><path class="st0" d="M53.5231,32.2015c-.0022.1947.1507.3532.3399.3553.1903.0022.3454-.1551.3465-.3487.0022-.1937-.1496-.3521-.3399-.3543-.1903-.0022-.3454.154-.3465.3476M53.5319,31.1552c-.0011.1947.1507.3532.341.3543.1892.0022.3443-.154.3465-.3476.0011-.1947-.1507-.3521-.341-.3553-.1892-.0011-.3443.1551-.3465.3487M53.5396,30.2091c-.0011.2354.1507.4258.341.4279.1892.0022.3443-.187.3465-.4213.0022-.2343-.1496-.4257-.3388-.4279-.1914-.0011-.3465.187-.3487.4213M53.5506,29.0287c-.0011.2002.1507.3641.3399.3652.1903.0022.3454-.1595.3476-.3597.0011-.2002-.1507-.3631-.341-.3653-.1903-.0021-.3454.1595-.3465.3598M54.3064,27.824c.0011-.165-.1782-.2992-.4027-.3014-.2244-.0021-.407.1299-.4093.2938,0,.165.1793.3004.4038.3025.2244.0022.407-.1309.4082-.2948"></path><path class="st0" d="M45.5668,37.9212l.0528-.0187-.8284-.5105.044.725.7316-.1959ZM50.4482,37.4426l.1793-.0924-.0858-.099-.1617-.1485-.187-.1497-.2453-.2486-.1859-.2519-.1562-.2685-.0429.2156-.1111.3927-.5072.6909-.0616.0759.1166.0022.4203-.0473.7723-.0198.2563-.0517ZM55.3163,37.1512c-.5831-.1761-.8988-.9483-.9703-1.065,0,0-.0715.4741-.2145.6721-.2057.2805-.5215.5622-.5215.5622.0429-.0077,2.197-.0209,1.7063-.1694M58.2471,37.347l1.5798.0924-.0407-.0792-.6282-1.0144-.3609.4698-.5501.5314ZM63.8875,37.9531l-.0231-.7426-.9054.5919.0627.0154.8658.1353Z"></path><path class="st3" d="M34.3831,39.1728c-.2794-.033-.1562-.4599-.4236-.5039.0275.1727-.132.154-.0748.3564.1199.3807,1.0253.6788,1.0704.0099-.1925-.1749-.2563.2178-.5721.1375M39.5802,40.6448c-.0605-1.1728-1.1342-2.3301-2.3334-2.5182-.923-.1442-2.01-.0066-2.362.7646,1.6227-1.1651,3.5711-.3322,4.273.9648.1507.2784.0902.6524.4224.7888M37.8519,41.1013c.0495.4291.3862.5336.4247.7998-.0924.2926-.3619.3157-.4104.6524.5391-.0506.5314.0913.8977.5137.483.2245.1947-.2948.1947-.2948,0,0-.2453-.2904-.3554-.4719.0231-.4302-.3388-1.1661-.3388-1.1661,0,0-.1177-.274-.4126-.033M40.5747,41.0826c-.3773-1.1001-2.0177.4026-1.0803,1.132.5303.1529,1.3466-.5226.648-.7085-.0605.0528.0297.3851-.2882.3543-.1056-.0847-.3179-.0649-.2827-.2883.1298-.4246.5039-.6337,1.0033-.4895M41.2161,41.23c-.2002-.11-.2937.022-.571-.0759.0935.2376.341.3257.352.6447-.0264.3575-.4093.3509-.3641.7822.4357.11.8251-.7713.5831-1.351M40.1996,44.3621c.2266.7844-.7866,1.4434-.9802.7624l-.0352-.1298.022-.0539c.0572-.1782.2497-.0858.3608-.1573l.0484-.0704-.0187-.1485c-.0583-.1089-.1958-.143-.3267-.1397-.0891.0033-.1573.0264-.2123.0638l-.0253.0209c-.2079.1859-.1727.6204-.4213.7646-.0253-.077-.0396-.1518-.0473-.2255-.1606-.9528,1.0792-1.5347,1.6359-.6865M39.2975,48.4206c.0484-1.1167-1.2542-2.2278-.5446-3.0727.5468.8141,1.9054.0627,1.6513-1.0561.6392.0957,1.2729-1.0969.5831-1.4214.0627.4158-.1298,1.0858-.6524,1.1353-.3696-.3147-1.0198-.5908-1.7085-.3719.143-.1507-.1045-.3609-.1452-.5423-.2288-.1045-.4081-.6007-.9197-.0385-.1045.22-.0924.56.2079.5732.3245-.0286-.1419-.6347.2816-.4588.1771-.0088.2101.1111.2706.2168-.0693,1.0121-1.1595.7778-1.1937.165-.0319-.5654,1.1507-1.2486.516-1.8504-.2926-.1419-.4709-.1452-.8537-.2927-.0726-.4412-.165-.7216.0088-1.0715-.7767.6579-1.4709-.0561-1.7789-.6578-.6469.3433-1.1849-.1749-1.4203-.6535-.2244.7326.7019,1.3971,1.4181,1.011.1617.6084.8064,1.0418,1.4918.7261-.3718.2563-.033.9978.4192,1.0748-.2233-.0352-.319.0594-.2882.2828.45.1221.4434-.2211.7866-.2068.1232.868-.8504,1.1353-.5886,1.9934.1672.5413.9582.5468,1.4236.4401.2167.5677-.1474,1.066-.0858,1.6403.088.8196.9604,1.5402.9065,2.505-1.0187.0473-2.1728.329-2.2927,1.0507.7074-.4808,1.4038-.7822,2.3609-.6216.2684.0451.5094.264.7811.2926,1.3565.143,2.7548-1.0903,3.0166-2.186.2497-1.0419-.5545-1.9847-.7591-2.933.066-.4269.4478-.8691.3674-1.2091-.5105.2244-.5215.956-.7272,1.4918,1.9869,1.5292.0737,5.4259-2.5325,4.0452M42.8454,42.6008c.2431-.0308.483-.3201.3609-.4972-.2838.0396-.5226.2035-.3609.4972M59.5522,33.397c-.1397.3036-.571,1.2542-.0858,1.4984-.253-.4874.2893-1.2025.0858-1.4984M49.9776,34.7403c.2134-.3224.6975-.3774.9318-.4907-.3872-.2002-.945.0451-.9318.4907M48.9193,33.3761c-.0649.4752-.0231,1.428.4137,1.6447-.2299-.4577-.1529-1.2179-.4137-1.6447M47.4781,34.9328c.2981-.187.5996-.2948.9296-.2773-.264-.297-.9065-.1089-.9296.2773M57.4036,34.2353c.363-.0671.6799-.2167,1.0704-.0626-.1529-.4313-.912-.274-1.0704.0626M60.253,34.8305c.308-.1166.659-.2035.9274.0077-.0473-.4675-.8449-.4203-.9274-.0077M58.1418,39.5622c.0209-.5094.3619-.9638.813-.9824.1496-.0066.3124.0341.4786.1375.022.406.0121.7789-.2211.9252-.0979.0022-.1958.0033-.2904.0022-.2849-.0022-.5534-.0209-.78-.0825M58.0252,39.5578l-.0033.0935.0891.0242c.2079.0561.4654.0837.8119.0858.0957.0011.1925,0,.2915-.0011l.0319-.0011.0275-.0165c.297-.187.2981-.6304.2761-1.0319l-.0022-.0606-.0528-.0319c-.1639-.1023-.3333-.1551-.5028-.1573-.5094-.0044-.9428.4885-.967,1.0969M53.3793,38.8108c.1177-.1287.2937-.2047.4918-.241.0792-.0143.1617-.0209.2475-.0231l.1265.0022.1287.011c.0847.0099.1683.0242.2497.044.2024.0496.3861.1266.516.2223l.0374.2112c-.0286.0528-.0737.1716-.1485.2882-.0737.1156-.176.2288-.3179.2717-.1122-.0187-.2277-.0319-.3454-.0451-.3498-.0395-.7074-.0726-.9901-.1782l.0044-.5632ZM53.2814,38.7283l-.0308.033-.0055.6975.077.0286c.275.1034.6139.1408.9417.1771.1452.0165.2948.033.4346.055l.0253.0044.0264-.0077c.2068-.0616.3157-.2652.3961-.4148l.0946-.1507.0275-.2057v-.1144l.0033-.0638-.0506-.0385c-.2464-.1826-.6612-.3014-1.055-.3059-.3883-.0022-.7019.1056-.8845.3059M50.3627,39.637l-.11.0605c-.1221.0506-.2739.0759-.4258.0737-.1012,0-.2024-.0121-.2937-.0363-.0924-.0242-.176-.0605-.2409-.1067-.1551-1.2135,1.4489-1.0286,1.0704.0088M49.3594,38.8955c-.1111.1254-.2332.3565-.1826.747l.0066.0506.0407.0297c.143.1034.3619.1639.6018.1661.2387.0022.4599-.055.604-.1563l.0308-.0209.0121-.0341c.1012-.2773.0825-.5358-.0506-.7272-.1188-.1738-.3245-.2783-.5479-.2805-.198-.0021-.3861.0803-.5149.2255M66.548,30.672c0,.0924-.0198.1793-.0528.2585s-.0803.1507-.1386.2101c-.0869.0902-.1991.153-.3256.1794l-.1287.0121-.1463-.0209-.0418-.0143-.0946-.0396-.0418-.0231-.0836-.0638-.0286-.0253-.0924-.1133.0143.0297-.0649-.1276-.0385-.1276-.0011-.0044-.0143-.1408c.0022-.1837.0748-.3488.1914-.4687l.0132-.011c.1166-.1122.2706-.1804.4412-.1793l.1287.0143c.2904.0649.5072.3345.505.6557M65.702,29.8457l-.1342-.0154-.1254-.0385c-.2409-.1035-.4082-.3411-.406-.6172.0022-.2311.1221-.4324.3003-.5501.1078-.0715.2376-.1122.3763-.1111.1386.0011.2673.044.374.1166.1771.121.2937.3245.2915.5545-.0011.1375-.044.2662-.1166.3718-.1221.1761-.3278.2905-.56.2893M65.0782,29.8776c.2255.8031.2783,2.3004-.176,2.9451-.0374-.8251-.1991-2.2333-.4665-2.879-.5314-1.2817-1.7019-2.5359-3.4027-2.5997-2.0826-.077-4.0826,1.6117-5.7944,1.6623.417-.582,1.6183-.3674,2.0056-.9813-.0814.1474-.0781.1507.0704.0726.6821-.3696,1.2971-.4522,1.9341-.769.4676.044.8097-.0396,1.0726-.2047,1.593-.0319,2.7328.3807,3.5579,1.1024.0231.56,1.0198,1.0143,1.1992,1.6513M64.0122,27.7929c.0044-.4015.3069-.725.6777-.7228.3707.0044.6678.3322.6645.7349s-.3069.7261-.6777.7217c-.3696-.0022-.6678-.3312-.6645-.7338M63.6194,27.4243c-.0649.0506-.1386.0869-.2167.1045l-.1221.0132c-.0836-.0011-.1617-.0209-.2332-.0572-.0726-.0363-.1375-.088-.1914-.1529l-.0726-.1045c-.0638-.1133-.1012-.2486-.099-.3949,0-.1452.0396-.2805.1056-.3917l.0748-.1034c.055-.0627.1199-.1144.1936-.1496.0715-.0353.1518-.0539.2343-.0528l.1221.0154c.0781.0187.1507.0561.2145.1068.0957.077.1716.1859.2156.3124.0308.0836.0462.1771.0451.2739,0,.098-.0187.1892-.0495.274-.0473.1254-.1243.2321-.2211.3069M61.659,27.0459c-.3707-.0033-.6689-.3091-.6656-.6821s.3069-.6733.6777-.67c.3696.0033.6678.3091.6645.6821-.0033.3729-.3069.6733-.6766.67M60.5104,26.4936c-.0033.3927-.3289.7096-.7283.7052-.1001,0-.1947-.0209-.2805-.0583-.1727-.0726-.3091-.2112-.3807-.3829-.0363-.0858-.0561-.1782-.055-.2772,0-.099.022-.1914.0594-.2773.0748-.1694.2145-.3059.3872-.3752.0869-.0352.1826-.055.2816-.0539.3994.0033.7195.3257.7162.7195M58.6303,27.0184c-.0022.2431-.1188.4555-.2959.5809-.1056.0737-.2321.1177-.3685.1166l-.132-.0165c-.3003-.0671-.5237-.3531-.5204-.6931.0033-.3399.231-.6216.5325-.6843l.132-.0132c.1364.0011.2629.0462.3663.1221.1738.1287.2882.3444.286.5875M57.0945,27.7236c-.0033.341-.2761.6149-.6106.6116-.3333-.0033-.6018-.2816-.5996-.6238.0033-.341.2761-.6149.6106-.6116.3333.0033.6029.2816.5996.6238M55.7149,26.1493c-.011.0946.0132.6865-.0363.8141l-.0418-.0198c-.2222-.0891-.3014-.2222-.9175-.3399l-.2882-.0055.0077-.6458.0231.0022.1023.011.0726.0088c.0781.0099.1749.0231.2772.0374s.2112.0297.3157.0451c.0693.0121.1375.022.2002.0341.1243.0209.2288.0407.2849.0583M55.6962,26.0283l-1.2641-.1706.0132-.3609.0022-.1881.0022-.2266-.0033-.1332-.0055-.2002s.0209-.0022.1199.0044c.8108.055,1.1353,1.2751,1.1353,1.2751M54.4299,23.433c-.1958-.6227.286-.6337.5875-.8438l.044-.022c.3542-.2486.5787-.6821.8812-.7613.1749.8405.1408,1.6458-.1628,2.3532-.4687-.2244-.857-.5258-1.3499-.7261M53.9503,22.565c-.6447-.4434-.8086-.8878-1.1926-1.5017l-.0198-.0704c.6733-.4675,1.6832-.1958,2.3642.0396-.1012.6656-.8394,1.747-1.1518,1.5325M53.7214,22.6618c.1727-.011.3972-.0187.5644.0539.033.2475.077.7459.077.7459,0,0-.4962.0429-.7382.0055.0209-.2795-.1144-.7921.0968-.8053M53.6378,23.642c.2508-.033.5413-.0605.8614-.022.187.264.3883.4818.4346.8845-.5512-.0319-1.2795-.0462-1.8493.0682-.1078-.1309.4434-.8009.5534-.9307M53.2847,24.7466c.099-.0132.1111-.0044.1111-.0044l.0055.2618.011.1728.0121.3157.0099.2508.0055.088-1.1133.2805s.1342-1.253.9582-1.3653M52.3309,26.2549c.2002-.0924,1.0385-.2883,1.1034-.2992l.0407.6106-.2079.0374c-.4048.1397-.549.1969-.6689.2772l-.121.0925-.0605-.2872-.0341-.1067c-.0275-.1155-.0374-.253-.0517-.3245M52.4673,27.5058c.198.0011.3564.1848.3542.4092-.0011.2245-.1639.4049-.3619.4038-.198-.0021-.3564-.1859-.3542-.4093.0011-.2255.1639-.4059.3619-.4037M52.5267,28.9117c-.8086.0462-1.4621-.7261-2.3455-1.0198-1.6645-.5522-4.2113-.2541-5.4336,1.0946-.6436.7107-1.3147,2.1002-1.0297,3.4875.0935.4522.6623,1.0341.2739,1.3587-.2101-.0209-.2651-.461-.3509-.7173-.6205-1.8592.1287-3.6525,1.483-4.734l.0066.0011c.2761.0021.5182-.1761.6568-.4445.176-.099.3586-.1859.5457-.2607.0935.0506.1958.0792.3047.0804.2365.0011.4478-.1321.5908-.34.7437-.1364,1.5336-.0935,2.3125.1837.2453.033.4005-.0253.571-.066.4048.1562.9175.5853,1.4203.7965.3751.1573,1.1177.033.9945.5798M51.2989,27.9018c-.2882-.0022-.5204-.2662-.5182-.5897.0033-.3234.2387-.5831.5281-.5809.2893.0033.5215.2662.5193.5897-.0033.3234-.2398.5831-.5292.5809M49.6993,27.4122c-.1496-.022-.2739-.1078-.3565-.2278-.0418-.0594-.0715-.1287-.088-.2024-.0176-.0748-.0209-.154-.0088-.2343.0121-.0814.0385-.1563.0759-.2223l.143-.1683c.0847-.0694.187-.1122.2959-.1199l.11.0033c.1485.022.2739.1078.3553.2288.0825.1199.1221.275.0979.4367-.0473.3234-.3278.5501-.6249.5061M48.5211,27.1108c-.0748.0385-.1562.0616-.242.0671l-.1298-.0055c-.088-.0143-.1694-.044-.2398-.0891-.2145-.1331-.34-.3917-.2992-.6633.0539-.3653.3817-.6183.7327-.5666s.5919.3883.5391.7525c-.0341.2278-.1749.4126-.3608.505M47.2922,26.8082c-.0231.1551-.0858.2938-.176.4038l-.0979.099c-.1067.0891-.2343.1452-.3696.1562l-.1375-.0055c-.1859-.0275-.341-.1353-.4412-.2893-.1023-.154-.1496-.3542-.1188-.5622.0539-.3641.3278-.6337.6436-.659l.1375.0044c.0935.0132.1782.0473.253.0979.2244.1496.3531.4422.3069.7547M45.9071,27.4684l.1386.0308c.0165.1782-.0264.2938-.1925.2838.0319-.0979.0495-.2035.0539-.3146M45.7003,27.4772c-.0165.11-.0484.2112-.0935.3014l-.077.1265c-.0847.1177-.1947.2046-.3135.2475-.0803.0297-.165.0408-.2497.0275-.0858-.0121-.1639-.0473-.231-.0979-.0682-.0506-.1265-.1189-.1716-.1992-.0913-.1595-.1309-.3685-.0979-.5875.0231-.1639.0847-.3113.1705-.4279.1133-.1563.2695-.2585.4368-.2773l.1265.0022c.341.0506.5644.4467.5006.8845M44.28,28.783c-.0033.3884-.2673.7019-.5908.6986-.3223-.0033-.5809-.3202-.5776-.7085.0033-.3884.2684-.7019.5908-.6986.3223.0022.5809.3202.5776.7085M43.1216,29.5487c.1584.0484.3487.0649.4786.1408-.0231.1551-.0803.2773-.1342.3993-.0275-.2288-.1573-.4257-.3443-.5401M43.2745,30.2077c-.0022.0946-.0187.1837-.0484.2651l-.0539.1156c-.0418.0726-.0957.1353-.1562.1837-.0924.0726-.2035.1144-.3223.1144-.1188-.0011-.2288-.0463-.3201-.1199-.0605-.0496-.1122-.1133-.1529-.1859l-.0528-.1166c-.0275-.0825-.0429-.1716-.0429-.2662.0033-.3773.2629-.6821.5809-.6788.3168.0022.571.3114.5688.6887M43.2569,32.1285c-.0022.2211-.1067.4148-.2662.528-.0957.0682-.2101.1078-.3322.1056l-.1199-.0132c-.077-.0176-.1485-.0517-.2112-.0979l-.0869-.0792-.0165-.022c-.0957-.1144-.154-.2651-.1529-.4312.0011-.088.0187-.1716.0495-.2486.0913-.2278.3036-.3872.549-.3851.1452.0022.275.0606.3762.154l.0825.0913.0836.1496c.0297.0759.0462.1606.0451.2486M43.071,33.0119l.1254.0143c.2849.0649.4962.3356.494.6579-.0033.3224-.22.5886-.505.648l-.1265.0122c-.2596-.0022-.4797-.1716-.5732-.4115-.0308-.0803-.0473-.1672-.0462-.2597,0-.0913.0187-.1793.0506-.2585.0979-.2387.3212-.4048.5809-.4027M43.4153,34.4696c.4687-.1232.648-.5401,1.2179-.5599.1672.7679.0132,1.7723-.5171,2.065-.2882-.4478-.5215-.9505-.7008-1.505M44.8301,35.9813c-.0143.2244.187.2399.1375.5006-.0957.0704-.2156.1155-.2871.2112-.3124-.1045-.4412-.8339.1496-.7118M44.7487,37.0506c.0341-.1903.2816-.3542.4302-.2112-.0616.154-.1782.2519-.4302.2112M44.7916,37.3928l.8284.5093-.0528.0198-.7316.1959-.044-.725ZM44.95,38.516l1.3246.0109,2.2157-.1661,2.0716-.1937,1.1254.0099c.1001-.0099.2123-.0055.3267.0022l.1419.0022,1.1189-.11.9307.0077,2.2982.0198,1.5523.0132,1.2201.1309,1.8405.1552,1.4676.2717.8471.1728.2178-.0209-.1518.4808c.0066-.0957-.0022-.1837-.0396-.2508l-.0198-.0353-.0363-.0154c-.0935-.0407-.1859-.0616-.2739-.0627-.2585-.0022-.6106.1683-.8207.989l-.0583.2278.2167-.0913c.1375-.0561.3388-.0616.4984-.0605.0781,0,.1584.0033.2376.0055l.0781.0033.0319-.0715.0187-.0407-.0264.1364-.0209.1452-.0506.0055-1.055.0946-1.6975-.0154-1.7195.1298-2.1112-.0187-1.7998-.1188-2.2146-.0605-1.9242-.0165-2.0496.0022-1.4918.1111-.7041.1397-.4247.1034-.5105.1111-.2486.0253-.1089-.7052.0418.0737c.1221.1815.2882.2816.4676.2926v.0033l.0143-.0022.0088.0022v-.0022c.3576-.0077.5908-.2508.5941-.6271.0022-.198-.0605-.4048-.1716-.5699-.1221-.1804-.2882-.2816-.4676-.2926v-.0022l-.0143.0011-.0099-.0011v.0022c-.2937.0055-.5006.1728-.5677.4401l-.1177-.7712ZM45.4979,38.9715l.1056-.0154c.2453-.0066.4863.1904.5677.4852.0935.3355-.0561.6711-.3344.7481-.2783.0781-.5798-.132-.6722-.4687-.0935-.3366.0561-.6721.3333-.7492M63.2058,39.8923c-.2926-.0099-.5853-.0187-.7855.0649l.0495-.1749.0671-.1804.0825-.1738c.0605-.11.1353-.208.2244-.275.1331-.1012.3014-.1353.5116-.044.0924.1639-.0561.5808-.1496.7833M63.7899,38.429c-.352.4225-1.1177.033-1.7118-.0858-.659-.1309-1.4291-.2497-1.9946-.3025-4.9385-.461-10.4965.1353-14.9894.3685.5259-.638,1.4522-.2728,2.1431-.3377.4192-.0396.7349-.154,1.1441-.23.8141-.1507,1.9671-.2299,2.7845-.1892.3707.0176.736.0506,1.0957.0407.3906-.0099,1.4181-.1848,1.5369-.2046.692-.121,1.5875.0781,3.2201.0968.9626.011,2.0936-.1904,2.9253.0264.5875.1529.9857.5017,1.5655.5127.7756.0154,1.7668-.538,2.2806.3047M63.8879,37.9527l-.1639-.0253v.0022l-.0264-.0066-.6755-.1056-.0627-.0143.9054-.5919.0231.7415ZM63.9484,36.6468c-.2387,0-.4753-.0044-.4258-.2882.0968.1408.4302.0484.4258.2882M63.9308,36.3542c-.1375-.0011-.2552-.0869-.3047-.2079l-.0297-.0022.011-.0605-.0055-.0639c.0022-.1826.1518-.33.3344-.3289.1826.0021.3311.1518.3289.3344-.0011.1837-.1507.3312-.3344.329M61.8834,36.2013c.0836-.7305.3421-1.2839.5864-1.8504.5633.2486,1.0154.6061,1.0583,1.3652-.2695.4445-1.1122.3917-1.6447.4852M61.1848,34.3398c.2453.3521.0341.8933-.011,1.3554-.2376-.2376-.2145-.7327-.5633-.8614-.2354.0968-.6106.0506-.7162.2795.0143-.3939.56-.8691,1.2905-.7734M57.0428,34.7315c-.3597-.9428,1.7954-1.5402,1.7151-.1992-.5039-.3091-1.3697-.22-1.7151.1992M55.9085,33.8656c.2926.1783.1133,1.0562.0594,1.3554-.4423-.0837-.6194-.428-1.1364-.4379.0264-.6436.6623-.6689,1.077-.9176M64.9033,33.5862c-.3135-.0693-.4874-.275-.9263-.2211-.308.374-.1694,1.0924-.2299,1.8526-.4213-.363-.7338-.835-1.2751-1.0814-.4621.4653-.6436,1.2179-.8031,1.9913.3752.5215,1.7899-.1089,1.7701.0143-.363,2.2586-3.2432,1.7393-3.9077-.3179-.0407-.1276.3003-.2542.0033-.3564.2178-.1442.6403-.3036,1.0737-.4203.2464.2542.3685.6293.4192,1.0748.4918-.1937.6535-1.604.1595-1.9252-.4654-.0418-.8042.0451-1.0022.2761-.1188-.7073-.0385-1.6117-.3377-2.1431-.4489.406-.703,1.011-.9417,1.6338-.7998-1.0353-2.241-.0694-2.0793,1.0517.527-.6161,1.7756-.7646,2.0694.1606-.297.3168-.0506.3597-.1485.6414-.3972,1.1298-2.0188,1.5259-3.0144.901-.5171-.3245-1.11-.8581-.9747-1.7206.5072.0187.703.3454,1.2102.3663.4082-.2761.3861-1.1408.3003-1.7096-.7228.0088-.9934.4774-1.6469.5567.1177-.5435.5842-1.076.1573-1.5688.3917-.2959.2486-1.1375.5127-1.5655.8207-.2189,1.626-.2585,2.6458-.6909.8438-.3565,1.4214-.8724,2.2179-.6942.4896.11.9351.7756,1.4192,1.011.8922.4346,1.8988.2355,2.4192.878.3212.3972.5952,1.0748.6282,1.5754.0077.2277.2618.2145.2816.4301M55.2341,29.3628c1.7569-.4665,4.5689-2.3257,6.866-1.6524,1.6304.4786,2.6733,2.5127,2.5985,4.8043-.3487-.6249-.8405-1.6139-1.2872-1.6018-1.7118.0484-2.3224-1.2707-3.4677-1.4368-1.6271-.2354-2.604,1.7701-4.7196,1.0286-.1166-.3487-.044-.6799.0099-1.1419M55.6764,28.3287c-.0011.143-.0781.2662-.1848.3179l-.1155.0253-.0594-.0066c-.077-.0198-.143-.0737-.1848-.1485l-.0429-.1232-.0055-.0704.0066-.0704.0451-.1232c.044-.0737.11-.1265.187-.1441l.0605-.0066.1155.0286c.1056.0528.1793.1771.1782.3212M44.0732,32.6918c-.6205-1.142.0198-2.6931.6722-3.4193.7954-.8867,2.1464-1.461,3.7251-1.538,1.5677.153,3.0793,1.1233,4.2653,1.6788.0726.4005.0781.8669.0594,1.3565-.3399.1155-.3542-.2409-.7811-.3641-.5875-.1706-1.3444-.3245-2.065-.4467-.4093-.0682-.8262-.2509-1.2113-.2244-.6458.0451-.945.6304-1.5776.8427-.4203.1419-.8097.0121-1,.0627-.5622.1507-.5974.2134-1.4918.8185-.1826.1232-.5853.6667-.5952,1.2333M45.6981,34.561c.395.3498.5523,1.2871.4115,1.9308-.3256.0374-.4434-.1309-.7844-.0781-.5523-.6359-.0176-1.3884.373-1.8527M44.906,35.4103c-.2024-.5798.1826-1.736-.5556-1.7889-.3355-1.4291.1716-1.8615,1.0946-2.406.6634-.3895.6997-.275,1.4984-.3542.7613-.0759,1.1662-.9638,1.7932-.9836,1.4379.5237,3.6371.1826,4.1255,1.4632.1562.4082-.1782,1.0231.4885,1.3598-.1254.5258-.0308,1.1265.2717,1.4302-.3245.1056-.692-.3553-1.066-.4367-.5039.3883-.2739,1.4423-.088,1.9252.4841-.1552.8856-.395,1.3609-.5589-.099.2553-.2453.5182.066.6425-.3234.9054-1.4027,1.9351-2.6513,1.2618-.6095-.329-1.2993-1.0209-1.3455-1.2256l.0759-.4984c.3047-.6061,1.4159-.4081,1.7107.1573.3091-1.2234-1.2234-2.2453-1.9154-1.3015-.0187-.9472-.6326-1.3114-1.1265-1.7932-.1463.5226-.1606,1.1794-.1584,1.8537-.4048-.1012-.7184-.0561-1.0704.0616-.3223.3531-.4203,1.4247-.1606,1.9252.2772-.6766,1.197-1.263,1.7899-.626.2937,1.7393-1.9605,2.1827-3.6525,1.6095-.0924-.1298.066-.3598-.0671-.571,1.6777.7723,1.077-1.6689.5193-2.208-.4632.2002-.5666.7679-.9373,1.0617M44.8906,37.1947c.3091-.165.5479.1914.8394.2762,1.3598.395,3.2674-.099,3.5227-1.3796.1012.0066.2013.0132.2156-.0704.0176,1.8823-3.3576,2.5116-4.5777,1.1738M50.6278,37.3499l-.1793.0924-.2563.0528-.7723.0187-.4203.0473-.1177-.0011.0627-.077.5072-.6909.11-.3927.0429-.2145.1573.2673.1859.2519.2453.2497.1859.1485.1628.1496.0858.098ZM49.7565,35.5247c-.0374.2244-.3267.1947-.5006.2805.0396-.2233.2673-.2552.5006-.2805M48.6916,35.0869c-.099.1144-.4951-.0649-.7866.0066-.1551.1782-.3905.2597-.5028.4818-.2123-.3157-.0506-.7789.0099-1.1419.2882-.1628.8339-.3147,1.1056-.0561.0209.2871.0099.5633.1738.7096M48.7136,32.5895c.7327.4136.9791,1.6744.8317,2.7185-.1331.0088-.2387.0451-.286.1397-.5853-.5897-.6876-1.7548-.5457-2.8582M51.2263,34.1946c.0704.3455.2563.6216.3245.8438-.1991-.1353-.6315-.2916-.879-.3796-.4885.2145-.7096.2102-.8405.5809-.2981-.8757.4984-1.7283,1.395-1.0451M54.6125,35.2101c-.0341.253-.4324.1353-.5732.2805-.2013-.209.2816-.3355.5732-.2805M54.1879,34.8492c-.0616-.1276-.198-.1826-.1386-.4291.1672.0033.2112-.121.428-.0682.0616.3267-.1221.4038-.1485.6414-.2035.0121-.3884.0055-.3542-.2178.0572.0385.1155.077.2134.0737M53.7632,34.4179c.0781.7591-.8977.802-1.2212.9164-.143-.3388-.0616-1.0044.0121-1.3554.4995.0506.7459.351,1.2091.4389M54.7754,32.9273c.0242.5049-.1815.7756-.2948,1.1398-.6689.2321-1.0913-.2464-.989-1.1508.4709-.0319.9384-.0132,1.2839.011M53.87,31.8535c.1892.0022.341.1606.3399.3543-.0022.1936-.1562.3509-.3465.3488-.1903-.0022-.3421-.1607-.341-.3543.0022-.1937.1573-.351.3476-.3488M54.2187,31.1615c-.0011.1947-.1562.3498-.3454.3487-.1221-.0011-.2266-.066-.2871-.1639l-.0099.0011-.0011-.0197-.0429-.1716c.0022-.1947.1573-.351.3465-.3488.1892.0022.3421.1595.3399.3543M53.8876,29.7874c.1903.0022.3421.1937.3399.4279-.0022.2343-.1573.4236-.3476.4213-.1892-.0011-.341-.1925-.3399-.4279.0022-.2332.1573-.4224.3476-.4213M53.8986,28.1185c-.2244-.0021-.4049-.1375-.4038-.3025.0011-.1639.1848-.2959.4093-.2938.2244.0022.4037.1364.4026.3015-.0022.1639-.1837.297-.4081.2948M53.8964,28.6686c.1914.0022.3432.165.341.3653s-.1573.3619-.3465.3598c-.1892-.0011-.3421-.165-.3399-.3653.0011-.2002.1562-.3609.3454-.3598M59.462,35.6798c-.2618.022-.3961-.0825-.5699-.1475.0891-.1287.6623-.1364.5699.1475M59.7007,32.7567c.1045.9154.297,2.208-.4511,2.5645-.5094-.6194.055-1.9913.4511-2.5645M58.7975,36.8152l.3598-.4687.6293,1.0133.0407.0803-1.5798-.0935.5501-.5313ZM54.1307,36.7579c.1441-.1969.2156-.6722.2156-.6722.0715.1166.3872.89.9703,1.065.4907.1485-1.6645.1618-1.7063.1706,0,0,.3157-.2828.5204-.5633M49.6828,35.8801c.5699.1914.9802,1.154,1.9296,1.3509.9637.2002,1.6293-.1782,2.0672-.6964.2288-.2695.3234-.7217.5732-.9714l.1419.0011c.4676.6656.9791,1.395,1.7789,1.5248.8141.132.9285.1243,1.5578-.0727l.22-.0649c.5842-.2805.5842-.8262,1.1848-1.077.5556.7469,1.0781,1.67,2.0199,1.7921.5501.0715.6843.0539.9989.0352.5996-.0352,1.0803-.8031,1.6491-.8416.3212-.022-.9329.6755-1.2938.9879-1.0957.2123-1.9231-.1573-2.6359-.5226-.2552-.4093-.4742-.8548-.7734-1.2201-.5809,1.9385-4.4809,1.4709-4.7779-.3983-.1199,2.5942-4.3555,2.0078-4.6404.1728M54.299,26.5035l-.0946.0946c-.0649.0253-.1474.0154-.2596.0143l-.0792-.0011c-.0858-.0033-.1837-.0176-.253-.0671l-.0253-.5248-.0407-1.2871.3718-.033.374.0341s.011.6766.0132,1.1937c.0011.1034.0011.2002.0011.2838l-.0011.1155c-.0011.1034-.0033.1705-.0066.1771M55.6104,27.2252c.033.1507-.0407.4048-.0022.5489-.0638-.0341-.1331-.0561-.209-.0561-.2673-.0022-.4874.2376-.4896.5368-.0011.0957.0242.1937.0638.2805-.0396.67.1353,1.6117.1056,2.3246-.0341.8339-.0594,1.7019-.8724,1.8483-.2838.0054.1331-.3455.1474-.4973-.0979-.1639-.0748-.4467-.3531-.4324.0671-.2662.2937-.3719.3619-.6392-.3939-.5589.3443-1.219-.3432-1.5721.11-.2255.363-.3025.363-.6392.044-.3267-.2354-.3345-.352-.5027.0143-.3213.406-.2586.4324-.5677-.033-.7195-1.1166-.5654-1.143.0616.0594.2497.2563.3619.4962.4324-.0968.3212-.4137.4126-.4346.7107-.0187.2805.3212.264.3531.5017.0099.0737-.275.4191-.2904.4973-.066.3366.1672.8306-.0814,1.1408.044.2167.1078.4136.3532.4312-.099.1871-.3025.2685-.3609.4973.0264.2332.0583.462.2816.5017-.7415-.0594-.7459-.9197-.6964-2.0045.0385-.8361-.1122-1.7613-.0517-2.2124.0594-.4555.2684-.9461-.3476-1.1453.5281-.9131,2.3598-.4841,3.0694-.0451M64.9748,33.9603c-.0814.2036-.3377,1.3257-.9329,1.5304l-.011-.0561c-.231-.4555-.0627-1.2696.0176-1.8229.0385-.0055,1.0484.0374.9263.3487M65.065,33.3486c.0022-.1276.0616-.2387.1507-.3047.0539-.0385.1188-.0616.1881-.0605.1848.0011.3333.1672.3311.3696-.0022.2035-.1529.3674-.3377.3652-.0693-.0011-.1342-.0242-.1859-.0638-.0891-.0671-.1463-.1804-.1463-.3059M65.5194,32.8216c-.1551-.1199-.2563-.3234-.2541-.5523.0022-.1826.0693-.3476.176-.4665.1078-.1199.2541-.1925.4159-.1914.3245.0033.5842.3025.5809.6689-.0022.2288-.1056.4291-.2629.5479-.0946.0704-.2079.1111-.3289.1101-.121-.0011-.2343-.044-.3267-.1166M53.464,23.0358l-.0011-.0055c.0308.4973-.6843.758-1.0352.8845-.2618-.7833-.4037-1.1353-.1243-2.0704.2629.154,1.1211.7128,1.1596,1.1859v-.0054l.0011.0109ZM66.0782,29.8579c.2211-.1354.3718-.3829.374-.6711.0044-.3983-.275-.7272-.6392-.7811-.4258-.1387-.9681.4081-1.0077.8537-.0759-.209-.308-.2135-.2882-.516.1969-.0055.3498-.0506.4665-.1244.2794-.1188.4775-.3971.4797-.7238.0022-.1244-.0286-.241-.0781-.3465-.11-.3158-.3916-.5424-.7283-.5457-.3113-.0033-.5809.1892-.7096.4665-.1089.1276-.1507.3102-.1375.5544-.0286-.1364-.1518-.1815-.1397-.3575.6117-.5435.2827-1.6371-.4137-1.6458-.7745-.0088-.3872.8086-1.0792.9902l.0033-.0407c.1826-.1475.3058-.3719.3091-.6172.0033-.4269-.5204-.7965-.9395-.8009l-.0858.0099-.1309.0143c-.5765.1452-.3729,1.0154-.7965,1.2773.0341-.1189.0495-.2255.0528-.3245l.0033-.0308-.0033-.0407-.0099-.088-.0055-.044c-.0198-.1001-.0583-.1849-.1089-.2586-.1485-.231-.4126-.3872-.7173-.3895-.3894-.0033-.7162.2443-.8218.5831-.1144.2365-.1111.5523.1089.9362-.0935.0715-.2629.0682-.3576.1397l.0121-.1859c.0165-.0649.0275-.1321.0286-.2024.0033-.4422-.3201-.802-.7239-.8064-.352-.0033-.6491.2674-.7206.6304-.2134.4555.4247,1.0012-.0286,1.1233l-.055-.1001.011-.1001c.0033-.3818-.3102-.692-.6997-.6964-.2607-.0022-.4863.1353-.6117.3388l-.1386.1166c-.1078-.4929.2651-.4984.2926-.8537-.1914-.7547-.5094-1.6843-1.0539-1.8648.3785-.1156-.099-.4808.0066-.7856.3543.077.472.3862.9241.3653.2398-.6084.5358-2.1067.0946-2.7107-.5611.1485-.6502.7778-1.2916.8449.0836-.5402.4224-.8185.5116-1.3521-.4874-.5952-2.2839-.7294-2.7119-.0231.2794.5336.8086.8427.9868,1.5072-.5435-.2211-.7679-.7547-1.2762-1.01-.4511.6007-.4115,2.2454.2629,2.5711.3939-.1034.6469-.7316,1.0759-.5622-.3234.2717-.67.5193-.6524,1.1376-.5303.3476-.6821,1.0825-.802,1.8471.0594.2717.3201.3465.2794.7173-.3509.1639-.4434.5753-.4357.923-.2387,0-.3763-.1013-.4973-.2178.2827-.0759.494-.3433.4973-.6656.0033-.3839-.2893-.6975-.6513-.7008-.3597-.0033-.6535.2992-.6634.6777-.066.1266-.154.2266-.3212.2509-.0528-.0594-.0407-.1761-.0132-.3114.0704-.11.1133-.242.1144-.385.0033-.3839-.2893-.6975-.6524-.7008-.297-.0022-.5479.2047-.6304.4907-.099.1639-.1628.3531-.1705.5368-.121.0044-.2145-.0165-.2783-.0693.1452-.1276.2409-.3147.2607-.5292.0473-.2288-.0187-.4148-.143-.5501-.1287-.1849-.33-.3069-.56-.3081-.1397-.0021-.2695.0429-.3796.1166-.3454.1496-.5512.5677-.1848,1.329-.1958.044-.2816.0066-.3157-.0682.0253-.0924.0429-.1903.0429-.2948.0055-.5291-.3366-.9604-.7624-.9648-.077-.0011-.1507.0165-.2211.0418-.4236.0847-.5435.5435-.6392,1.0341-.1342-.2685-.3729-.4489-.6458-.451-.3817-.0033-.6986.3378-.7657.7877-.1276.4158-.022.9274.2981,1.2453-.0715-.0011-.0847.0561-.143.0704-.3454-.274-.5006-.7338-1.2795-.5831-.3939.2212-.3972,1.1783-.3014,1.4885-.066-.0209-.1353-.0363-.209-.0363-.3807-.0044-.692.285-.7327.6557l-.0066.0627-.0022.0132v.0021c-.033.5468.4247,1.1596,1.2256.8108-.0242.2157.0748.5556-.1474.5699-.1705-.0671-.187-.2882-.4973-.2178-.8064.1683-.8713,1.6338.1276,1.6426-.6436.3993-.5193,1.7162.5567,1.5743.2552.8911.8086,1.4918,1.208,2.2399l.0044.0099c.2684.9803.4027,2.5666.6326,3.5403l.0506.3719c-.3135.0528-.5864.2685-.3839.6304.297-.0495.3839-.2211.4599-.3972l.2409-.0462.7745-.1023.0242-.0165.0044.0044c.8845-.1705,1.8009-.2805,2.7328-.3509l1.6634-.0022,1.9318.0176,2.2223.0605,1.8064.1189,2.1189.0187.3025-.0231c.4181-.0011.8328-.0253,1.2377-.0924l.1848-.0143,1.7041.0143,1.1639-.1771-.0154-.0055c.3598-.0539.6843-.1507.8647-.3345-.1518-.1771-.6579.1563-.7855-.0077.1408-.5765.3784-1.0551.6557-1.4929-.2541-1.6569.626-3.3566,1.1034-4.746.0649.0385.1386.0638.2178.0649.2541.0021.4621-.2223.4654-.5006,0-.1122-.0352-.2156-.0924-.3004l.066-.022.0429.0044c.3718.0033.6766-.3245.6799-.7327.0022-.209-.077-.3971-.2035-.5325-.0847-.1155-.2222-.1782-.2772-.3223.3487-.0495.6205-.3762.6238-.7789.0033-.4081-.2695-.7437-.6227-.7921M43.3504,41.9616c.22.1716.4687-.1089.5732-.2794-.2079-.2068-.5611-.088-.5732.2794M65.3279,39.8967c-.1078-.0132-.2123.0109-.2761.0869-.0352.0407-.0583.0957-.0627.1694.2266-.0077.5413.0737.5006-.2068v-.0033l-.1452-.0429-.0165-.0033ZM65.8461,40.0177c.1507-.0231.2915-.055.4126-.1078.0935-.0407.1749-.0935.2321-.1716-.0979-.0847-.242-.1023-.3741-.0781-.2211.0396-.4048.1969-.2706.3576M55.496,73.1111c-.3124.0704-.3278-.1507-.4984-.2178.1166-.2893.1518-.6623.5765-.6381-.0539.4191.1298.6425-.0781.8559M55.8491,73.4708c.253-.4532.319-1.2827-.1287-1.571-1.1805-.0319-1.5138,2.1343.1287,1.571M57.1803,68.1307c-.3366.0715-.3575-.1683-.4973-.2905.2167-.1628.1353-.6304.5754-.5654-.0737.3971.1694.6821-.0781.8559M57.4619,68.5609c.352-.3322.4291-1.3972-.0572-1.6414-.7096.0913-1.2223.8317-.9406,1.4896.2222.1595.5974.1683.9978.1518M58.792,63.2208c-.2475.1254-.4676-.0088-.5688-.22.0803-.2783.2673-.7514.5765-.5654-.0561.352-.0572.4323-.0077.7855M59.0747,63.5794c.242-.3707.1859-1.1915-.0583-1.4995-.6194-.1178-1.0605.5456-1.2234,1.132.1155.4246.8328.704,1.2817.3674M60.3322,58.5958c-.3366.0715-.3576-.1683-.4973-.2904.2156-.1639.1353-.6293.5754-.5654-.0737.3971.1694.6821-.0781.8559M60.6138,59.026c.352-.3322.4291-1.3983-.0572-1.6414-.6755.0814-.9263.593-1.0803,1.2035.0946.0473.1309.1529.1397.286.2222.1595.5963.1683.9978.1518M45.2976,72.2376l-.143-.0022c-.0044.1034.0099.1871.0462.2497l.0429.077c.3785.4104.7371.9154,1.0132,1.4808.0869.1804.1661.3674.2343.56.0671.1914.0594.4906.1683.6997.0583.1364.1562.2431.3421.2717-.1364-.6942-.3432-1.318-.6249-1.8703-.2816-.5654-.6392-1.0562-1.0792-1.4665M39.4559,65.2329c1.2707.7789,3.252,1.912,5.2697,1.2585-2.3884.1068-3.823-.6556-5.339-1.5446-.0066.1244.0143.2223.0693.286M38.1159,63.3649c-.8174-.8229-1.7635-1.5204-2.3323-2.5886-.1628-.022-.2684.0142-.2871.1408.6876.9538,1.5325,2.1233,2.6194,2.4478M37.2545,63.9282c-.1045-.0825-.1793-.0837-.2849-.0022.6249,1.0121,1.5314,1.7492,2.6921,2.2366-.6876-.8581-1.8009-1.296-2.4071-2.2344M38.3381,62.5112c.5996,1.2179,3.2135,2.0693,5.196,1.472-.0803-.0154-.11-.0803-.1408-.1441-2.0661.4455-3.9143-.4071-5.0552-1.3279M41.4427,61.5651c.3256-.1706.7514-.2409.7844-.7107-.4445-.2112-.9395.3124-.7844.7107M43.1139,62.0579c-.4291-.5666-1.3301.0693-1.56.4653.4632.2288,1.3752-.0198,1.56-.4653M44.5715,49.9145c.3289.4775,1.9033.8406,2.1497-.0462-.5391-.2079-1.4566-.3004-2.1497.0462M38.787,52.413c.1969-.4698-.2838-.8152-.6601-.956-.132.4312.1562.9175.6601.956M40.2898,51.1643c-.2904-.3531-.8559-.7371-1.3917-.6842.0847.5049.9989,1.3333,1.3917.6842M65.1629,41.1486l-.0044.0021.0011-.0033.0033.0011ZM65.1552,41.1475l-.1254.1001c-.2794.2233-.6172.3257-1.0638.3212-.2453-.0022-.5281-.0352-.9142-.1078l-.0495.0099.011.0781-.0099.153-.088.0429c-.0836.0021-.1661.0044-.2453.0033-.2244-.0011-.472-.022-.6337-.1485l-.0473.0187.0473.0957.0462.1738-.0869.0616-.0275.0011c-.2772-.0021-.4775-.0792-.6733-.154-.1848-.0693-.3598-.1364-.5985-.143.0143.0462.0638.0869.132.1386.066.0506.1276.0968.1254.1694l-.0759.1101-.0132.0088-.0143.0022c-.1199.0176-.2321.0264-.3443.0252-.2937-.0033-.5204-.0704-.7404-.1364-.1584-.0462-.308-.0902-.4819-.1144l-.0099.0055.0308.0319c.0594.0539.1562.1452.1001.2761l-.0154.0353-.0374.0066c-.1023.0176-.2079.0253-.3135.0253-.3025-.0022-.5677-.0825-.8009-.154-.198-.0605-.3895-.1199-.5578-.1133.0374.0297.0902.0528.1573.0792l.1903.0979.0814.0639-.0902.0517c-.1078.0626-.2541.0935-.4335.0924-.4115-.0044-.9263-.1727-1.2476-.285.0099.1463.1287.1794.3322.2212l.1936.0495.187.0649-.187.0661c-.1067.0385-.2189.0571-.3333.0561-.2926-.0022-.5655-.1276-.8295-.2475-.1276-.0594-.2497-.1156-.3674-.154.0011.0902.0605.1166.154.1573l.1056.0517.077.0484-.066.0616c-.1089.1056-.2717.1595-.4709.1585-.3091-.0034-.659-.1419-.8636-.3378l-.0055.0143.0572.1463.0484.1738-.0836.0649-.0077.0022h-.0099c-.2618-.0044-.4973-.1189-.7052-.22-.1573-.0759-.3047-.1485-.4291-.1529.0176.066.0737.0957.1661.1364.1056.0462.2486.1111.2541.3004l.0022.0847-.0836-.0132c-.2299-.0352-.4577-.0858-.637-.1936l-.1716.1056c-.0737.0451-.1617.0715-.2464.098-.0957.0286-.1859.0572-.2475.1067l-.2288.1837.121-.2673c.1155-.2552.2343-.5182.2145-.7482l-.0011-.0165.099.0033c2.8208-.1155,5.4787-.329,8.0596-.7404.8295-.1309,1.6469-.1837,2.4313-.2739.2178-.0253.4115-.0638.6469-.0616.4401.0044.8735.0539,1.3334.1068l.3091.0418ZM52.2351,42.0749l-.0374.1012c-.5435,1.4555-2.4775,1.7448-4.0034,1.7317-.1419-.0011-.2871-.0055-.4324-.0122l-.0528-.0021-.0121-.0517c-.0319-.1375.011-.208.0451-.2662.0297-.0484.0484-.0792.0297-.1618l-.0209-.0913.0924.0055c.1518.0088.2992.0143.4379.0143.9648.0088,1.6546-.1551,2.1046-.5017-.1386-.1529-.3223-.2255-.5721-.2277-.2882-.0033-.6172.0913-.9362.1826-.308.0892-.5996.1716-.8482.1695-.1551-.0011-.2805-.0353-.3795-.1045-.0451.1133-.0352.3004-.0253.4818.0077.1452.0154.296-.0033.4213-.187.5919-.813.7085-1.4181.8218-.3168.0594-.6414.1199-.8911.2476.2189.0066.4907-.0374.7492-.1023.2508-.0638.4764-.1067.6821-.1056l.1738-.0187.0297.0066.0154.0275c.22.3839.253.7294.099,1.0253-.3718.7129-1.7173.9219-2.3323.9814l-.0121.0429-.0176.0902c.0011,0,.022.0154.1166.0187l.0473.0011c.2794-.0957.5985-.1309.8416-.2288.2596-.0572.5127-.1441.7217-.2497l.0583-.0297.033.055c.1782.2937.2508.5556.2211.7844l.1254-.0275c.297-.0341,1.2498-.0726,1.945-.1199.6029-.0286,1.175-.1243,1.5556-.2068l.0737-.0374.0099.1144c-.1364,1.2454-1.3994,1.3785-2.3378,1.3707-.5105-.0044-1.0506-.0594-1.5259-.1089l-.3003-.0297.0198-.0781c.088-.3598.4896-.3983.7844-.396.2013.0021.4247.0242.6601.0495.2398.0253.4874.0495.7162.0517.4126.0044.6766-.0737.8262-.2421-.0968-.1628-.2981-.2409-.6282-.2442-.2255-.0011-.4797.0308-.7261.0627-.2376.0308-.4621.0594-.6557.0583-.2112-.0021-.3531-.0407-.4478-.1232l-.0968-.0836c-.011.0759-.033.1475-.0671.2156-.3069.6161-1.3829.6942-2.142.7723.1034.0055-.1232.077.0165.0638.1309-.0132.5292-.0506.6579-.0495.1859.0011.319.0341.4214.1012l.022.0143.0077.0253c.0814.2926.0583.527-.0704.6964-.2728.3586-.9428.3586-1.5908.3586-.2882-.0011-.5644-.0011-.7778.033.1672.0396.4203.0451.6667.0495.1375.0022.2783.0044.4137.0132l.055.0033.0099.0539c.0088.0517.0165.1243.0176.2035l.1584-.1045c.2893-.1903.6403-.2761,1.1056-.2717.3399.0021.6832.0902,1.0363.1397.3597.0506.7536.0671,1.1034.0704.2123.0022.3983-.0176.5699-.0528l-.0198.1266-.1364.3135-.2772.4301-.1496.153c-.1782.1276-.395.2013-.6337.2365l-.3674.1056-.2024.3752c-.0638.088-.1496.1716-.2453.2508l-.0682.0539-.0176.011c-.3102.2057-.7283.3169-1.2146.3124-.4235-.0044-.8548-.0935-1.2366-.2365l-.5534-.2762c-.1738-.1122-.3256-.2343-.4335-.3696l-.0429-.0561.055-.0429c.088-.0671.1903-.1001.3146-.098.2266.0011.4951.1178.78.241.3223.1386.6887.297,1.0319.3003.1782.0011.3355-.0374.4808-.1177-.0473-.3267-.363-.3883-.7261-.4598-.2464-.0473-.5017-.0979-.6667-.2476l-.088-.0792c-.0902.0253-.1925.0374-.3069.0363-.286-.0021-.6106-.0858-.8988-.1595-.275-.0715-.538-.1353-.6854-.1166.0671.0594.1848.0814.3069.1045.1595.0286.3245.0594.417.1793l.0165.0209-.0022.0265c-.0297.4763-.3047.7261-.7943.7217-.4357-.0044-.9549-.1969-1.3334-.3378l-.1881-.0694.0231.0297c.2068.2629.4005.5115.2816,1.0066l-.0088.0363-.0363.0132c-.1991.0694-.3817.1023-.5589.1013-.4137-.0044-.7305-.2013-1.0649-.4103-.0792-.0496-.1606-.1001-.2453-.1497.0264.1023.1067.1485.2101.208.1111.0638.2002.1694.2761.2981.0429.33.0143.5248-.1089.7668-.1507.2002-.4016.3179-.67.3157-.2255-.0022-.4423-.0847-.626-.2387l-.0132-.011-.0066-.0165c-.1826-.6051-.2365-1.439.0187-2.5391l.0044-.022.0176-.0154c.3069-.2695.8207-.3026,1.3301-.2981.1485,0,.3003.0054.4522.0099.2706.0099.5512.0165.7613.0077l.0792-.0033-.0066.0792c-.011.1332.0396.2607.1496.3817.2376.2597.7316.4434,1.2014.4478.0979.0011.1925-.0055.2794-.0209-.0583-.44-.5006-.516-.9659-.5941-.132-.0231-.2684-.0462-.395-.0781l-.2266-.0572.22-.077c.1452-.0506.3058-.0858.461-.1199.242-.0539.4907-.1089.67-.22l.0341-.022.0352.0187c.5193.2773.9329.4126,1.2674.4158.1529.0011.2871-.0275.3983-.0847-.1133-.2838-.5567-.3477-.9197-.351-.1089-.0011-.2244.0033-.3432.0132l-.1419.0121.0781-.1199c.1034-.1606.2475-.2761.3873-.3895.1254-.1012.2442-.1969.3344-.3201l.0242-.0341.0407.0055c.1078.0132.2288.034.3575.0561.2673.0462.5699.0979.8405.1012.3641.0022.5963-.0858.7074-.2728-.1342-.1276-.319-.1848-.6051-.1881-.1111,0-.2277.0066-.3498.0132-.2002.011-.4214.0209-.6051.0044l-.0847-.0077.0242-.0825c.0506-.1727.143-.3014.2321-.4246.0814-.1133.1573-.22.2035-.3586l.0176-.055.0583.0077c.1738.0231.439.0517.7217.0539.5094.0044,1.1409-.0748,1.2718-.4731-.0176-.1551-.1419-.2168-.4379-.2189-.0748-.0011-.1529.0021-.231.0044-.1485.0055-.3003.0088-.4071-.0044l-.033-.0034c-.1089.0902-.2728.1101-.4313.1287l-.0902.0122-.1232.0176.0484-.1144c.1111-.2574.1177-.3741.1309-.6062.0033-.066.0066-.1397.0143-.2266l.0033-.0451.0429-.0154c.1452-.0528.3476-.0825.5831-.1155.4929-.0715,1.1023-.1595,1.2949-.5149-.0869-.1573-.2354-.2354-.4533-.2376-.4082-.0033-.9384.2652-1.219.4258l-.0704.0407-.0297-.0759c-.2244-.572-.0022-1.3301.2387-1.6381l.0198-.0253.0341-.0011c.6568-.0088,1.3873-.0682,1.857-.4412-.0517-.2431-.3763-.2827-.5721-.2849-.3532-.0033-.7404.1078-.879.2134l-.2167.164.11-.2486c.4599-.5908,1.5853-.8372,1.9759-.8889,1.0726-.143,2.3235-.2564,3.5205-.3059.5237-.022,1.0176-.0429,1.4962-.0715l.1067-.0055ZM38.5208,53.2909l.0594-.0407c.1078-.0727.2222-.1101.3399-.1089.2376.0021.4577.1584.67.3091.2068.1464.4203.2971.6392.2993.1067.0011.2112-.033.3157-.1034-.0022-.1937-.1199-.2607-.2695-.3465-.0704-.0407-.1441-.0825-.2046-.1419l-.1012-.0979.1397-.022c.2508-.0395.6106.1881.8097.4731l.1166.2233.0077.0231-.0066.0209c-.1694.5347-.5138.6447-.7723.6425-.6645-.0055-1.4126-.725-1.7019-1.0715l-.0418-.0583ZM40.1897,54.6451c.2167-.1155.5864-.0748.7162-.2794,3.8384,4.8824,8.0299,9.8682,11.6571,14.7221l.0594.1496c.0231.3597-.2717.5193-.4808.6435-3.8362-4.9319-7.9903-10.1917-11.9519-15.2359M50.6531,68.3178l1.3675,1.7734c.2486.0121.5765-.0418.7063-.3334.1826-.407.0869-.5875.0869-.5875l-1.5875-2.1452.5281-1.0374,1.5776,2.0144s.1045-.1518.2442-.3322c.4016-.5215.0693-.9109.0693-.9109-.4412-.6744-1.3862-1.9054-1.3862-1.9054l.5083-1.0067,1.5336,1.933c.2046-.3124.2695-.3752.4104-.6777.2112-.45.1089-.692-.1452-1.0033l-1.1948-1.5644.802-1.4115,1.3081,1.7713s.2123-.1045.4005-.4632c.2409-.4577-.0451-.9208-.0451-.9208l-1.088-1.4577.7965-1.6657,1.1144,1.3961s.099-.1518.2849-.494c.2937-.5379-.088-1.0484-.088-1.0484l-.7338-1.1111.7195-1.5193.9604,1.2421s.1507-.1122.3245-.4412c.209-.396-.0858-.8471-.0858-.8471l-.7118-1.0276.7173-1.4786.857,1.1167s.2827-.1067.3828-.5721c.0957-.4433.0088-.6601.0088-.6601l-.6964-.9945c.9461-1.7867,1.3488-4.7571,3.4743-5.3192.4081.6183.2002,1.6436.2002,1.6436l-1.5303,3.6261s-6.7307,17.182-10.0718,25.531c-.6887-.1705-1.4467-.2761-2.0639-.517.0583-.1573.1001-.3543.1243-.5743l.0011.0011v-.0066c.0836-.7404-.0176-1.7514-.2783-2.5072l-.0066-.0231-.0363-.099c-.0737-.2013-.1606-.3795-.2596-.5181l.0396-.1375c.9494-1.5964,2.461-4.7295,2.461-4.7295M47.7598,66.4827v-.0011l.0011.0011h-.0011ZM48.2955,71.6765c-.0583.2421-.1815.4808-.3388.6953-.8669.0088-1.5996-.615-2.0584-1.2311l-.0066-.011.0495-.0055c.1287-.0143.3069.0749.5138.1804.2299.1177.4896.2498.7162.2519.1342.0011.2442-.0451.3322-.143-.2827-.4895-.8658-.6821-1.4841-.8867l-.1804-.0594-.0143-.022c-.1056-.1694-.143-.3553-.1452-.5479.0231-.2981.0682-.5875.1056-.7976l.0165-.0891c.0264-.1375.0462-.2266.0462-.2266l.0099-.0374.0671.0264c.2266.0902.4092.2255.5875.3553.2794.2068.5457.4015.978.4357.0638-.1332.0759-.2509.0363-.3576-.1034-.2838-.5578-.4643-.9593-.6227-.2123-.0847-.4137-.1639-.5589-.2552l-.0297-.0187-.0022-.0352.0187-.0594s.0297-.2112.0506-.4665c.0143-.0726.022-.1518.0165-.2431l.0055-.1826.077.0231c.1452.0429.2871.1133.4379.187.2497.1221.5094.2497.7943.253.1067,0,.2101-.0165.3135-.0506-.0011-.0704.0044-.1497.0528-.1959-.2387-.4477-.7987-.5842-1.3906-.7283-.1452-.0352-.2948-.0726-.4379-.1133l-.0484-.1254-.231-.9021.0968.0308c.1001.0319.2046.0726.3157.1155.286.11.6106.2366.9274.2387.1045.0011.2002-.011.2926-.0363-.1331-.538-.8009-.5655-1.5061-.5952-.1133-.0055-.2255-.0099-.3366-.0176h-.0077l-.0385-.1221-.0253-.0363c-.0253-.1606-.1397-.3014-.2442-.4269l-.0539-.0693c-.0682-.1342-.1155-.2607-.0979-.3278l-.0066-.0055.0055-.0198.0627.0099c.077.011.1562.0275.2398.0429.1881.0375.3817.0759.5578.077.2167.0011.3652-.0539.4588-.1749-.1573-.1518-.3686-.2244-.6579-.2266-.2365-.0022-.4995.0429-.7536.0858l-.1595.0264c-.2904-.1936-.736-.4488-1.0968-.6106l.0176-.0088c.1595-.0891.3884-.0957.6304-.1023.1078-.0033.2145-.0054.3168-.0165v-.0022l.0044.0011c.2156-.0209.4049-.0759.5039-.2321-.1122-.1562-.3949-.2541-.7514-.2563-.4896-.0044-.9967.1815-1.0242.5006l-.1243-.0308c-.7602-.2431-1.6535-.3553-2.2762-.7338-.1089-.6678-.0176-1.8361.3652-2.4005.0759-.1089.1617-.198.2618-.2574l.11-.0473c.3587-.1034.6425-.0011.8064.2223.1364.2112.1738.516.077.857-.0154.0594-.0836.1452-.1672.2332-.2376.0451-.4104.153-.5171.3301.4731-.0363,1.4357-.5072,1.9076.0341l.0385.0539.0275.0396c-.0814.3839-.198.5237-.3949.6546-.1144.0704-.2475.1331-.3983.2244.6095.055,1.7888-.2068,2.2905.2288.0946.1012.1639.2332.2024.406l-.0022.0616c-.1771.2123-.5853.329-.9032.1761.0693.5225.8306.1771,1.2102.2255.3322.0418.6348.1706.8174.3586.1474.1783.1936.4104.0781.6876l-.0088.0275c-.4357-.0561-.8493-.132-1.2509-.2211.0704.4796.7756.3168,1.2102.4389.3179.0902.8207.264,1.0462.5633.0902.1364.1243.2959.0627.4841-.0253.077-.0594.132-.1012.1705l-.1738.1111c-.3587.022-.9186-.3796-1.2718-.2618.5006.3938,1.5325.5324,1.9803,1.0275.1177.1904.1958.3784.1958.5292-.0022.2145-.1518.3696-.2794.5644l-.1804.1419c-.5963-.2101-1.088-.7855-1.6579-.7635.5237.4643,1.8218.9274,2.0001,1.6755l.0121.0715c.0341.2453-.0517.5203-.3223.8361-.7085-.0814-1.0143-.56-1.7074-.6579.406.6348,1.7437.6909,2.0155,1.4929l.0176.1342c.0187.1419.0165.3059-.0055.4763M40.6374,60.6762c-1.3081.2508-1.7316-.725-1.4126-1.6546.5138-.1573,1.2795-.0616,1.1353.6524-.1551.1705-.4368-.2233-.6425-.0055.1386.3685.4632.4257.703.2959l.0693-.0429.0022-.0011.1199-.121.0099-.0209c.099-.1518.1309-.3619.0275-.6018-.4555-1.065-1.9638-.5622-1.8603.6271.0803.923.978,1.3994,2.0606,1.0881-.198.3993-.1551,1.0418-.5116,1.2794-.363-.044-.4654-.3432-.78-.4345.3212,1.9483,3.68,1.5215,5.0431,2.6844-.0946.2211-.3994-.1826-.4302.1386.231.3157.7899.3091.8504.7932-.0682.1937-.2233-.1023-.4291-.0044.1859.549.9197.5589.989,1.2223-.0242.264-.4478.121-.5743.2805.0451.3102.4863.2299.6381.4334.1243.264.0572.6502-.0066.9274-.2673.0033-.2134-.3091-.5699-.2189-.1738.3828.4775.5049.4192,1.0033-1.4797-.1001-2.626-.4621-3.6294-1.1034-.2739-.1738-.5479-.5457-.9241-.4357,1.0605,1.0572,2.593,1.6491,4.5513,1.824-.0572.351-.5941-.275-.7151.1364.0924.3345.6469.2134.5644.7184.1001.341-.5292-.0594-.4302.2816.2805.1969.6458.3091.7074.7206-.2068.1728-.7063.0484-.6458.494.3641-.033.9076-.0638,1.2102.2959-.0561.2783-.2816.3851-.3619.6381.1342.0198.2739-.0517.4247-.1254l.0044-.0011.0759-.0374c.2244-.1034.4764-.1816.78.033-.0451.2652-.2717.3476-.2904.6392-.1837-.0737-.2376-.2761-.417-.3553l-.0319-.0374c.1111.6997.9901,1.7052,1.1915,2.6502.176.8328-.1056,1.7162-.6634,2.1497-1.318,1.0209-3.845-.494-2.1948-1.8175.6568-.0561,1.1276.0715,1.4236.3696.1199.5699-.2684.9505-.7195.7074-.1782-.1804.0847-.2805.0759-.4994-.1694-.1507-.4577.0143-.6425.066.1947,1.9142,2.6238.0737,1.2916-.8449-.8152-2.6657-2.6535-4.3258-4.1552-6.316-2.3147-2.0407-5.2268-4.1508-7.0046-6.8406-.2101-.3191-.5787-1.0484-.7712-1.6491-.1529-.4775-.4698-1.373.0143-1.6513l.1507-.0209c.154.8185.3465,1.5985.7382,2.1838.1309.2013.2838.3817.4665.5324-.1947-.7745-.7987-1.7613-.9021-2.8614l.0143-.0198-.0341.011-.0033-.0253c.1133-.1728.3058-.264.5732-.2795.2233.5292.4478,1.0584.7382,1.5204l.0616.0913.1309.1925c.2332.3212.5083.6018.8537.813-.3135-.7657-1.1849-1.5457-1.4467-2.6118l-.0143.0044-.0363-.1507c.2618-.1408.5699-.2354.9296-.2773.0649.3532.198.6414.374.8856l.077.1023.0143.0187c.1375.1738.297.3256.4731.462.0396-.2156-.0506-.3895-.1738-.5644-.0704-.1012-.1518-.2035-.2299-.3124-.11-.1606-.2057-.3388-.2233-.5611l.0044-.0011-.0286-.1694.1628.1243-.011.0044c.2464.2014.4434.4533.7932.5545.0583-.1133.0341-.2024-.0286-.2805-.1144-.1794-.4478-.2959-.56-.472.3344-.2574.758-.3795,1.2069-.3983l.2178.0122.1232.0054-.0077-.0109c1.8064.0913,3.6822,1.7481,2.0276,3.1684M39.4086,56.7508c-.3917.209-1.0275.329-1.5963.5182-.3895.1299-.7558.351-.9549.4148-1.0759.3443-2.2146.6458-3.0067,1.2585.1144-1.4555,2.3543-1.9725,4.0177-2.4632.2827-.0837.6557-.1661.9461-.2498.1551-.0462.6612-.1078.8317.0385.0528.0462.1958.2519-.2376.4829M47.6376,75.022c-.0297-.1023-.0616-.2047-.0946-.3036l-.055-.1606-.0638-.1727c-.044-.1144-.0902-.2267-.1386-.3367l-.0011-.0022c-.121-.2684-.2541-.5236-.406-.7569.1496-.1342.319-.2508.3609-.4962.2431.1287.4797.3631.6876.6557.5699,1.0605.8999,2.6766.0396,3.3147-.0165-.1716-.0374-.341-.0616-.5061l-.0011-.0044c-.0627-.428-.1518-.8328-.2607-1.2146l-.0055-.0165ZM51.4705,75.9373c3.0749-8.1598,6.5656-16.5604,9.8507-24.7477.5501-1.3752.9505-2.7382,1.6315-3.8879l.2486-.1617c.088-.0066.0044.3828.0099.3729-1.0165,2.4764-1.9517,4.8384-2.9231,7.4501-2.637,7.0949-5.4259,14.1984-8.1785,21.4088-.1958.5116-.2772,1.5611-1.1551,1.4885-.0704-.6744.2893-1.318.516-1.9231M52.1768,76.7283c3.7273-9.7406,7.2994-19.6408,11.2446-29.1604.0407-.1023.3509-.45.4544-.4896.8097.2178-.3807,2.8725-.626,3.7713-2.2388,8.2059-4.9385,16.9389-7.2103,24.9138-1.1189-.066-2.3829.1584-3.2168.6149-.2255.1221-.4544.5017-.6458.3498M56.6489,74.297c2.1035-7.4315,4.3005-15.1226,6.5227-22.663.3609-1.2255.7184-2.3466,1.0704-3.5919.1078-.3796.2376-.2981.2585-.2883.0143.0055.0627.1595-.0209.549-.077.3597-.2409.967-.2365.9835-1.4434,5.4754-3.4963,13.2259-6.9078,25.1327-.1232.4313-.0968,1.406-.868,1.3488-.308-.0407.0649-1.0627.1815-1.4709M63.6018,43.2169l-.0308.1309-.0088.0264-.0418.0837-.0418.0682-.0891.1728-.0044.0132-.0011.0022c-.1166-.0891-.2651-.1463-.2805-.3345l.0011-.0264c.1353-.0759.3355-.0869.4973-.1364M63.1046,43.3511v-.0044l.0088-.0066-.0088.011ZM50.1031,44.3688c-.1793-.1409-.4037-.2102-.6832-.2124-.417-.0044-.8889.1409-1.3455.2817-.3421.1045-.6656.2046-.9505.2365l-.121.0143.0495-.1111c.077-.1793.2189-.2849.3554-.3872l.1639-.1309.0209-.0209.0297.0011c1.5611.0572,2.8538-.1442,3.8956-.8119l.0671-.0385.0308.0704c.2002.4478.1958.8361-.0132,1.1541-.5534.8438-2.3763.9164-3.4071.9076-.3036-.0022-.6007.022-.8768-.0022l-.0759-.0066.0132-.0759c.0363-.2047.1562-.3081.3586-.3059.1089,0,.2299.0319.3454.0616.1034.0264.2002.0517.275.0517h.0154c1.0704-.0418,1.6766-.2629,1.8526-.6754M49.8159,48.0806c.0847-.1342.1991-.2354.3102-.3322.187-.1639.3641-.319.3938-.6216l.0077-.0748.0737.0121c.3509.0572.758.0847,1.3213.0891.2508.0022.5061,0,.7613-.0021.2552-.0022.5116-.0044.7624-.0033.582.0054,1.0022.0352,1.3642.0957l.0825.0143-.0275.0792-.0506.1067-.0187.0396-.0704.099-.0286.0352-.055.0551-.0869.0759-.0022.0022-.1496.0913-.2134.0946c-.1331.0418-.2761.066-.4258.0649-.1309-.0011-.2607-.0197-.3895-.055l-.0077.0275.0077.044.1199.0639-.0913.0616-.1793.0517c-.1331-.0011-.275-.0726-.4115-.1397-.1045-.0517-.2123-.1056-.3025-.121l-.0506.0286.0814.1243.0627.033-.0341.0616-.1199.0715c-.0649-.0011-.1375-.0395-.2145-.0814-.0902-.0495-.1947-.1089-.2354-.0638-.0286.0737-.0165.0803.0319.1056.0539.0264.154.0781.1144.2343l-.0022.0088c-.0517.0044-.0704.0011-.1452,0l-.0858-.0077c-.2321-.0737-.4973-.1309-.6007-.2542l-.1903.1397-.1485.0506c-.1177-.0011-.2244-.0837-.3366-.1706-.0902-.0693-.1837-.1408-.2684-.1563l-.0517.0286.0836.1244.0572.0308-.0264.0594c-.0187.0408-.0649.088-.1859.088-.1331-.0022-.3784-.0506-.4235-.2123l-.0055-.0968ZM56.7028,55.3966l-.7173,1.4643c-1.9979-2.659-3.9451-5.4204-5.8473-8.195.5611.0616,1.4082-.2607,1.7118.1573,1.6513,2.2762,4.8527,6.5734,4.8527,6.5734M57.77,56.6067c-1.8856-2.5798-4.0067-5.3093-5.8693-7.9122.2662-.0187.7261.1552,1.3048-.0968,1.3224,1.8636,2.5215,3.7625,3.8637,5.8099.7206.9274,1.3433,1.4895.7008,2.1991M57.8679,52.7837l-.7129,1.5094s-2.4676-3.8989-3.8516-5.7065l.0187-.0033c.5611-.1969.7481-.3939,1.1859-.4819,1.0594,1.428,3.3598,4.6823,3.3598,4.6823M58.463,51.9432c.4676.6634,1.0748,1.4621.4302,1.9374-1.5061-1.868-2.8373-3.8241-4.2311-5.8033l.0066-.0143.0363-.0165.2409-.1155.2134-.1397.1903-.1408c.7833,1.0209,2.362,2.944,3.0309,4.164l.0825.1287ZM61.5787,46.1245l-.8636.8493c-.9637,1.3202-2.252,4.6195-2.252,4.6195,0,0-2.1354-2.9033-3.1739-4.3808,1.9351-.1452,4.4897-.0946,4.5667-1.8944l.0022-.0033c.648-.0242,1.1584-.2388,1.7305-.3312-.0055.3708-.0099,1.1408-.0099,1.1408M51.6213,44.5866c.055-.0606.1067-.1178.1441-.1871l.0198-.0374h.0429c3.2146.0055,7.0156-.341,10.7-.9758l.0869-.0154-.0044.088c-.0594,1.1056-1.3961,1.1188-2.0573,1.12l-.0176.0143.0462.0396.0704.1386-.1012.0891c-.2673.0572-.5094-.0033-.7118-.0583-.1716-.0473-.33-.0836-.4533-.0429l.022.0726.1166.0253.2497-.0187-.2035.1464c-.0847.0605-.1848.0891-.308.088-.1485-.0011-.3014-.0462-.4511-.0891-.1056-.0297-.2046-.0583-.286-.066l-.0495.011.011.077-.0099.154-.088.0418c-.2563.0121-.4599-.033-.6535-.077-.1683-.0385-.3267-.0737-.5237-.0759h-.0297l-.011.0022.0473.0473.0825.1639-.1232.0727c-.3047.0253-.5094-.0451-.7063-.1144-.1562-.0539-.3036-.1056-.5006-.1101l-.033.0176.0682.099.0693.1749-.1133.0638-.1837.011c-.2662-.0022-.4533-.0825-.6337-.1595-.1518-.0661-.2948-.1276-.4841-.1442-.0066.0671.0297.0825.1045.1122l.0869.0408.1001.0605-.1001.0594c-.0737.044-.1562.0649-.2497.0639-.1397-.0011-.286-.0506-.4269-.099l-.395.1254-.1463.022c-.1804-.0022-.3487-.1001-.5127-.1947-.1859-.1101-.3641-.2069-.5215-.1606.0011.0616.0396.0803.1265.1144l.1353.0682.0913.0748-.1089.0451c-.0781.0319-.1595.0484-.2475.0473-.1716-.0011-.3366-.0639-.5116-.1299-.1969-.0748-.3994-.1529-.6172-.1386l-.066.0044-.0077-.0649c-.0451-.3378.1001-.4973.2266-.637M51.5157,46.6372c-.0044.1364.0561.1452.0869.1497l.2156.0319-.1936.1001c-.1221.0627-.3598-.0209-.5908-.1101-.1166-.0451-.2255-.0869-.3113-.1056l-.1617-.0352.1386-.0913c.2431-.1617.4896-.3256.5754-.7294l.1364-.0561c.4192.033.8438.0528,1.2949.0561,1.4632.0132,2.9055-.132,4.3005-.2717.8251-.0825,1.6777-.1683,2.5149-.219l.0814-.0044-.0165.1133c-.0088.0858-.0253.1628-.0462.2355l-.0715.1815h-.0011l-.11.165-.0407.0418-.0858.0814c-.176.1386-.4049.2167-.67.2453l-.0319.0286c-.0968.0121-.1969.0165-.3047.0165-.1584-.0022-.33-.0165-.5116-.0429l.0154.1507-.011.0473-.0495.0066c-.0682.0077-.1342.0099-.2002.0099-.1584-.0011-.2937-.0253-.4247-.0484-.1463-.0264-.2849-.0517-.4566-.0462.0077.0495.0473.0671.1254.0968l.1342.0693.0715.0572-.0913.0121.0374.0242c-.1089.0551-.2211.0572-.3366.0308l-.11.0187c-.1155-.0308-.2321-.0825-.3443-.1354-.2046-.0957-.4027-.1804-.5556-.1309l.022.0715.1166.0264.2772-.0198-.2343.1496c-.0891.0572-.1848.0836-.2904.0836-.1518-.0021-.2992-.0616-.4412-.1188-.1331-.0528-.2574-.1034-.3773-.1067l-.0451.0088.0121.0341.0132.1584-.1023.0792-.033.0044c-.2618-.0022-.4236-.1012-.5809-.1969-.1155-.0704-.2244-.1375-.3741-.1639l-.0077.0484c.0154.0605.1111.1375.2101.1672l.2101.0649-.2079.0693-.1925.0308c-.1925-.0022-.3718-.0935-.5622-.1903l-.1254-.0639-.2497.1375c-.0638.0353-.1331.0517-.2046.0517-.1353-.0011-.2607-.0638-.395-.1298-.1375-.0682-.2805-.1386-.4368-.1397h-.0022ZM49.8984,48.733l.1628.2123,5.5172,7.6933c1.3785,2.0518,1.6205,1.8263,1.011,2.8769-2.5523-3.2685-4.8681-6.7384-7.3192-10.1059.0935-.2883.4577-.4665.6282-.6766M47.9809,50.645c.1694-.264.4808-.7063.4698-1.0253.2134-.0407.352-.1364.5402-.2508,2.1695,2.8659,6.3456,8.8671,6.3456,8.8671l-.7987,1.4577s-4.4039-6.0013-6.5568-9.0487M45.6145,51.9795c.5303-.1078,1.0198-.2871,1.1684-.7503,2.538,3.0485,7.1751,9.5306,7.1751,9.5306l-.7261,1.4917s-5.0144-6.7615-7.6174-10.272M44.6508,52.6649c.6172-1.1958,1.2971.0385,1.7932.6964,2.5545,3.3852,5.2796,7.2884,7.8528,10.6307.7778.9054-.0022,1.4676-.0374,1.4698,0,0-.8625-1.0638-1.2344-1.5699-2.7504-3.7526-5.6349-7.4117-8.3743-11.227M52.5982,63.608l-.5292,1.0595s-6.0497-7.7329-8.8892-11.7803c.4973.0253.8625-.0198,1.2146-.2035,2.812,3.5798,8.2038,10.9244,8.2038,10.9244M40.6924,51.9146l.0671-.0121.143-.0143c.1716.0022.2739.0759.3641.1408l.1672.0958.1199.0385-.0957.0814c-.0198.0154-.0451.0252-.1188.0252-.0055,0-.5963-.0132-.637-.2882l-.0099-.0671ZM51.5586,65.805c-.1661.3345-.3498.6513-.5072.9945-3.3532-4.1333-6.624-8.3468-9.953-12.5043.0176-.308.2574-.4807.0121-.7074l-.0011-.0077c.3663-.0979.7129.2871,1.2784.1551,2.9077,4.1707,6.2015,7.9607,9.1708,12.0697M42.8454,52.9554l.0704.0726c3.1266,4.1035,6.4666,8.2807,9.6152,12.4646.6491.8625.9857,1.2442,1.0462,1.5017.0506.2123-.3333.6721-.3333.6721,0,0-.8526-1.0902-1.2729-1.6381-3.0397-3.9573-6.3643-8.2621-9.4183-12.2908-.0176-.3784.3751-.3378.2926-.7822M39.424,52.6044c.1408.0297.2387.0968.3333.1618.0759.0528.1485.1034.2409.1309l.1188.0341-.0913.0847-.1265.0363c-.1837-.0011-.5457-.1353-.56-.3752l-.0044-.0902.0891.0176ZM39.4108,51.9454l.0891.0176c.3333.0627.6568.2564.9692.4434.3619.2178.7371.4422,1.1089.4456.1661.0011.3212-.0396.4764-.1266l-.0231-.033-.0902-.0264.0506-.0792c.0187-.0286.0561-.0627.1309-.0616.0946,0,.22.0561.3421.11l.1727.0693.0363.022.0066.0385.0033.0462h-.0033l.0088.1683c-.0044.0704-.0176.1364-.0429.1937-.077.1694-.2453.2596-.4698.286l-.0011.0011h-.0011c-.1826.0209-.4015.0011-.6326-.0484l-.1595.011c-.8922-.2178-1.9318-.8504-1.9659-1.3862l-.0055-.0913ZM44.4472,52.0862l.0638.0407-.0451.0616c-.2596.3476-.6403.5215-1.132.517-.8999-.0077-1.9242-.6084-2.3884-.9626l-.0297-.022.0022-.0374c.0121-.1947.0077-.3818-.099-.4335l.0572-.1276c.1793.0726.3763.209.5842.3531.4379.3036.934.648,1.549.6535.1243.0011.2497-.0121.374-.0396-.1639-.3223-.5424-.4422-.9406-.5698l-.2948-.0958.1705-.0737c.1331-.0572.275-.0847.4235-.0836l.165.0209,1.362.6799.1782.1188ZM47.7884,50.7155l7.6119,10.4183s.824.8923.0407,1.4335c-2.8076-3.867-5.6195-7.6823-8.4887-11.5009.1496.1992.6084-.3102.8328-.395l.0033.044ZM49.751,48.1202l.0077.0022.0077.1133c.0022.0902.0022.1782-.0242.2586l-.0264.0693-.0715.1408-.0726.0957-.0473.0594-.1232.1067-.033.0264c-.1122.0814-.242.1497-.3861.2036v.0011h-.0011c-.1848.0704-.1793.0968-.3983.1287l-.2156.0462c-.1892.033-.5842.0605-.7987.0583-.7162-.0066-1.4434-.1474-1.8097-.3509l-.0748-.0418.0561-.0649c.088-.1035.2244-.153.4192-.1518.1892.0021.4137.0506.6513.1023.253.055.5149.1122.7514.1144.2618.0022.4434-.0638.5677-.209-.1606-.1507-.4566-.1859-.8471-.1892-.0759-.0011-.154,0-.231,0h-.2332c-.4555-.0044-.9505-.0418-1.0836-.4565l-.0341-.1023.1078.011c.1903.0209.3564.0693.5523.0935.5325.1111,1.2091.1221,1.7789.1507.6304.0308,1.1265-.0418,1.5589-.2387l.0539-.0352.0033.0044.0033.0539h-.0077ZM49.9831,45.8726c-.1727-.0616-.3696-.0924-.5974-.0935-.3476-.0033-.7294.0616-1.099.1254-.3762.0638-.7657.1309-1.1298.1276l-.1969-.0044.0891-.1111c.3135-.3851.8878-.4191,1.4423-.4522.2046-.0121.4368.0055.6249-.0242.7261.034,1.4027-.154,1.955-.4819v-.0055c.121-.0165.2222.0055.2464.098l-.0066.033c.0748,1.5204-1.077,1.5655-2.5677,1.8174l-.0572.0044c-.2585.0187-.5523.0231-.8284.0374-.6535.033-.9604-.1254-1.1056-.3795l-.0583-.1034.1199-.0011c.1111-.0011.2233-.0011.3355-.0022,1.1232-.0021,2.2817-.0077,2.834-.5842M64.7636,41.647l.0044.0021v.0715l-.0044.0517c-.0011.0946-.0187.1859-.0495.2729l-.0649.1441-.011.0176-.1177.1606c-.2871.3224-.7943.5193-1.3224.5149-.1749-.0011-.3487-.0242-.5149-.0682-.0638.0099-.0803.0792-.0704.2805l.0044.0748-.0748-.0011c-.2233-.0022-.4335-.0363-.6568-.0727-.176-.0275-.3564-.0561-.5699-.0759-.0066.0671.0308.0814.1056.1111l.0858.0407.0946.0583-.0924.0605c-.066.044-.143.0638-.2365.0627-.1496-.0011-.3135-.0572-.4885-.1155-.1793-.0605-.3641-.1221-.5314-.1244l-.1331.0143.1122.0902.1529.1045.055.0715-.0847.0353c-.1958.0825-.4048.1221-.637.1199-.2849-.0021-.571-.0671-.846-.1298-.1001-.0231-.1991-.0451-.2992-.0649l-.0033.0408c.0176.0473.0935.0968.1892.1001l.2717.0088-.242.1232c-.1155.0594-.2398.0869-.3774.0858-.1991-.0011-.395-.0649-.5842-.1254-.143-.0462-.2794-.0902-.406-.1056l-.0143.0154.077.0737c.0572.0462.1144.0935.1045.1628l-.0902.099-.022.0044c-.3135.0242-.4885-.0869-.6579-.1925-.1375-.0858-.2684-.1683-.4731-.1749.0407.1265.1551.187.2838.253l.0902.0484.0792.0451-.0627.0649c-.0407.0418-.0979.0616-.1672.0616-.1419-.0011-.3289-.088-.5435-.1881-.187-.0869-.3961-.1837-.5666-.2134-.0055.0792.0539.1331.1419.2002.0627.0495.1221.0957.1221.1672l-.0671.1122-.0198.0165-.0253-.0022c-.3763-.0143-.6733-.1078-.9615-.1991-.1848-.0584-.3741-.1189-.5831-.1563.0451.1166.1551.1738.2794.2376l.0891.0484.1221.0682-.1287.0561c-.0858.0385-.1782.0572-.2816.0561-.2079-.0022-.4346-.0836-.6733-.1694-.1606-.0584-.3267-.1177-.5039-.1618.0066.1276.0924.1683.2134.2266l.1111.0572.1276.077-.1419.0496-.1694.0264c-.2189-.0022-.4533-.1221-.6788-.2388-.11-.0561-.2134-.1089-.3069-.1441l-.0242.0242.0979.1254c.0649.0639.121.1178.1034.1871l-.0968.0836-.0143.0033-.0132-.0022c-.3774-.0484-.3432-.3102-.3157-.5215.022-.1738.0462-.3531-.0781-.506l-.0935-.1144h.1485c.3256.0021.6854-.0748,1.0352-.1485.2387-.0506.4632-.099.6722-.121,1.1739-.1266,2.3983-.2024,3.5832-.274,2.6073-.1595,5.3027-.3245,7.5459-1.0529l.0814-.0264.011.0836v.033l-.0033.0044ZM64.4291,46.5789c-.417-.5864-2.4929-.5225-2.4929-.5225l-.0616-1.0705s.011-.2266.1738-.407l-.0044.0022c.2508-.2784.6161-.67.8768-.89l.0506-.0429.0451.0484c.0748.0814.121.187.1518.3059l.0187.0902c.0418.2574.0473.5578.1155.7624.4533-.0924.2629-.5765.3641-.8526.2541-.6942.8405-1.1761,1.2278-1.7019.6359.9219-.1859,2.0716-.5226,2.7074.5435-.1573.813-.8449.9373-1.2058.4511-.1959.9296.0352,1.1398.2959-1.1783.3124-1.4192,1.5787-2.0199,2.4808M67.3467,39.3246c-.0099.1573-.3036.0275-.428.0682-.0044.9615-.5809,1.3466-1.3037,1.4555l-.0121.0088.0154-.0154c-.1639.0066-.7327.0759-.9197.0616-.1936-.0143-.3983-.022-.6084-.0242-1.2157-.0099-2.5215.1244-3.9022.3301-1.2036.1804-2.4005.3828-3.647.4379-.6007.0264-3.5678.2178-4.68.3036-.0924.0077-.1672.0132-.2321.0187l-.4984.0352h-.2464.0088-.0088c-.6964-.0066-1.406-.0473-1.8163-.4269-.0253.0374-.0044.0782.0517.1628.0429.0638.0869.1298.0682.2024l-.0913.1023c-.1606.0539-.3102.0781-.4533.077-.4115-.0033-.7217-.2244-.9285-.4114-.0121.0319,0,.0792.0297.1672.0374.1089.0946.274-.0748.3674l-.0198.0066c-.0792.0154-.154.0231-.2211.022-.3531-.0021-.5006-.2156-.6326-.4026-.0649-.0935-.1276-.1816-.2112-.2454-.0616.0946-.0242.1992.0396.3488.0462.1111.0957.2277.0814.3498l-.0055.0495-.0484.0122c-.1144.0264-.22.0374-.3146.0374-.3598-.0034-.5369-.1992-.692-.3719l-.1265-.1342c-.0363.1001.0077.2035.0781.3498.0484.1023.099.2068.1078.3212l.0033.0396-.0319.0231c-.1331.0946-.286.1397-.4676.1375-.1573,0-.3135-.0374-.4522-.0693-.1628-.0396-.3146-.0693-.3939-.0363.0759.1959.2651.2893.4632.3872l.099.0496-.011.0528c-.1067.5083-.5622.5039-.7118.5028-.1045-.0011-.2101-.0122-.3036-.022l.0121.0924c.0286.0451.1056.0627.1881.0814.1221.0275.2893.0649.308.2464.0044.1397-.0319.2475-.1078.3256-.1474.1507-.4005.153-.6238.154-.0693.0011-.1364.0011-.1914.0066.044.1761.2651.1992.5435.209.1056.0055.1958.0077.2563.0308l.044.0154.0022.0473c.0253.4708-.231.6744-.4555.8548-.1276.1034-.2497.2002-.3256.341.066.0484.1947.0055.3025-.0352.0737-.0275.1375-.0506.1936-.0506.0759,0,.1111.0463.1243.0737l.0066.0165c.1463.6876-.2464.8537-.5919,1.0011-.1067.0451-.209.0891-.2959.1452l.1177.0528c.1331.0561.2827.1189.3267.2938l.0044.0165-.0033.0165c-.0902.362-.4048.4808-.7085.5963-.2134.0803-.4159.1573-.5347.3124l.0594-.0066.1265-.0088c.1617.0022.1903.0946.1925.1497l.0011.0197-.0088.0177c-.1782.3344-.5875.4169-.9846.4962l-.0935.0198.0055.0462.1507.0308c.1045.0054.2343.0132.2772.1276l.0286.0759-.0792.0176c-.1397.0297-.2816.0649-.4269.1001-.4962.1221-1.0594.2618-1.6634.2398-.1331-.0044-.2673-.0099-.4027-.0154-.2618-.011-.5314-.0231-.7932-.0253-.9659-.0077-1.8955.0935-2.2047.8603.0946-.0165.1694-.055.2475-.0957.1155-.0594.2343-.121.4181-.1188l.1749.0187.0473.0088.0077.0484c.0517.2916.0649.6227.077.944.0198.4686.0187,1.0055.1573,1.3575.2376.2388.4984.4489.7415.67.3597.3983.7624.8658,1.3455,1.0143l-.0253-.0583.033.0616-.0077-.0033.0077.0187c3.4511,4.5711,7.1289,8.9199,10.5702,13.4988-.6579,1.2486-1.2344,2.5809-1.9329,3.7899.0044-.0803.0044-.1606,0-.2431.0099-.4357-.1309-.9186-.4093-1.1464.648-.2838.5457-1.4621.0924-1.8427.8669-.6194.2519-1.7107-.4588-2.0826.7294-.5775-.2145-1.3971-.7822-1.5699.0275-.1232.0352-.2332.0275-.3366-.0022-.34-.1881-.5699-.45-.7349-.2508-.1716-.571-.2816-.8757-.3641.0319-.2882-.0297-.4939-.1496-.6392-.3432-.4675-1.2465-.3774-1.6876-.45.0759-.2464.3278-.396.2112-.7547l-.0539-.1034c-.1969-.3532-.868-.2245-1.2894-.3598l.0165-.0429.0154-.0418c.165-.4357.0275-.8306-.286-1.0737-.1881-.1661-.4456-.2717-.7448-.286-.0187-.2783-.0704-.5237-.1518-.7415-.319-.9912-1.1563-1.4192-2.1453-1.7812.9153-.1573.9516-1.3421-.1133-1.5677-.0825-.4412.2189-.7239-.0627-.8559-.2189.1859-.1298.6843-.1529,1.0682-1.6733.6249-3.6393.9528-5.0111,1.8835-.2497-1.5974-.275-3.4831-.7404-5.1443-.2684-.1067-.1386.1947-.3575.1386-.2277-.2937-.5259-.5193-.5633-1.0033,1.6304-1.5897,3.4269-3.3653,3.4809-6.3214.5094-.1144,1.088-.5116,1.0077-.9902-.6216.5578-1.1144,1.1101-2.3631.978-.4037-.1342-.4291-.9758-.4896-1.2167.2662-.0407.7525.1419.7162-.208-.3729-.2244-.6623.1794-.8548-.2211-.0946-.3124.2772-.1496.2178-.4269-.2684-.1364-.6909-.1232-.7811-.4346.3399-.3025.6007-.6842.7954-1.1343.2717.0253-.0616.5523.3509.5732.2244-.0473.0946-.1893.0748-.3565.1562.0539.2343.3378.428.1475-.0374-.483-.6711-.3796-.8515-.7217.2266-.4291.5567.3597.8559.0792-.0451-.451-.6865-.3157-.9219-.5798-.0506-.329.2398-.5654.0781-.7833-.2651-.0782-.143.2387-.2882.2827.1518,1.2828-.4005,1.8482-.8075,2.5623.1078.2948.4698.3388.637.5765.0154,1.2179.3641,2.4478,1.9076,2.1574-.121,2.2454-1.8636,4.8692-3.4743,5.7494-.2629.8856.4742,1.2982.9835,1.6502.0825,2.252.7393,3.9341.3047,6.0684.4126.4731.2574,1.3047.4819,1.9308.3564.9967,1.1596,1.9934,1.7602,2.7988,1.461,1.9604,3.7625,3.2751,5.5931,5.0441.9087.878,1.7404,1.7998,2.4731,2.8043.7349,1.0088,1.6634,2.0859,1.8251,3.5127-2.6436.2552-1.6447,2.9055.3322,2.8582.8856-.022,1.2927-.7052,1.791-.9121.9857-.407,2.0067.549,2.8505.5237.0869.1276.2178.341.363.4103.8163.2476.8328-.3983,1.2102-.824.4401-.4951,1.1981-.9836,2.0078-1.1959.7921-.2068,1.4423.0649,2.1431-.1243.1837.0781.3476.1771.6414.1485.6293-.7635.7756-2.1233,1.099-3.3445,1.5171-5.7262,3.0122-11.1422,4.5711-16.8024.7789-2.8274,1.8405-5.7428,2.2872-8.6141-.1001-.2321-.2827-.3817-.3509-.6447.7096-.6942.7404-2.0793,1.8757-2.3389.3421.1353.2783.6689.275,1.1441.5611-.8504-.0099-2.3191-1.3378-2.01.011-.7426-.1573-1.308-.2684-1.9296.791-.6821,2.3884-.9274,2.3026-2.263M35.4712,53.5968c-.8757-.0682-1.0836-.7404-1.3466-1.2245.077,2.2762,3.7933,1.5699,2.8604-.6887.1683,1.198-.4159,1.9989-1.5138,1.9132M35.7627,52.8145c-.11-.3762-.3609-.1738-.5677-.4323-.2189.3058.2816.6073.5677.4323"></path><path class="st3" d="M49.9365,82.0353v.6546c18.1887,0,32.9339-14.7023,32.935-32.8426-.0011-18.1402-14.7463-32.8425-32.935-32.8425S17.0015,31.7071,17.0015,49.8473s14.7463,32.8426,32.935,32.8426v-1.3092c-8.7362-.0011-16.6386-3.5293-22.3637-9.2379-5.724-5.7076-9.261-13.5868-9.2621-22.2956.0011-8.7098,3.5381-16.588,9.2621-22.2966,5.7251-5.7075,13.6275-9.2368,22.3637-9.2368s16.6375,3.5293,22.3626,9.2368c5.724,5.7086,9.2621,13.5867,9.2621,22.2966s-3.5381,16.588-9.2621,22.2956c-5.7251,5.7086-13.6264,9.2368-22.3626,9.2379v.6546Z"></path><path class="st3" d="M49.9362,98.4509v.6546c27.2802,0,49.3975-22.0523,49.3975-49.2578S77.2164.5889,49.9362.5889.5387,22.6412.5387,49.8478s22.1162,49.2578,49.3975,49.2578v-1.3092c-13.282-.0011-25.3-5.3676-34.0043-14.0444C7.2286,75.0718,1.8478,63.0891,1.8478,49.8478S7.2286,24.6215,15.9319,15.9425C24.6362,7.2645,36.6542,1.8991,49.9362,1.8991s25.3,5.3654,34.0043,14.0433c8.7021,8.6791,14.0829,20.6629,14.084,33.9053-.0011,13.2413-5.3819,25.224-14.084,33.9042-8.7043,8.6768-20.7234,14.0433-34.0043,14.0444v.6546Z"></path><path class="st3" d="M81.8436,18.9707c-.0825.2002-.187.2223-.3322.1078-.11-.0858-.2189-.1738-.3355-.2475-.341-.2178-.5072-.2178-.813.0484-.4544.396-.8922.8097-1.3378,1.2167-.1782.1618-.3564.3246-.5589.5094.9417,1.0298,1.8625,2.0353,2.7999,3.0584.0803-.0584.1573-.1045.2222-.1628.5127-.4698,1.0242-.9407,1.5358-1.4126.0759-.0704.1485-.1452.22-.2211.1804-.1926.2013-.4126.0858-.6414-.0781-.1551-.1705-.3026-.2651-.4478-.1078-.165-.0363-.2486.1771-.3432.0627.0847.1298.1771.2002.2684.5468.7074,1.1585,1.3565,1.8042,1.9737.0583.0561.1122.1177.1661.1782.1221.1364.0627.2267-.1067.3081-.1353-.1012-.2794-.2135-.428-.3169-.4401-.308-.6546-.3058-1.0484.0528-1.2938,1.1782-2.5831,2.3609-3.8692,3.5479-.3718.3433-.3972.5666-.154,1.0143.0891.1618.1925.3157.3201.5248-.0528.0506-.1078.1045-.1837.1783-.1122-.1068-.1936-.1695-.2563-.2464-.5919-.7294-1.2157-1.4302-1.8977-2.0771-.0891-.0847-.2739-.1783-.1419-.3367.1507-.1815.2596.0154.3751.088.0979.0627.187.1364.286.198.2409.1518.483.1606.703-.0374.6623-.5952,1.3202-1.1948,2.0089-1.8186-.9494-1.0364-1.8768-2.0485-2.8219-3.0782-.4313.3927-.8416.7657-1.2509,1.1397-.2222.2036-.4467.4049-.6612.6161-.3245.3223-.3432.4874-.1177.8933.0561.1001.1265.1937.1859.2938.0957.1617.0935.1628-.1089.3245-.7635-.8328-1.5281-1.6656-2.2949-2.5006.1298-.2211.1375-.2244.3124-.1023.1419.099.2794.2057.4236.3025.2772.1849.549.1618.802-.0451.1881-.154.3674-.319.5468-.484,1.11-1.0177,2.2212-2.0353,3.3301-3.0551.5094-.4686.5369-.6755.1749-1.2575-.0429-.0682-.0869-.1364-.1331-.2024-.0594-.0858-.0836-.1695.0066-.2464.0913-.0759.1694-.0429.2398.0374.077.0869.1595.1683.231.2596.5237.6678,1.0979,1.2872,1.714,1.8692.0913.0847.1672.1848.2453.2717"></path><path class="st3" d="M12.4988,65.766c-.1375-.4994-.2772-.9857-.5941-1.3983-.2475-.3234-.5721-.4973-.9868-.4841-.5864.0176-1.1122.2123-1.5732.5677-.2926.2233-.4489.5303-.4346.9043.0165.44.1848.8328.4291,1.1925.121.1804.2959.2552.5116.2079.1023-.0209.2046-.0451.3014-.0814.7261-.2717,1.45-.5468,2.175-.8218.0517-.0198.1001-.0495.1716-.0869M11.9025,63.7824c.0902-.1122.1716-.209.2486-.3091.5413-.6942,1.066-1.4027,1.6282-2.0815.3729-.451.4654-.9439.3697-1.4962-.0099-.0572-.0264-.1122-.0396-.1683-.0275-.1144-.0143-.208.1221-.2409.1243-.0308.165.0517.1958.1441.033.099.055.2014.0913.2993.1892.5203.3807,1.0396.5853,1.5963-.4522.5809-.9296,1.1925-1.4027,1.8075-.2618.3388-.5149.6854-.7778,1.0253-.3168.4103-.2871.8306-.0462,1.2861.5369-.2002,1.0671-.3972,1.5952-.5974.2607-.099.5182-.2013.7756-.3059.2827-.1155.4115-.33.384-.6315-.0187-.1958-.0506-.3905-.0814-.5842-.0176-.1166.0011-.2123.1309-.2409s.1485.0814.1859.1628c.0231.0528.0407.1078.0572.1639.2629.9021.5952,1.7789.9945,2.6304.0341.0726.0737.1507.077.2278.0022.055-.0396.1386-.0847.1606-.0462.022-.1342.0011-.1793-.033-.0517-.0396-.0737-.1155-.1122-.1727-.0979-.1441-.187-.2948-.2981-.4269-.1628-.1937-.3708-.2717-.6227-.1826-.0979.0341-.2002.0594-.297.0968-1.5501.583-3.1002,1.1661-4.6492,1.7503-.033.0121-.0638.0286-.0957.0407-.5941.2343-.7008.4313-.5809,1.0682.0187.1023.0517.2057.0495.308-.0022.0539-.0638.1485-.1012.1497-.0627.0021-.1375-.044-.1881-.0913-.0374-.0363-.0484-.1034-.0638-.1595-.2827-.9934-.6887-1.9418-1.0924-2.8901-.2057-.4829-.3113-.9901-.297-1.5226.0352-1.3213,1.4104-2.12,2.5391-1.5226.2629.1397.4962.3367.7382.5138.0825.0605.1507.1397.242.2255"></path><path class="st3" d="M34.4155,12.359c.494-.1386.9351-.275,1.3224-.5401.3553-.2431.5754-.5688.5699-1.0143-.0099-.6249-.2145-1.1837-.6117-1.6612-.3256-.3905-.7613-.4675-1.2311-.341-.2211.0605-.4368.154-.6414.2596-.4313.2233-.5116.4192-.3432.8757.2475.6722.5127,1.3389.7701,2.0088.0495.1265.1012.2531.165.4126M36.4023,11.7407c.264.2024.5105.3928.7591.582.5446.4147,1.099.8152,1.6304,1.2465.4577.3718.9538.5027,1.5248.3664.0671-.0165.1353-.0297.2046-.0385.1562-.0176.1562-.0165.22.2519-.11.0407-.2233.0902-.341.1254-.4775.143-.9571.2828-1.3873.5423-.2024.1221-.352.0781-.5303-.0616-.6755-.5292-1.362-1.0429-2.0463-1.5611-.1837-.1408-.3773-.2685-.56-.4115-.417-.3245-.8482-.3157-1.3103-.0682.0176.0671.0297.1354.0539.198.253.659.5061,1.3191.7657,1.9759.2145.5413.417.6502.9923.5534.1254-.0209.2497-.0649.3751-.066.0572,0,.1364.0671.165.1244.0165.0341-.0352.1276-.0803.1584-.0748.0495-.1683.0759-.2563.1023-.8669.2607-1.7096.5842-2.5259.9758-.0935.0451-.1914.0902-.2915.1067-.0506.0077-.1397-.0385-.1606-.0836-.022-.0473-.0022-.1353.033-.1815.0385-.0517.1155-.0726.1727-.1122.1419-.099.2893-.1937.4225-.3036.187-.154.2552-.3531.1826-.5919-.033-.1111-.0638-.2233-.1045-.3311-.5996-1.5567-1.2003-3.1123-1.802-4.668-.2552-.6578-.4093-.7426-1.1045-.6216-.0803.0132-.1595.0297-.2376.0506-.1067.0286-.1859.0044-.2222-.1045-.0363-.1101.0165-.175.121-.2102.165-.055.33-.1078.4929-.1705.6689-.2564,1.3345-.5248,2.0078-.7745.4654-.1727.9329-.3421,1.4115-.4763.3476-.0968.7118-.0737,1.066.0154.9461.2366,1.5083,1.23,1.2278,2.1629-.1199.3983-.3377.736-.6172,1.0364-.0781.0825-.1573.1639-.2508.2618"></path><path class="st3" d="M43.014,10.2856c.0528.3994.1023.7768.1529,1.1541.055.4015.099.8053.1683,1.2047.0836.4863.2497.6259.7393.6645.1496.011.3003.0154.45.033.1518.0165.1881.1101.1419.2597-1.1519.1584-2.3048.3168-3.471.4786-.0781-.1452-.0913-.2542.1056-.3114.1551-.0451.3102-.0968.4577-.1617.3774-.1673.4841-.3212.45-.7272-.0385-.461-.1045-.9208-.1672-1.3796-.1749-1.286-.3553-2.5699-.5336-3.8559-.0132-.0913-.0308-.1826-.0484-.2729-.0572-.2816-.2244-.4532-.5105-.4939-.1826-.0253-.3674-.0429-.5523-.0528-.1188-.0077-.2497.0055-.2541-.1584-.0044-.1639.1375-.165.2497-.176.4269-.0408.8559-.0584,1.2806-.1166.538-.0737,1.0726-.1804,1.6084-.2706.1133-.0198.2266-.0297.3322-.0429.1111.1694.0957.275-.0902.3344-.187.0605-.3752.1221-.5545.2014-.2585.1144-.3961.3179-.3641.6084.0363.3345.0803.6667.1232,1,.0539.4136.1078.8262.165,1.2399.0209.1463.0495.2915.0748.4357.3069-.0044.4687-.187.6194-.3807.5963-.7701,1.1893-1.5424,1.7833-2.3136.1342-.1738.2761-.3432.3961-.528.1793-.2761.1089-.4224-.2189-.4731-.1254-.0198-.2552-.0132-.3784-.0418-.0528-.0109-.1342-.0891-.1276-.1243.0099-.0616.0682-.1496.1221-.1639.1441-.0385.2981-.0429.4467-.0627.5842-.0803,1.1684-.1595,1.7525-.2409.1133-.0154.2255-.0353.341-.0539.1067.1595.1111.2883-.0792.3312-.67.1518-1.0924.6172-1.4929,1.1265-.5864.7469-1.1871,1.4841-1.7811,2.2256-.0704.0891-.1353.1815-.2145.2871.0902.077.165.1463.2453.209,1.0737.8273,2.153,1.648,3.2201,2.4852.4379.3422.9131.5369,1.4731.5215.1375-.0033.3432-.0583.3399.1749-.0033.209-.2024.1485-.3245.1595-.9593.0803-1.9131.1925-2.8538.396-.1243.0264-.253.0484-.3784.0473-.0495-.0011-.1265-.066-.1386-.1156-.0121-.0495.0253-.1452.0682-.1683.132-.0682.2838-.1013.417-.1683.2904-.1475.3102-.3047.0759-.5347-.0495-.0495-.1056-.0924-.1595-.1342-.7976-.6182-1.5941-1.2354-2.3928-1.8515-.1925-.1485-.3905-.2926-.714-.2024"></path><path class="st3" d="M88.4046,64.4957c-.1441.4126-.3102.7954-.4093,1.1948-.1496.6084.0374,1.0429.5809,1.3509.2772.1573.5886.2695.8977.3476.4489.1133.8394-.0462,1.0869-.4301.1793-.2772.3102-.593.4192-.9065.1111-.3169-.0055-.5314-.3113-.6744-.1672-.0782-.3432-.1375-.5149-.2047-.5699-.2211-1.1397-.4422-1.7492-.6777M88.0647,64.3944c-.0671-.044-.0935-.0682-.1243-.0803-.8075-.3157-1.615-.6304-2.4236-.9439-.0539-.0209-.11-.0341-.1661-.0473-.2904-.0682-.5369.0099-.6986.2597-.1375.2112-.264.4367-.3542.6721-.2211.5787-.1243,1.1144.2783,1.5886.2783.3278.6414.5248,1.0462.6524.8229.2607,1.5391-.0253,1.9153-.8009.2002-.4136.3476-.8537.527-1.3004M85.2659,60.7738c.2013.0154.286.077.2365.2662-.0418.1563-.0682.3169-.0891.4775-.044.3224.0671.5699.3674.7162.0935.0451.187.0913.2838.1298,1.5545.6051,3.1079,1.2113,4.6624,1.813.6282.2431.8196.1738,1.1739-.396.0726-.1166.1463-.2321.2156-.341.2035.011.2838.0847.2046.2685-.055.1276-.1056.2574-.165.3828-.3718.7745-.6568,1.5809-.9318,2.3939-.1298.3807-.3069.7503-.5028,1.1024-.1947.3498-.4973.6084-.8614.7855-.7635.3707-1.6227.0946-2.0298-.6502-.2112-.3862-.2871-.8042-.2695-1.2993-.0946.098-.1518.1595-.2112.219-.1958.1969-.373.4169-.5897.5863-1.0198.7944-2.3895.4555-2.9451-.7173-.3014-.6359-.2651-1.2839-.0363-1.9285.1122-.3157.2585-.6194.3796-.9329.3025-.7767.5985-1.5545.8977-2.3323.0693-.1815.1397-.3619.2101-.5435"></path><path class="st3" d="M9.4307,58.9504c.9923-.0011,2.0133-.264,2.7085-.6975.5754-.3586,1.0308-.8262,1.2553-1.4819.4599-1.3466-.2332-2.7833-1.5908-3.3136-.6645-.2586-1.3521-.3026-2.0518-.2179-.912.1101-1.7602.3807-2.4907.9681-1.5864,1.2773-1.2025,3.6998.6282,4.4336.5138.2057,1.0429.3036,1.5413.3091M13.9215,56.2363c.0187,1.9209-1.3103,3.5359-3.3367,3.8363-1.1816.1749-2.2586-.0253-3.2091-.7756-.8152-.6436-1.2388-1.5105-1.4159-2.5139-.0814-.4588-.1056-.9208-.0429-1.384.2244-1.6381,1.3807-2.89,3.0034-3.2575,1.0781-.2453,2.1189-.1837,3.087.4038,1.0154.6172,1.5677,1.5501,1.791,2.6931.0638.3279.0836.6645.1232.9978"></path><path class="st3" d="M30.5976,17.0956c-.0187-.1716-.0242-.3465-.0572-.516-.2618-1.3092-.9505-2.351-2.0122-3.1431-.2552-.1904-.5589-.329-.8581-.4467-.4973-.1959-1.0121-.2266-1.5336-.0781-1.3455.3828-2.1211,1.6469-1.857,3.0815.2387,1.2982.9197,2.3378,1.9495,3.1475.4632.3652.9989.5875,1.5941.6249,1.4973.0946,2.7614-1.1298,2.7746-2.67M23.3114,16.3694c-.0022-.7745.1584-1.494.5886-2.1254.7778-1.1409,1.8471-1.8439,3.2289-2.0056,1.0121-.1178,1.9319.165,2.7284.7987.7272.5787,1.2344,1.3191,1.4995,2.2102.3443,1.1629.1628,2.2586-.5468,3.2377-.6612.912-1.5611,1.5193-2.6568,1.7867-1.3279.3245-2.5094-.0044-3.4875-.9583-.824-.8053-1.3147-1.7833-1.3543-2.944"></path><path class="st3" d="M61.7763,88.4717c.0044-.5457-.1111-1.066-.3234-1.4786-.8097-1.5699-2.9099-1.7591-3.955-.3576-.7173.9604-.7349,2.5853-.0594,3.5777.9285,1.362,3.0188,1.3509,3.9033-.0825.3146-.5105.4302-1.0682.4346-1.659M55.9566,88.4365c-.0484-1.9494,1.5941-3.4522,3.4456-3.4115,1.9274.0429,3.3829,1.5039,3.3807,3.4555-.0033,2.0771-1.7107,3.4357-3.4588,3.4171-1.7646-.0187-3.4346-1.4566-3.3675-3.4611"></path><path class="st3" d="M92.66,61.26v-.0352c-.0066-.6568-.1529-.8295-.8053-.9516-1.1155-.208-2.2333-.4081-3.3455-.6337-.3598-.0737-.7217-.1837-1.0539-.3367-1.1849-.5456-1.7052-1.5567-1.4775-2.8383.0825-.4687.2211-.9231.4676-1.3378.5622-.9495,1.5941-1.4632,2.6843-1.2883,1.0176.1639,2.0276.3686,3.0419.5545.341.0626.6821.1375,1.0253.1804.4081.0517.5699-.044.7492-.4104.077-.1562.1199-.3278.1991-.4807.0286-.0561.1177-.1144.1782-.1144.1155.0021.143.0979.1221.2024-.0154.0803-.0275.1595-.0495.2376-.242.8966-.4082,1.8075-.5094,2.7305-.0099.0803-.0143.1683-.0517.2354-.0253.0463-.1078.0925-.1573.0858-.0495-.0055-.1232-.077-.1276-.1243-.0165-.1727,0-.3476-.011-.5215-.0286-.4489-.1749-.6414-.6073-.7228-1.3653-.2564-2.7316-.5039-4.1002-.7427-.4049-.0714-.8097-.022-1.2014.1056-.3311.1078-.5996.3069-.7877.5996-.3366.5236-.4775,1.1045-.4379,1.7217.0396.6249.3609,1.088.8834,1.4181.417.264.8801.4103,1.3609.5038,1.0792.209,2.1607.4104,3.2421.6139.6964.132.9153.0088,1.1629-.6535.0319-.087.0429-.1871.0957-.2586.0374-.0506.1386-.099.1903-.0825.0517.0165.1089.1166.1067.1771-.0033.1133-.044.2267-.0759.3378-.1683.5809-.2948,1.1684-.3344,1.7734-.0099.1375-.0308.2773-.0704.4104-.0143.0473-.0979.1045-.1463.1023-.0517-.0033-.1353-.0649-.1441-.1122-.022-.1111-.0077-.2299-.0077-.3455h-.0077Z"></path><path class="st3" d="M65.3923,9.9612c-.0286-.0099-.0561-.0209-.0836-.0308-.6117.692-1.2311,1.3785-1.8581,2.1178.6414.2431,1.2267.4654,1.8471.7008.0319-.9671.0627-1.878.0946-2.7878M65.2911,13.1494c-.6931-.2662-1.3807-.5313-2.0782-.7998-.0693.0639-.1331.1122-.1848.1706-.3454.3905-.6887.7822-1.033,1.1739-.0374.044-.0748.0891-.1089.1353-.3443.4555-.2915.714.2046,1.0088.088.0517.176.1045.2596.154-.0869.2695-.088.2717-.2904.1936-.1298-.0495-.2541-.1122-.3839-.1617-.5391-.2068-1.0792-.4115-1.6194-.6161-.1177-.044-.2365-.0814-.3652-.1254.0132-.1903.0561-.2971.253-.2431.5908.1639,1.0374-.0957,1.4247-.5027.6865-.7217,1.3675-1.4489,2.0496-2.175.8328-.8867,1.6645-1.7745,2.4962-2.6623.0319-.0341.0605-.0704.0946-.1023.0814-.0759.1463-.1981.286-.1497.1595.0539.1353.198.132.3224-.0253,1.2508-.0539,2.5017-.0803,3.7526-.0198.9153-.0352,1.8306-.0583,2.7449-.0165.6414.1991,1.1562.7778,1.4829.0506.0286.1155.0539.1386.099.0275.0539.0418.1408.0154.187-.0231.0407-.1188.0759-.1672.0616-.143-.0429-.2816-.1034-.417-.1694-.7206-.351-1.4742-.6117-2.2366-.8504-.1397-.044-.2739-.1078-.4037-.1606.0055-.2123.0836-.2817.2673-.2288.1441.0418.2915.0803.4401.0946.2651.0264.4137-.0924.4731-.351.011-.0451.0209-.0913.0231-.1364.0308-.7052.0605-1.4104.0913-2.1464"></path><path class="st3" d="M11.4297,38.7617c-.9791.077-1.8911.1496-2.8032.2222-.0066.0253-.0143.0506-.022.0759.7668.5336,1.5226,1.0826,2.3301,1.615.1683-.6502.3234-1.252.4951-1.9131M14.4529,39.6208c.0187-.1793.0506-.3619.0528-.5456.0044-.3421-.1452-.5137-.4786-.4973-.7272.0375-1.4533.1023-2.208.1573-.1903.7283-.3762,1.4401-.571,2.1849.593.4005,1.1673.8086,1.7635,1.1827.3355.2101.5765.1166.7745-.2366.0737-.1298.1265-.2706.187-.4026.2662.0209.2893.0407.2398.2398-.0396.1563-.1001.3081-.1408.4654-.1375.5248-.2706,1.0517-.4049,1.5776-.0253.1013-.0341.208-.0737.3026-.022.0517-.1122.1254-.1353.1144-.0605-.0297-.1221-.0924-.1463-.1562-.0231-.0594,0-.1375.0055-.2069.0231-.3421-.0759-.6435-.3223-.8845-.1815-.1771-.3674-.3532-.571-.5061-1.6865-1.2652-3.3774-2.5237-5.0662-3.7856-.0748-.0551-.1584-.1023-.2189-.1695-.0484-.055-.1089-.1529-.0891-.2013.0286-.0704.1177-.1474.1925-.1606.2156-.0374.4368-.0451.6557-.0649,1.373-.1232,2.7449-.2464,4.1178-.3696.5996-.0528,1.1992-.1089,1.7987-.1584.6557-.0539,1.1452-.341,1.4027-.9681.0176-.0429.0341-.099.0682-.1188.0528-.0297.1243-.055.1804-.0429.0363.0077.0671.0803.0858.1298.011.0286-.0022.0693-.0132.1012-.319.9571-.5644,1.933-.7635,2.9209-.0407.2057-.0715.2057-.3223.099"></path><path class="st3" d="M5.6138,47.5145c.1859-.0483.2662,0,.2871.1485.0165.1144.0319.2311.0638.341.0869.2938.2288.3641.527.2641.0979-.033.1947-.0759.2849-.1254.8108-.4511,1.6194-.9043,2.428-1.3576.0297-.0165.0539-.0407.1045-.0792-.055-.0594-.099-.1221-.1562-.1661-.7085-.5434-1.4159-1.0869-2.1299-1.6238-.5072-.3806-.7679-.2827-.9373.3378-.0121.044-.022.0891-.033.1342-.0264.1078-.0616.209-.2035.1804-.1452-.0297-.1276-.1463-.1177-.2486.0209-.2189.0583-.4367.0715-.6568.0319-.4962.0539-.9934.0759-1.4907.0077-.1595.0011-.3202.0011-.4654.1694-.0781.264-.0539.3069.0925.0154.055.0253.1133.0264.1716.0132.5027.2585.8779.6403,1.1805.9626.7624,1.9242,1.5281,2.8923,2.285.0924.0715.2266.1155.3454.1244.6579.0506,1.318.0869,1.9781.1254.1144.0077.231.0055.3465,0,.2189-.0088.3762-.1199.4533-.3212.0704-.1837.1199-.3752.176-.5632.0594-.2024.0671-.2057.2981-.1177-.0704,1.1232-.1408,2.2421-.2112,3.3609q-.2574.0385-.2871-.1783c-.022-.1606-.0352-.3223-.0704-.4807-.0803-.3631-.2409-.5303-.6106-.5622-.7393-.0626-1.4797-.1045-2.2201-.1419-.1067-.0044-.2244.0484-.3223.1023-.9252.5049-1.8482,1.0154-2.7702,1.5259-.1122.0616-.2178.1332-.3267.2002-.4258.2618-.7118.6216-.7943,1.1265-.0275.1694-.0913.2916-.3102.1969.0638-1.1012.1287-2.2047.1936-3.3192"></path><path class="st3" d="M58.1429,14.1075c-.1353-.0252-.2717-.0395-.4027-.0759-.8405-.2299-1.6986-.3619-2.5633-.4532-.0803-.0077-.1694-.0044-.2376-.0396-.0594-.0297-.1331-.1067-.1309-.1606.0011-.0506.088-.132.1463-.1408.1353-.022.2772-.0044.4159-.011.5182-.0231.7118-.1782.8086-.6821.1254-.6491.2431-1.2982.3432-1.9506.0231-.1507-.0011-.3267-.0583-.4698-.3972-.9879-.8086-1.9714-1.2168-2.955-.0319-.0749-.0693-.1475-.1034-.2212-.2233-.4851-.5578-.8504-1.0902-.9967-.187-.0518-.2541-.1464-.1276-.3433.0836.011.176.0099.2618.0341.8944.2574,1.8163.3564,2.7328.4829.1155.0165.2893-.0242.2871.1683-.0033.2101-.1782.1683-.3113.1749-.5721.0297-.6975.1947-.4885.7195.3564.8933.7371,1.7756,1.11,2.6623.0165.0396.0506.0727.0968.1364.1298-.1386.2475-.2652.3663-.3895.5281-.5544,1.0561-1.1079,1.5853-1.6601.4951-.5193.4434-.769-.2156-1.0341-.1518-.0616-.3333-.0913-.1958-.3641.1078.0109.2332.0077.3498.0385.7294.1937,1.4654.3455,2.2201.3905.0352.0022.0803-.0055.1023.0122.0528.0483.1364.1122.1309.1617-.0055.0572-.0869.1199-.1496.1529-.0451.0242-.1133.0088-.1705.0034-.5149-.0429-.9197.1749-1.2707.528-.604.6095-1.2113,1.2156-1.8163,1.8229-.2376.2387-.4698.4818-.7118.7151-.1232.1188-.1837.2519-.2101.4224-.11.6975-.2431,1.3917-.3531,2.0903-.066.4202.0165.5556.4037.7382.1254.0594.2563.1078.3873.1507.1969.066.1727.1794.0759.3421"></path><path class="st3" d="M82.8615,33.4596c-.0572-.0935-.1243-.1848-.1727-.286-.4037-.8493-.8614-1.6678-1.3785-2.4534-.0451-.0671-.0957-.1364-.1155-.2123-.0154-.055,0-.1595.033-.1749.0583-.0275.1474-.0209.2112.0033.0473.0165.0748.0847.1122.1287.0594.0715.1166.1442.1804.2123.3597.3851.5732.4302,1.0407.1738.8119-.4467,1.6183-.9054,2.4258-1.3587.7679-.4313,1.5358-.8636,2.3026-1.296.1001-.0572.1991-.1199.2893-.1903.1012-.0792.1386-.1849.0825-.3091-.3443-.7734-.8042-1.4368-1.6436-1.7438-.2871-.1056-.582-.1584-.8856-.0935-.1628.0352-.2398-.033-.2706-.2223.3069-.1551.659-.1463.9846-.2321.3223-.0836.6491-.1529.9791-.2299.9846,2.0991,2.109,4.0925,3.384,6.0266-.4973.4103-.9945.8196-1.4896,1.2277-.2145-.1782-.2134-.1782-.0836-.3476.1122-.1463.2299-.2905.33-.4456.2497-.3839.319-.8053.1518-1.2289-.1518-.3862-.3465-.758-.5457-1.1221-.1716-.3136-.3025-.34-.6227-.1618-.7404.4103-1.4764.8273-2.2135,1.241-.8493.4775-1.6986.9516-2.5446,1.4335-.5688.3234-.6403.517-.4368,1.1343.0253.077.0583.1518.0825.2288.0572.1771.0561.1771-.187.2981"></path><path class="st3" d="M86.5943,44.4872c-.2849-.7492-.5996-1.4962-.8537-2.2641-.2695-.8174-.3135-1.6645-.0825-2.5006.4302-1.5556,1.5061-2.439,3.0474-2.7514,1.9329-.3927,3.7449.6326,4.504,2.4852.2937.7184.3785,1.4764.4632,2.2366.0341.3091.0671.6194.1023.9483-.088.0374-.1694.0748-.253.1067-.4533.1738-.9076.3465-1.3631.5182-.088.033-.1804.066-.2376-.0517-.0506-.1056-.0011-.1771.0836-.2343.0187-.0132.0396-.0242.0594-.0363,1.3653-.8218,1.4775-2.7999.3014-3.9407-.5523-.5346-1.2322-.8372-1.9869-.9087-1.329-.1276-2.5347.1969-3.5073,1.1584-.5798.5721-.9516,1.2564-.9186,2.1013.0396,1.0374.5677,2.2399,1.9857,2.6954.143.0462.2893.0825.4357.1177.1375.0341.1969.11.1441.2981-.3047.0077-.6216.0176-.9395.0209-.3113.0044-.6238.0011-.9846.0011"></path><path class="st3" d="M19.4968,17.6147c.5358.3697,1.0495.7228,1.5589,1.0727-.1045.2629-.1078.2706-.3388.1683-.5589-.2498-1.1232-.2476-1.6931-.0528-.967.33-1.6997,1.3235-1.7393,2.3466-.0407,1.0253.3058,1.9121.9791,2.67.8493.956,1.8834,1.5094,3.1992,1.4764,1.6194-.0408,2.7746-1.626,2.6579-2.9187-.0341-.3762-.1507-.7448-.2497-1.1122-.0407-.153-.099-.285.1254-.3983.1903.2618.3795.5193.5677.7778.1914.2607.3817.5225.571.78-.4203.6326-.8218,1.2542-1.241,1.8648-.3652.5325-.8361.9626-1.384,1.3015-1.1221.6965-2.3015.7954-3.5216.285-1.5776-.6612-2.5721-2.2564-2.4511-3.9638.0803-1.1221.5787-2.0671,1.373-2.8493.5028-.4951,1.0418-.9528,1.5864-1.4478"></path><path class="st3" d="M74.4762,19.4803c-.4621.4588-.9098.9043-1.3587,1.3499.0165.0242.0319.0484.0473.0737-.0726-.0286-.1463-.0539-.2167-.0858-.5061-.231-1.011-.462-1.516-.693-.7382-.3367-1.3884-.7932-1.8944-1.4346-.9681-1.2256-1.1155-2.5721-.483-3.9814.5908-1.319,1.6227-2.1243,3.0617-2.3455,1.1166-.1716,2.1431.1244,3.0628.7558.4962.34.9483.7426,1.4192,1.1177.1441.1156.286.2321.4357.3532-.2508.5324-.4984,1.0539-.7426,1.5776-.044.0935-.0935.165-.209.1199-.1221-.0495-.1276-.1364-.0924-.2552.1023-.3378.121-.6799.0484-1.0297-.2849-1.3521-1.6326-2.2729-2.9957-2.0276-1.4467.2597-2.3884,1.1584-3.0001,2.4423-.3696.7778-.4368,1.5919-.2475,2.4401.3311,1.4907,2.1629,2.5072,3.6316,1.9483.2475-.0935.4841-.2211.7195-.3433.1364-.0704.2541-.1133.33.0176"></path><path class="st3" d="M50.9677,90.4849h.6139c.5105,0,1.0209-.0132,1.5303.0022.4148.0132.7448-.1276.9978-.4555.0495-.0638.1023-.1265.1584-.1837.176-.1815.2299-.1738.4368.0539-.2387.5732-.4786,1.1474-.714,1.7096h-4.8153c-.0187-.2014.1177-.2717.2101-.3641.681-.6788,1.3818-1.34,2.0397-2.0397.3389-.3598.6194-.7778.8977-1.1892.1903-.2817.2739-.6084.2486-.9583-.033-.4786-.3003-.8009-.7701-.901-.6073-.1287-1.1474.0264-1.6282.4048-.1353.1078-.2585.2321-.3851.3509-.1045.0968-.2079.087-.3113.0034-.1012-.0837-.0913-.1826-.022-.2773.4181-.56.8559-1.1068,1.5061-1.4115.648-.3025,1.3081-.2773,1.9461.0363.8559.4213,1.274,1.5006.725,2.3928-.1925.3135-.4192.6161-.6788.8757-.5655.5644-1.1618,1.0969-1.7459,1.6425-.0847.0792-.1705.1563-.2563.2332.0055.0253.011.0496.0165.0748"></path><path class="st3" d="M94.356,45.5442v3.4941c-.1463.0671-.2486.0539-.2827-.1221-.0286-.1474-.0517-.297-.0902-.4422-.1232-.4708-.275-.5963-.7547-.5985-1.3554-.0055-2.7119-.0055-4.0683-.0077-.4522,0-.9032-.0034-1.3554.0033-.4544.0077-.6326.1771-.648.6304-.0132.3938-.0143.7888,0,1.1826.0198.5776.2563,1.0551.7327,1.3928.2354.1672.4918.3047.7404.4543.0594.0353.1397.0517.1782.1023.0418.0539.0693.143.0561.2068-.0088.0407-.1001.0693-.1595.0902-.0286.0109-.0682-.0077-.1023-.0143-.6095-.1309-1.2201-.2607-1.8383-.3927v-5.9617c.2508-.0616.2585-.0584.2992.1452.0308.1595.0517.3212.0968.4764.11.3784.2783.5181.6744.528.5677.0154,1.1353.0121,1.703.0132,1.1133.0033,2.2256.0044,3.3378.0054.1628,0,.3245-.0099.4874-.0121.3091-.0033.4984-.1694.5842-.4532.0561-.1881.0924-.3829.1265-.5765.0308-.1716.1232-.2057.2827-.1442"></path><path class="st3" d="M9.0642,32.4885c.1144-.2024.2211-.3806.3179-.5643.3465-.6535.6898-1.3092,1.033-1.966.0693-.1331.1342-.2695.2002-.4038.0462-.0935.1111-.1529.2211-.1056.1056.0462.1221.1221.0825.2277-.0484.1298-.088.264-.1232.3972-.1287.4841-.0594.6766.3796.9153.8647.4698,1.7371.9252,2.6073,1.3851.6854.363,1.3719.7261,2.0584,1.0869.0814.044.1628.0891.2497.121.2816.1034.5149.0528.6634-.2079.2629-.4621.516-.9329.7261-1.4214.1694-.3971.1375-.8229-.0528-1.2156-.1353-.2805-.3058-.5435-.4621-.8141-.0352-.0594-.0803-.1133-.1199-.1706-.0605-.088-.0649-.1705.0209-.2464.0891-.0792.165-.0483.2442.0209.2717.2354.5424.4708.8185.6997.2222.1837.4522.3564.6953.5468-.1067.1947-.2002.3784-.3036.5556-.846,1.4522-1.6139,2.9462-2.3444,4.4578-.0308.0627-.0473.1419-.0968.1826-.0506.0429-.1496.0825-.198.0606-.0473-.022-.0858-.1276-.0781-.1904.0143-.1122.0682-.22.1012-.3311.1672-.5765.0792-.7954-.4478-1.076-.9505-.5061-1.9032-1.0066-2.856-1.5105-.5017-.2652-1.0022-.5303-1.5039-.7965-.0715-.0374-.143-.077-.2156-.1122-.4819-.2333-.6766-.1947-1.0297.2134-.0836.0958-.1595.1992-.2343.3014-.1188.1628-.2233.1166-.3531-.0396"></path><path class="st3" d="M48.2823,85.277c-.0462.1607-.0737.3048-.1276.439-1.044,2.6128-2.0903,5.2245-3.1365,7.8363-.1419.3553-.2805.7107-.428,1.0627-.1089.2618-.3598.3752-.6183.2893-.1276-.0429-.1991-.121-.1463-.2629.0418-.1078.0891-.2145.1342-.3202,1.0506-2.4478,2.1013-4.8945,3.1508-7.3423.0495-.1156.0924-.2333.1496-.3807-.1133-.0099-.1991-.0242-.286-.0242-.8691-.0011-1.7382.0044-2.6073-.0033-.5281-.0044-.9076.2211-1.1562.6832-.1375.253-.1562.2552-.4423.1287.1694-.6975.3388-1.3994.5094-2.1057h5.0046Z"></path><path class="st3" d="M37.6377,85.2729h3.7988c.0671.2652.0572.2971-.154.3465-.1903.044-.385.0727-.5776.1111-.2574.0517-.4048.22-.4566.4665-.0352.1683-.0594.3433-.0605.5149-.0055,1.1463-.0033,2.2938-.0033,3.4402,0,.0352,0,.0693.0011.1045.0231.6788.1947.8713.8713.9759.0913.0143.1848.0165.275.0341.121.0242.1749.1023.1617.2266-.0121.1144-.0803.1584-.1881.1562-.1276-.0033-.2552.0011-.3817-.0088-.9252-.0792-1.8504-.0781-2.7757-.0011-.1694.0143-.341.0021-.5039.0021-.0682-.3179-.0528-.3476.1848-.3894.1584-.0275.3212-.044.4775-.0814.3498-.0836.5094-.2618.5523-.6238.022-.1837.0308-.3696.0308-.5544.0033-1.0308.0033-2.0617.0011-3.0925,0-.1617-.0099-.3245-.0253-.4851-.044-.4532-.2068-.6347-.6524-.7261-.1364-.0286-.2761-.0396-.4115-.0682-.2222-.0462-.2222-.0506-.1639-.3477"></path><path class="st3" d="M74.2384,83.1132c-.9736.0022-1.7778-.8019-1.7679-1.7679.011-.9582.7998-1.7371,1.7613-1.7393.9736-.0021,1.7778.8031,1.7668,1.7679-.0099.9583-.7987,1.7372-1.7602,1.7393"></path><path class="st3" d="M27.0441,81.2043c.0088.9803-.7745,1.7701-1.7536,1.7701-.967-.0011-1.7437-.7723-1.7525-1.7382-.0088-.9803.7745-1.7701,1.7547-1.7691.9659,0,1.7426.7712,1.7514,1.7371"></path></svg> 