<?xml version="1.0" encoding="UTF-8" standalone="no"?>
<!-- Created with Inkscape (http://www.inkscape.org/) -->

<svg
   xmlns:dc="http://purl.org/dc/elements/1.1/"
   xmlns:cc="http://creativecommons.org/ns#"
   xmlns:rdf="http://www.w3.org/1999/02/22-rdf-syntax-ns#"
   xmlns:svg="http://www.w3.org/2000/svg"
   xmlns="http://www.w3.org/2000/svg"
   xmlns:sodipodi="http://sodipodi.sourceforge.net/DTD/sodipodi-0.dtd"
   xmlns:inkscape="http://www.inkscape.org/namespaces/inkscape"
   width="200"
   height="150"
   id="svg2"
   version="1.1"
   inkscape:version="0.48.0 r9654"
   sodipodi:docname="Documento nuevo 1">
  <defs
     id="defs4" />
  <sodipodi:namedview
     id="base"
     pagecolor="#ffffff"
     bordercolor="#666666"
     borderopacity="1.0"
     inkscape:pageopacity="0.0"
     inkscape:pageshadow="2"
     inkscape:zoom="0.49765625"
     inkscape:cx="350"
     inkscape:cy="270.42172"
     inkscape:document-units="px"
     inkscape:current-layer="layer1"
     showgrid="false"
     inkscape:window-width="697"
     inkscape:window-height="563"
     inkscape:window-x="75"
     inkscape:window-y="75"
     inkscape:window-maximized="0" />
  <metadata
     id="metadata7">
    <rdf:RDF>
      <cc:Work
         rdf:about="">
        <dc:format>image/svg+xml</dc:format>
        <dc:type
           rdf:resource="http://purl.org/dc/dcmitype/StillImage" />
        <dc:title></dc:title>
      </cc:Work>
    </rdf:RDF>
  </metadata>
  <g
     inkscape:label="Capa 1"
     inkscape:groupmode="layer"
     id="layer1"
     transform="translate(0,-902.36218)">
    <g
       id="1"
       transform="translate(5.1156555,915.45323)">
      <path
         d="m 184.66423,88.687505 2.74966,-7.875 -9.37382,0.125 -1.74978,0.1875 -1.5623,0.375 -1.49982,0.5 -1.31233,0.6875 -1.31233,0.75 -1.06237,0.9375 -1.06237,1.0625 -0.81239,1.1875 0,28.312505 8.12397,0 0,-22.125004 0.74991,-1.1875 0.68741,-0.937501 0.8124,-0.6875 0.87489,-0.5 0.93738,-0.25 4.81189,-0.5625 z"
         style="fill:#000000;fill-opacity:1;fill-rule:evenodd;stroke:none"
         id="2"
         inkscape:connector-curvature="0" />
      <path
         d="m 144.54429,104.37501 -0.56243,-0.875 -0.43745,-0.8125 -0.37495,-0.9375 -0.18747,-0.875 20.5599,0 0.12499,-1.437504 0.0625,-1.375 -0.0625,-1.75 -0.18748,-1.625 -0.31246,-1.3125 -0.31246,-1.1875 -0.37495,-1.1875 -0.43745,-1.062501 -0.56243,-1.125 -0.62492,-1 -0.68741,-1 -0.74991,-0.9375 -1.12485,-1.25 -1.12486,-1 -1.24984,-0.875 -1.18735,-0.6875 -1.31234,-0.5625 -0.68741,-0.25 -0.62492,-0.125 -0.74991,-0.1875 -0.68741,-0.0625 -1.43732,-0.0625 -1.56231,0.0625 -1.43731,0.25 -1.37483,0.375 -1.24984,0.5625 -1.31234,0.6875 -1.18735,0.875 -1.12486,1 -1.06236,1.25 -1.06237,1.25 -0.8124,1.375 -0.7499,1.375 -0.56243,1.562501 -0.49994,1.5 -0.31246,1.625 -0.18748,1.6875 -0.0625,1.8125 0.0625,1.6875 0.18748,1.687504 0.31246,1.625 0.18748,0.75 0.31246,0.8125 0.56243,1.4375 0.31246,0.6875 0.43744,0.75 0.8124,1.375 1.06237,1.375 1.06236,1.125 1.12486,1.0625 1.18735,0.8125 1.31234,0.75 1.24984,0.5 1.37483,0.4375 1.43731,0.25 1.56231,0.125 0.12498,-0.0625 0.18748,0 0.37495,0 0.74991,-0.0625 0.68741,-0.125 0.74991,-0.125 0.62492,-0.25 0.31246,-0.125 0.37495,-0.0625 0.62492,-0.25 0.68742,-0.25 0.56242,-0.375 0.62493,-0.375 1.24984,-0.8125 1.12486,-1.0625 1.12485,-1.125 0.68742,-0.875 0.62492,-0.875 -6.49918,-4.6875 -0.37495,0.5625 -0.31247,0.25 -0.24996,0.3125 -0.49994,0.5 -0.62492,0.4375 -0.49994,0.375 -0.62492,0.25 -0.56243,0.25 -1.24984,0.25 -1.37483,-0.25 -1.18735,-0.5 -0.62492,-0.375 -0.56243,-0.4375 -0.49994,-0.5 -0.43744,-0.5625 z m 9.31133,-12.687504 0.43744,0.6875 0.37495,0.75 0.62492,1.5625 -12.18596,0 0.56243,-1.5625 0.87489,-1.4375 0.93738,-1.187501 1.18735,-0.75 1.18735,-0.5 1.37483,-0.125 1.24984,0.125 0.56243,0.1875 0.62492,0.3125 1.12486,0.75 0.49994,0.500001 0.56243,0.6875 z"
         style="fill:#000000;fill-opacity:1;fill-rule:evenodd;stroke:none"
         id="3"
         inkscape:connector-curvature="0" />
      <path
         d="m 114.17312,80.812505 -1.56231,0.125 -1.99975,0.0625 -1.81227,0.3125 -1.68729,0.4375 -1.5623,0.6875 -1.43732,0.8125 -1.31233,1 -1.18735,1.125 -0.56243,0.625 -0.43745,0.75 0,39.250005 8.18647,0 0,-13.375 0.31246,0.6875 0.56243,0.625 0.68742,0.4375 0.81239,0.4375 0.93738,0.1875 0.49994,0.0625 0.62492,0.125 0.56243,0 0.68742,0.0625 1.43731,-0.0625 1.12486,-0.25 0.24997,-0.125 0.12499,-0.0625 0.18747,0 0.62492,-0.125 1.12486,-0.4375 1.12486,-0.5625 0.99987,-0.6875 0.99988,-0.8125 0.43744,-0.5 0.49994,-0.4375 0.99987,-0.9375 0.93739,-1.375 0.87489,-1.375 0.31246,-0.75 0.37495,-0.6875 0.31246,-0.75 0.37495,-0.6875 0,-0.25 0,-0.125 0.0625,-0.0625 0.12499,-0.375 0.24997,-0.75 0.31246,-1.625 0.0625,-0.875 0.12498,-0.812504 0.0625,-0.875 0,-0.4375 0.0625,-0.375 -0.12499,-1.8125 -0.18747,-1.6875 -0.31246,-1.625 -0.43745,-1.5 -0.68741,-1.562501 -0.68741,-1.375 -0.87489,-1.375 -0.93739,-1.25 -1.12485,-1.25 -1.12486,-1 -1.24985,-0.875 -1.18735,-0.6875 -1.37482,-0.5625 -0.68742,-0.25 -0.62492,-0.125 -0.7499,-0.1875 -0.68742,-0.0625 -1.43731,-0.0625 z m 0,8.3125 0.62492,0 0.68741,0.125 0.56243,0.1875 0.62492,0.3125 1.12486,0.75 0.49994,0.500001 0.56242,0.6875 0.74991,1.3125 0.62492,1.5625 0.37495,1.6875 0.12499,1.8125 -0.0625,0.375 0,0.4375 -0.0625,0.875 -0.12498,0.375004 -0.0625,0 0,0.0625 0,0.125 0,0.25 -0.18748,0.875 -0.31246,0.75 -0.31246,0.75 -0.37495,0.6875 -0.37496,0.75 -0.31246,0.25 -0.24996,0.3125 -0.49994,0.5 -0.62492,0.4375 -0.49994,0.375 -0.62492,0.25 -0.56243,0.25 -0.68741,0.125 -0.62492,0.125 -1.37483,-0.25 -1.18735,-0.5 -0.62492,-0.375 -0.49994,-0.4375 -0.49994,-0.5 -0.43744,-0.5625 -0.74991,-1.25 0,-10.187504 0.31246,-0.6875 0.43745,-0.5625 0.93738,-1.187501 1.12486,-0.75 1.18735,-0.5 1.37483,-0.125 z"
         style="fill:#000000;fill-opacity:1;fill-rule:evenodd;stroke:none"
         id="4"
         inkscape:connector-curvature="0" />
      <path
         d="m 80.614843,80.812505 -1.562303,0.125 -1.999748,0.0625 -1.812272,0.3125 -1.687287,0.4375 -1.562303,0.6875 -1.437319,0.8125 -1.312335,1 -1.18735,1.125 -0.562429,0.625 -0.437445,0.75 0,39.250005 8.186468,0 0,-13.375 0.312461,0.6875 0.562429,0.625 0.687413,0.4375 0.812398,0.4375 0.937382,0.1875 0.499937,0.0625 0.624921,0.125 0.562429,0 0.687414,0.0625 1.437319,-0.0625 1.124858,-0.25 0.249968,-0.125 0.124985,-0.0625 0.187476,0 0.624921,-0.125 1.124859,-0.4375 1.124858,-0.5625 0.999874,-0.6875 0.999874,-0.8125 0.437445,-0.5 0.499937,-0.4375 0.999874,-0.9375 0.937382,-1.375 0.87489,-1.375 0.31246,-0.75 0.374953,-0.6875 0.312461,-0.75 0.374952,-0.6875 0,-0.25 0,-0.125 0.06249,-0.0625 0.124985,-0.375 0.249968,-0.75 0.312461,-1.625 0.06249,-0.875 0.124984,-0.812504 0.06249,-0.875 0,-0.4375 0.06249,-0.375 -0.124984,-1.8125 -0.187476,-1.6875 -0.312461,-1.625 -0.437445,-1.5 -0.687413,-1.562501 -0.687413,-1.375 -0.87489,-1.375 -0.937382,-1.25 -1.124858,-1.25 -1.124859,-1 -1.249842,-0.875 -1.187351,-0.6875 -1.374826,-0.5625 -0.687414,-0.25 -0.624921,-0.125 -0.749906,-0.1875 -0.687413,-0.0625 -1.437319,-0.0625 z m -5.374323,12.125001 0.312461,-0.6875 0.437445,-0.5625 0.937382,-1.187501 1.124858,-0.75 1.18735,-0.5 1.374827,-0.125 0.624921,0 0.687414,0.125 0.562429,0.1875 0.624921,0.3125 0.499937,0.3125 0.562429,0.4375 0.499937,0.500001 0.562429,0.6875 0.812398,1.3125 0.624921,1.5625 0.374953,1.6875 0.124984,1.8125 -0.06249,0.375 0,0.4375 -0.06249,0.875 -0.124984,0.375004 -0.06249,0 0,0.0625 0,0.125 0,0.25 -0.187477,0.875 -0.31246,0.75 -0.312461,0.75 -0.249968,0.3125 -0.187477,0.375 -0.374953,0.75 -0.31246,0.25 -0.249969,0.3125 -0.499937,0.5 -0.124984,0 -0.06249,0 0,0.0625 -0.124984,0.125 -0.249969,0.25 -0.499937,0.375 -0.624921,0.25 -0.562429,0.25 -0.687414,0.125 -0.624921,0.125 -1.374827,-0.25 -1.18735,-0.5 -0.624921,-0.375 -0.499937,-0.4375 -0.499937,-0.5 -0.437445,-0.5625 -0.749906,-1.25 0,-10.187504 z"
         style="fill:#000000;fill-opacity:1;fill-rule:evenodd;stroke:none"
         id="5"
         inkscape:connector-curvature="0" />
      <path
         d="m 34.68313,80.875005 0,-8.187501 -34.68313,0 0,8.187501 13.248331,0 0,34.437505 8.123976,0 0,-34.437505 13.310823,0 z"
         style="fill:#000000;fill-opacity:1;fill-rule:evenodd;stroke:none"
         id="6"
         inkscape:connector-curvature="0" />
      <path
         d="m 36.182941,85.875005 -1.062366,1.25 -0.812398,1.375 -0.749905,1.375 -0.562429,1.562501 -0.499937,1.5 -0.312461,1.625 -0.187476,1.6875 -0.06249,1.8125 0.06249,1.6875 0.187476,1.687504 0.312461,1.625 0.187476,0.75 0.312461,0.8125 0.562429,1.4375 0.312461,0.6875 0.437444,0.75 0.812398,1.375 1.062366,1.375 1.062366,1.125 1.124859,1.0625 1.18735,0.8125 1.312335,0.75 1.249842,0.5 1.374827,0.4375 1.437319,0.25 1.499811,0.125 0.124984,-0.0625 0.187477,0 0.374952,0 0.749906,-0.0625 0.687413,-0.125 0.749906,-0.125 0.624921,-0.25 0.312461,-0.125 0.374952,-0.0625 1.374827,-0.5 0.562429,-0.375 0.624922,-0.375 1.249842,-0.8125 1.124858,-1.0625 1.124859,-1.125 0.937382,-1.375 0.874889,-1.375 0.312461,-0.75 0.374953,-0.6875 0.31246,-0.75 0.374953,-0.6875 0,-0.25 0,-0.125 0.06249,-0.0625 0.124985,-0.375 0.249968,-0.75 0.312461,-1.625 0.06249,-0.875 0.124984,-0.812504 0.06249,-0.875 0,-0.4375 0.06249,-0.375 -0.124984,-1.8125 -0.187476,-1.6875 -0.312461,-1.625 -0.437445,-1.5 -0.687413,-1.562501 -0.687414,-1.375 -0.874889,-1.375 -0.937382,-1.25 -1.124859,-1.25 -1.124858,-1 -1.249842,-0.875 -1.187351,-0.6875 -1.374827,-0.5625 -0.687413,-0.25 -0.624921,-0.125 -0.749906,-0.1875 -0.687413,-0.0625 -1.437319,-0.0625 -1.499811,0.0625 -1.437319,0.25 -1.374827,0.375 -1.249842,0.5625 -1.312335,0.6875 -1.18735,0.875 -1.124859,1 -1.062366,1.25 z m 5.624292,18.500005 -0.499937,-0.75 -0.374953,-0.6875 -0.374953,-0.75 -0.249968,-0.75 -0.249969,-0.875 -0.124984,-0.812504 -0.06249,-1.6875 0.06249,-1.8125 0.374953,-1.6875 0.624921,-1.5625 0.87489,-1.3125 0.937382,-1.187501 1.124858,-0.75 1.18735,-0.5 1.374827,-0.125 0.624921,0 0.687414,0.125 0.562429,0.1875 0.624921,0.3125 1.124858,0.75 0.499937,0.500001 0.562429,0.6875 0.749906,1.3125 0.624921,1.5625 0.374953,1.6875 0.124984,1.8125 -0.06249,0.375 0,0.4375 -0.06249,0.875 -0.124984,0.375004 -0.06249,0 0,0.0625 0,0.125 0,0.25 -0.187477,0.875 -0.31246,0.75 -0.312461,0.75 -0.374953,0.6875 -0.374953,0.75 -0.31246,0.25 -0.249969,0.3125 -0.499937,0.5 -0.624921,0.4375 -0.499937,0.375 -0.624921,0.25 -0.562429,0.25 -0.687414,0.125 -0.624921,0.125 -1.374827,-0.25 -1.18735,-0.5 -0.624921,-0.375 -0.499937,-0.4375 -0.499938,-0.5 -0.437444,-0.5625 z"
         style="fill:#000000;fill-opacity:1;fill-rule:evenodd;stroke:none"
         id="7"
         inkscape:connector-curvature="0" />
      <path
         d="m 140.79476,0.25000002 -0.0625,0.31250001 0.0625,0.87500007 0.0625,1 -0.18747,0.8750001 -0.12499,0.4375 -0.0625,0.5000001 -0.43744,0.875 -0.49994,0.8750001 -0.37495,0.375 -0.12499,0.0625 -0.0625,0.125 -0.12498,0.25 -0.68742,0.8750001 -0.93738,0.75 -0.56243,0.375 -0.49994,0.4375001 -1.18735,0.7500004 -1.18735,0.75 -1.43732,0.625 -1.5623,0.75 -1.68729,0.625 -1.74978,0.75 -1.06236,0.25 -0.99988,0.3125 -2.12473,0.625 -1.18735,0.25 -1.12486,0.3125 -2.31221,0.625 -2.56217,0.5 -1.31234,0.25 -0.68741,0.125 -0.62492,0.1875 -2.81215,0.5 -2.87464,0.5 -3.1246,0.375 -3.1871,0.5 -3.312084,0.375 -1.749779,0.1875 -1.687288,0.25 -1.874763,0.125 -0.499937,0 -0.437445,0.0625 -0.87489,0.125 -3.687035,0.375 -1.937256,0.125 -0.999874,0.0625 -0.937382,0.125 -3.937004,0.375 -0.249969,0 -0.124984,0.1875 -0.124984,0.0625 0,0.25 0.124984,0.3125 0.374953,0.125 43.307047,0 6.87413,-0.125 6.74915,0.0625 6.56167,0.0625 6.3742,0.3125 6.12423,0.3125 5.93675,0.4375 5.74928,0.5 5.62429,0.6875 1.74978,0.25 1.49981,0.375001 1.24984,0.375 1.12486,0.375 0.8124,0.375 0.62492,0.375 0.37495,0.375 0.18748,0.4375 -0.24997,0.375 -0.37495,0.4375 -0.62493,0.4375 -0.81239,0.5 -1.12486,0.5 -1.31234,0.5 -1.49981,0.5625 -1.74978,0.625 -0.93738,0.125 -0.49994,0.0625 -0.43744,0.125 -1.93726,0.375 -1.06236,0.125 -0.31246,0 -0.24997,0.0625 -0.49994,0.125 -1.12486,0.125 -1.12486,0.1875 -1.24984,0.0625 -1.24984,0.125 -2.62467,0.25 -0.74991,0 -0.37495,0 -0.31246,0.0625 -1.37483,0.125 -2.93713,0.25 -1.62479,0 -0.8124,0 -0.7499,0.0625 -3.31209,0.125 -3.49956,0 -1.81227,0 -0.93738,0 -0.87489,0.0625 -0.99987,-0.0625 -0.93738,0 -1.93726,0 -3.9995,0 -2.12473,-0.0625 -2.06224,0 -2.12473,-0.0625 -2.12473,0 -70.741091,-0.875 -0.312461,0.125 -0.124984,0.125 0,0.25 0,0.125 0.124984,0.1875 0.06249,0.0625 0.249969,0.0625 5.561799,0.375 5.374323,0.5 5.124354,0.5 4.936878,0.5625 4.68691,0.5625 4.499433,0.625 4.311957,0.625 4.12448,0.75 3.81202,0.6875 3.624543,0.75 3.437066,0.75 3.24959,0.875 2.93713,0.812501 2.74966,0.9375 2.56217,0.9375 2.37471,1 1.99974,0.9375 1.87477,1 1.62479,1 1.43732,1.125 1.18735,1.0625 0.99988,1.1875 0.81239,1.1875 0.62492,1.25 0.31247,1.1875 0.12498,1.25 -0.0625,1.3125 -0.24997,1.375001 -0.49994,1.375 -0.68741,1.4375 -0.93738,1.4375 -1.06237,1.5 -0.0625,0.25 0.12498,0.375 0.24997,0.125 0.12499,-0.0625 0.18747,0 5.93675,-3.3125 6.12423,-3.1875 6.31171,-3.187501 6.56167,-3 6.62417,-3.0625 6.87413,-2.875 7.06161,-2.875 7.24909,-2.750001 0.0625,-0.0625 2.24972,-1.5 0.99987,-0.75 0.99987,-0.6875 0.87489,-0.75 0.8124,-0.75 1.49981,-1.375 0.56243,-0.75 0.49994,-0.75 0.87489,-1.375 0.31246,-0.75 0.24997,-0.75 0.18747,-0.75 0.12499,-0.625 0,-0.75 -0.0625,-0.75 -0.24997,-1.5 -0.24997,-0.75 -0.31246,-0.750001 -0.37496,-0.75 -0.43744,-0.625 -0.56243,-0.75 -0.62492,-0.75 -1.37483,-1.375 -1.74978,-1.5 -0.93738,-0.75 -0.99987,-0.625 -1.31234,-0.875 -1.43732,-0.75 -1.5623,-0.75 -1.68729,-0.6875 -1.87476,-0.75 -1.93726,-0.625 -2.06224,-0.625 -2.18722,-0.5625 -1.18735,-0.375 -1.18735,-0.375 -1.24984,-0.5 -1.24985,-0.4375 -1.37482,-0.6250004 -1.37483,-0.5625001 -0.74991,-0.375 -0.37495,-0.1875 -0.31246,-0.125 -1.43732,-0.625 -0.43744,-0.2500001 -0.37496,-0.1875 -0.7499,-0.375 -0.43745,-0.25 -0.37495,-0.1875 -0.7499,-0.375 -1.6248,-0.8750001 -1.6248,-0.875 -1.74977,-1.0000001 -1.74978,-1.0000001 -1.81228,-1.125 L 141.48217,0.0625 141.23221,0 l -0.12499,0.0625 -0.31246,0.18750002 z"
         style="fill:#000000;fill-opacity:1;fill-rule:evenodd;stroke:none"
         id="8"
         inkscape:connector-curvature="0" />
    </g>
  </g>
</svg>
