<svg xmlns="http://www.w3.org/2000/svg" xmlns:xlink="http://www.w3.org/1999/xlink" width="222.1" height="216.26" viewBox="0 0 222.1 216.26"><defs><style>.cls-1{fill:none;}.cls-2{fill:#fff;}.cls-3{clip-path:url(#clip-path);}</style><clipPath id="clip-path"><path class="cls-1" d="M55.37,151.82v2.9c5.57-1.94,10-4.89,11.87-8.76-2.64,2.56-6.88,4.55-11.87,5.86m-43.89-9.18c.29,14.65,27.23,17.88,43.89,12.08v-2.9c-15.07,3.94-37.12,1.77-43.89-9.18Zm43.89-21a42.6,42.6,0,0,0-11.88,1.65,50.23,50.23,0,0,1,11.88.24c33.17,4.79,39.56,43.88,104.84,24.91,28.23-8.21,40.91-10.29,54.5-5.38-11.15-6-26.27-9.61-54.5-1.4-59.2,17.2-66.47-10.5-87.66-17.34a55.89,55.89,0,0,0-16.92-2.68h-.26"/></clipPath></defs><title>itca-logo</title><g id="Layer_2" data-name="Layer 2"><g id="Layer_1-2" data-name="Layer 1"><path class="cls-2" d="M91.67,103.9C100.58,93.84,117.24,74.25,126,59c4.62-8,8.83-16.06,12.44-23.36a90.16,90.16,0,0,0-7.88-17.77s-7.48,19.77-24.51,45.25C96.15,78,82.25,92.6,75.7,99.19a68.36,68.36,0,0,1,7.63,1.57A48.74,48.74,0,0,1,91.67,103.9Z"/><path class="cls-2" d="M154.61,8.46s-5,12.43-13,28.53c-3.61,7.3-7.81,15.36-12.43,23.36-8.78,15.21-25.44,34.8-34.35,44.86a150,150,0,0,1,13.81,7.94c5-6.38,25.44-32.73,37.68-52.84l.3-.48a296,296,0,0,0,16.71-32.34A109.06,109.06,0,0,0,154.61,8.46Z"/><path class="cls-2" d="M196.62,59.06C194.32,26.64,177.82,0,177.82,0s-4.12,12.65-11.53,29.27a296,296,0,0,1-16.71,32.34c-.09.16-.19.32-.29.48C137,82.2,116.61,108.55,111.61,114.93l2.09,1.28c7.09,4.31,14.65,8.38,24.16,10.1,8.88,1.61,19.47,1.17,33-3,8.56-2.67,16.57-5.15,23.79-7A276.09,276.09,0,0,0,196.62,59.06Zm-11.87,8.66.18,2.1c-5.51.54-7.7.38-9.1.18a26,26,0,0,1-8.47-2.68,50.72,50.72,0,0,1-7.16-5l1.4-1.64c1.14.91,2.62,1.92,2.62,1.92,5.33-7.47,5.67-17.35,5.67-17.35a38.17,38.17,0,0,1,16.55,5s-5.34,8.49-4.87,17.6A30.74,30.74,0,0,0,184.75,67.72Z"/><path class="cls-2" d="M58.57,103.54c-22.75,0-46.51,7.24-45.77,23.27,1.3,28.38,67.37,23.56,60.29,2.93-.71,10-34.79,13-37.51-2.52-2.06-11.74,23.78-15.88,41-10.31,21.18,6.84,28.45,34.54,87.65,17.33,28.24-8.2,46.72-15.17,57.87-9.14-7-10.75-29.48-4.58-58,3.41-44.63,12.54-56.71-14.44-80.8-21.71a88.43,88.43,0,0,0-24.8-3.26h0"/><path class="cls-2" d="M55.37,151.82v2.9c5.57-1.94,10-4.89,11.87-8.76-2.64,2.56-6.88,4.55-11.87,5.86m-43.89-9.18c.29,14.65,27.23,17.88,43.89,12.08v-2.9c-15.07,3.94-37.12,1.77-43.89-9.18Zm43.89-21a42.6,42.6,0,0,0-11.88,1.65,50.23,50.23,0,0,1,11.88.24c33.17,4.79,39.56,43.88,104.84,24.91,28.23-8.21,40.91-10.29,54.5-5.38-11.15-6-26.27-9.61-54.5-1.4-59.2,17.2-66.47-10.5-87.66-17.34a55.89,55.89,0,0,0-16.92-2.68h-.26"/><g class="cls-3"><rect class="cls-2" x="11.48" y="121.66" width="203.23" height="45.77"/></g><path class="cls-2" d="M6.2,63.59H0l7.3-32.26h6.2Z"/><path class="cls-2" d="M24.78,63.59H18.59l6.1-27H15.23l1.2-5.29H41.55l-1.2,5.29H30.89Z"/><path class="cls-2" d="M61.13,42.13l.39-1.77c.85-3.74-.55-4-6-4-6.24,0-7.55,1-9,7.36L45,50.86c-1.42,6.45-.93,7.69,5.57,7.69,5,0,7.26-.17,8.3-4.77l.4-1.76h6.19L65,54.12c-2.07,9.72-7.54,9.38-15.62,9.72-11.45.43-12.63-3.31-10.62-12.73l1.67-7.39c2.34-10.33,6.86-12.65,16.37-12.65,8,0,12.63.05,11,9.29l-.4,1.77Z"/><path class="cls-2" d="M73.91,57.48l-3.4,6.11H64.1l18-32.26h9.12l3.62,32.26H88.57l-.73-6.11ZM85.77,36.06h-.09L76.39,52.79H87.53Z"/><path class="cls-2" d="M.64,170.88H2.39V189H.64Z"/><path class="cls-2" d="M5.61,176.24h1.6v1.65h0C8,176.51,8.89,176,10.74,176c3,0,3.75,1.47,3.75,4v9h-1.6v-8.63c0-1.48-.32-2.88-2.42-2.88s-3.31.75-3.31,3.45v8H5.61Z"/><path class="cls-2" d="M17.62,177.69H16.29v-1.45h1.33v-3h1.6v3h4.13v1.45H19.22v8.53c0,1.05.33,1.53,1.38,1.53s1.72-.23,1.72-3.06h1.45c0,4.08-1.3,4.51-3.15,4.51-2.35,0-3-.73-3-2.63Z"/><path class="cls-2" d="M27,183v1.18c0,2.77.48,3.58,2.68,3.58,2.57,0,3.12,0,3.12-2.56h1.6v.48c0,2.55-.62,3.53-4.45,3.53-4.2,0-4.7-1.41-4.7-6.58S26.15,176,30,176s4.45,1.55,4.45,5v2Zm5.8-1.6c0-2.7-.05-3.9-2.9-3.9s-2.9,1.2-2.9,3.9Z"/><path class="cls-2" d="M37.11,176.24h1.6v1.55h0a2.78,2.78,0,0,1,3-1.75c2,0,2.95.87,2.95,3.42v1H43.21c0-2.35-.25-3-2.08-3-1.6,0-2.42.87-2.42,2.63V189h-1.6Z"/><path class="cls-2" d="M46.36,176.24H48v1.65h0c.8-1.38,1.68-1.85,3.53-1.85,3,0,3.75,1.47,3.75,4v9h-1.6v-8.63c0-1.48-.32-2.88-2.43-2.88S48,178.28,48,181v8h-1.6Z"/><path class="cls-2" d="M65.42,187.9c-.92,1-1.85,1.3-3.73,1.3-3.25,0-4-1.55-4-4s.57-4,4-4c2.43,0,3,.28,3.53,1.15h0V180c0-1.88-.17-2.53-2.83-2.53s-2.67.65-2.67,2.28h-1.6v-.68c0-1.55.37-3,4.35-3,3.55,0,4.35,1.15,4.35,3.63V189H65.42Zm-3-.3c2.13,0,3-.53,3-2.48s-.92-2.48-3-2.48-3,.53-3,2.48.82,2.48,2.95,2.48Z"/><path class="cls-2" d="M70,177.69H68.62v-1.45H70v-3h1.6v3h4.13v1.45H71.55v8.53c0,1.05.32,1.53,1.38,1.53s1.72-.23,1.72-3.06H76.1c0,4.08-1.3,4.51-3.15,4.51-2.35,0-3-.73-3-2.63Z"/><path class="cls-2" d="M78.28,170.88h1.6V173h-1.6Zm0,5.36h1.6V189h-1.6Z"/><path class="cls-2" d="M87.43,176c4.21,0,4.71,1.5,4.71,6.58,0,5.28-.55,6.58-4.71,6.58s-4.7-1.3-4.7-6.58C82.73,177.54,83.23,176,87.43,176Zm0,11.71c2.56,0,3-.38,3-5.13s-.4-5.13-3-5.13-3,.37-3,5.13.45,5.17,3,5.17Z"/><path class="cls-2" d="M94.56,176.24h1.6v1.65h0c.8-1.38,1.68-1.85,3.53-1.85,3,0,3.75,1.47,3.75,4v9h-1.6v-8.63c0-1.48-.32-2.88-2.42-2.88s-3.31.75-3.31,3.45v8h-1.6Z"/><path class="cls-2" d="M113.62,187.9c-.92,1-1.85,1.3-3.72,1.3-3.26,0-4-1.55-4-4s.57-4,4-4c2.42,0,3,.28,3.52,1.15h0V180c0-1.88-.17-2.53-2.82-2.53s-2.68.65-2.68,2.28h-1.6v-.68c0-1.55.37-3,4.35-3,3.56,0,4.36,1.15,4.36,3.63V189h-1.46Zm-3-.3c2.13,0,3-.53,3-2.48s-.92-2.48-3-2.48-3,.53-3,2.48.83,2.48,2.95,2.48Z"/><path class="cls-2" d="M118.15,170.88h1.6V189h-1.6Z"/><path class="cls-2" d="M133.59,172.64h-5v-1.76h11.66v1.76H135.3V189h-1.75Z"/><path class="cls-2" d="M146.27,176c4.2,0,4.7,1.5,4.7,6.58,0,5.28-.55,6.58-4.7,6.58s-4.7-1.3-4.7-6.58C141.57,177.54,142.07,176,146.27,176Zm0,11.71c2.55,0,3-.38,3-5.13s-.4-5.13-3-5.13-3,.37-3,5.13.4,5.17,3,5.17Z"/><path class="cls-2" d="M153.55,176.24h1.6v1.6h0a3.55,3.55,0,0,1,3.52-1.8c3.31,0,4.28,1.57,4.28,6.58s-1,6.58-4.53,6.58c-1.8,0-2.67-.53-3.27-1.8h0v6h-1.6Zm4.65,1.4c-2.3,0-3,1.1-3,4.23,0,4.77.37,5.73,3,5.73,2.5,0,3.05-.58,3.05-5s-.55-5-3.05-5Z"/><path class="cls-2" d="M165.58,176.24h1.6v1.6h0a3.57,3.57,0,0,1,3.53-1.8c3.3,0,4.27,1.57,4.27,6.58s-1,6.58-4.52,6.58c-1.81,0-2.68-.53-3.28-1.8h0v6h-1.6Zm4.65,1.4c-2.3,0-3,1.1-3,4.23,0,4.77.37,5.73,3,5.73,2.5,0,3.05-.58,3.05-5S172.73,177.64,170.23,177.64Z"/><path class="cls-2" d="M179,183v1.18c0,2.77.48,3.58,2.68,3.58,2.58,0,3.13,0,3.13-2.56h1.6v.48c0,2.55-.63,3.53-4.45,3.53-4.21,0-4.71-1.41-4.71-6.58s.85-6.58,4.71-6.58,4.45,1.55,4.45,5V183Zm5.81-1.6c0-2.7,0-3.9-2.9-3.9s-2.91,1.2-2.91,3.9Z"/><path class="cls-2" d="M189,176.24h1.6v1.55h0a2.79,2.79,0,0,1,3-1.75c2,0,3,.87,3,3.42v1h-1.46c0-2.35-.25-3-2.07-3-1.6,0-2.43.87-2.43,2.63V189H189Z"/><path class="cls-2" d="M12,211.36c0,3.93-1.23,4.85-5.61,4.85-4.77,0-6.4-.9-6.4-6.2V203.9c0-5.3,1.63-6.2,6.4-6.2,4,0,5.61.53,5.61,4.73v1.3h-1.6v-1.18c0-2.82-.93-3.1-4-3.1-4.12,0-4.65.55-4.65,4.55v5.91c0,4,.53,4.55,4.65,4.55,3.66,0,4-.8,4-3.28V210H12Z"/><path class="cls-2" d="M14.84,197.9h1.6V216h-1.6Z"/><path class="cls-2" d="M27,214.91c-.92,1-1.85,1.3-3.73,1.3-3.25,0-4-1.55-4-4s.57-4,4-4c2.43,0,3,.27,3.53,1.15h.05V207c0-1.88-.17-2.53-2.83-2.53s-2.67.65-2.67,2.28h-1.6v-.68c0-1.55.37-3,4.35-3,3.55,0,4.35,1.15,4.35,3.63V216H27Zm-3-.3c2.13,0,3-.52,3-2.48s-.92-2.47-3-2.47-3.05.52-3.05,2.47.86,2.48,3,2.48Z"/><path class="cls-2" d="M32.68,212.06c0,2.2.35,2.7,2.72,2.7,2.58,0,3.06-.37,3.06-2.53,0-1.67-.18-1.8-3.2-2-3.21-.18-4.08-.65-4.08-3.48,0-2.68.5-3.73,4.3-3.73s4.45.85,4.45,3.53h-1.6c0-2-.52-2.08-2.93-2.08-2.22,0-2.62.23-2.62,2.21,0,1.8.22,1.95,2.93,2.1,3.77.22,4.35.52,4.35,3.32,0,3-.58,4.08-4.7,4.08-2.93,0-4.28-.35-4.28-4.15Z"/><path class="cls-2" d="M44.26,212.06c0,2.2.35,2.7,2.73,2.7,2.57,0,3-.37,3-2.53,0-1.67-.18-1.8-3.2-2-3.21-.18-4.08-.65-4.08-3.48,0-2.68.5-3.73,4.3-3.73s4.45.85,4.45,3.53h-1.6c0-2-.52-2.08-2.92-2.08-2.23,0-2.63.23-2.63,2.21,0,1.8.22,1.95,2.93,2.1,3.77.22,4.35.52,4.35,3.32,0,3-.58,4.08-4.7,4.08-2.93,0-4.28-.35-4.28-4.15Z"/><path class="cls-2" d="M71,212.18H63.17L62,216H60.17l5.68-18.11H68.3L74,216H72.15Zm-3.78-12.53H67l-3.23,10.78h6.7Z"/><path class="cls-2" d="M77.15,212.06c0,2.2.35,2.7,2.73,2.7,2.58,0,3-.37,3-2.53,0-1.67-.17-1.8-3.2-2-3.2-.18-4.08-.65-4.08-3.48,0-2.68.5-3.73,4.3-3.73s4.46.85,4.46,3.53H82.81c0-2-.53-2.08-2.93-2.08-2.23,0-2.63.23-2.63,2.21,0,1.8.23,1.95,2.93,2.1,3.78.22,4.35.52,4.35,3.32,0,3-.57,4.08-4.7,4.08-2.93,0-4.28-.35-4.28-4.15Z"/><path class="cls-2" d="M88.73,212.06c0,2.2.35,2.7,2.73,2.7,2.58,0,3-.37,3-2.53,0-1.67-.17-1.8-3.2-2-3.2-.18-4.08-.65-4.08-3.48,0-2.68.5-3.73,4.31-3.73s4.45.85,4.45,3.53h-1.6c0-2-.53-2.08-2.93-2.08-2.23,0-2.63.23-2.63,2.21,0,1.8.23,1.95,2.93,2.1,3.78.22,4.35.52,4.35,3.32,0,3-.57,4.08-4.7,4.08-2.93,0-4.28-.35-4.28-4.15Z"/><path class="cls-2" d="M103.22,203.05c4.2,0,4.7,1.5,4.7,6.58,0,5.28-.55,6.58-4.7,6.58s-4.7-1.3-4.7-6.58C98.52,204.55,99,203.05,103.22,203.05Zm0,11.71c2.55,0,3-.37,3-5.13s-.4-5.13-3-5.13-3,.38-3,5.13.4,5.13,3,5.13Z"/><path class="cls-2" d="M117.4,207.51c0-2.33-.45-3-2.58-3-2.55,0-3,.38-3,5.13s.4,5.13,3,5.13c2.31,0,2.81-.62,2.81-3.38h1.6v.83c0,3.3-1.55,4-4.41,4-4.2,0-4.7-1.4-4.7-6.58s.85-6.58,4.7-6.58c3.46,0,4.18,1.08,4.18,4.46Z"/><path class="cls-2" d="M121.88,197.9h1.6V200h-1.6Zm0,5.35h1.6V216h-1.6Z"/><path class="cls-2" d="M134,214.91c-.93,1-1.86,1.3-3.73,1.3-3.25,0-4-1.55-4-4s.58-4,4-4c2.42,0,2.95.27,3.53,1.15h0V207c0-1.88-.18-2.53-2.83-2.53s-2.68.65-2.68,2.28h-1.6v-.68c0-1.55.38-3,4.35-3,3.56,0,4.36,1.15,4.36,3.63V216H134Zm-3.06-.3c2.13,0,3.06-.52,3.06-2.48s-.93-2.47-3.06-2.47-3,.52-3,2.47.91,2.48,3.06,2.48Z"/><path class="cls-2" d="M138.56,204.7h-1.32v-1.45h1.32V200.3h1.6v2.95h4.13v1.45h-4.13v8.53c0,1.05.33,1.53,1.38,1.53s1.73-.22,1.73-3h1.45c0,4.08-1.3,4.5-3.15,4.5-2.36,0-3-.72-3-2.63Z"/><path class="cls-2" d="M146.89,197.9h1.6V200h-1.6Zm0,5.35h1.6V216h-1.6Z"/><path class="cls-2" d="M156,203.05c4.2,0,4.7,1.5,4.7,6.58,0,5.28-.55,6.58-4.7,6.58s-4.71-1.3-4.71-6.58C151.34,204.55,151.84,203.05,156,203.05Zm0,11.71c2.55,0,3-.37,3-5.13s-.4-5.13-3-5.13-2.95.38-2.95,5.13.44,5.13,2.95,5.13Z"/><path class="cls-2" d="M163.18,203.25h1.6v1.65h0c.8-1.37,1.67-1.85,3.52-1.85,3,0,3.76,1.48,3.76,4v9h-1.6v-8.63c0-1.47-.33-2.88-2.43-2.88-1.95,0-3.3.75-3.3,3.46v8h-1.6Z"/></g></g></svg>