<?xml version="1.0" encoding="UTF-8" standalone="no"?>
<svg
   xmlns:dc="http://purl.org/dc/elements/1.1/"
   xmlns:cc="http://creativecommons.org/ns#"
   xmlns:rdf="http://www.w3.org/1999/02/22-rdf-syntax-ns#"
   xmlns:svg="http://www.w3.org/2000/svg"
   xmlns="http://www.w3.org/2000/svg"
   viewBox="0 0 390.53751 241.71249"
   height="241.71249"
   width="390.53751"
   xml:space="preserve"
   version="1.1"
   id="svg2"><metadata
     id="metadata8"><rdf:RDF><cc:Work
         rdf:about=""><dc:format>image/svg+xml</dc:format><dc:type
           rdf:resource="http://purl.org/dc/dcmitype/StillImage" /></cc:Work></rdf:RDF></metadata><defs
     id="defs6" /><g
     transform="matrix(1.25,0,0,-1.25,0,241.7125)"
     id="g10"><g
       transform="scale(0.1,0.1)"
       id="g12"><path
         id="path14"
         style="fill:#26b9e8;fill-opacity:1;fill-rule:nonzero;stroke:none"
         d="m 1714.52,1594.93 c 69.38,-25.05 156.64,-66.49 245.22,-130.36 40.11,138.44 70.7,294.98 83.38,469.17 C 1422.31,1269.08 744.844,702.379 744.844,702.379 l 801.836,0 c 0,0 -41.52,495.081 167.84,892.551" /><path
         id="path16"
         style="fill:#dd048c;fill-opacity:1;fill-rule:evenodd;stroke:none"
         d="M 1959.74,1464.57 C 1815.11,965.488 1546.68,702.379 1546.68,702.379 c 0,0 722.61,0 832.78,0 -41.6,393.391 -233.38,627.731 -419.72,762.191" /><path
         id="path18"
         style="fill:#2f51ab;fill-opacity:1;fill-rule:evenodd;stroke:none"
         d="m 1959.74,1464.57 c -88.58,63.87 -175.84,105.31 -245.22,130.36 -209.36,-397.47 -167.84,-892.551 -167.84,-892.551 0,0 268.43,263.109 413.06,762.191" /><path
         id="path20"
         style="fill:#2f51ab;fill-opacity:1;fill-rule:nonzero;stroke:none"
         d="M 100.289,156.91 80.0625,210.02 59.3047,266.371 40.4336,319.75 25.0625,363.691 c -4.4844,12.77 -7.6328,22.2 -9.4258,28.321 L 4.85547,426.52 C 1.61719,436.578 0,445.211 0,452.398 c 0,9.332 2.78125,16.793 8.35938,22.372 5.57032,5.558 13.74612,8.351 24.52732,8.351 8.2656,0 15.0039,-1.07 20.2227,-3.242 5.2109,-2.149 8.5312,-3.59 9.9765,-4.297 2.5079,-10.07 5.8438,-22.113 9.9688,-36.133 l 14.0195,-45.84 16.4458,-51.757 17.527,-53.653 17.254,-51.758 c 5.57,-16.711 10.875,-31.89 15.902,-45.562 l 20.758,71.18 21.305,75.48 18.328,66.871 11.859,45.281 c 2.883,10.071 7.106,18.161 12.684,24.27 5.558,6.109 14.468,9.16 26.683,9.16 8.262,0 15.633,-1.07 22.11,-3.242 6.468,-2.149 10.593,-3.77 12.398,-4.848 l 15.098,-62.812 18.328,-72.25 20.223,-75.758 20.757,-72.789 23.727,70.367 22.379,69.832 19.402,63.879 15.371,52.582 c 3.59,12.207 8.446,21.109 14.555,26.688 6.121,5.558 14.922,8.351 26.43,8.351 10.062,0 18.324,-1.519 24.797,-4.57 6.472,-3.071 10.425,-5.129 11.863,-6.211 -6.473,-23.731 -14.551,-50.238 -24.266,-79.531 l -31,-91.661 -34.512,-95.976 -35.312,-91.934 -72.25,0 c -2.164,6.114 -5.039,14.832 -8.629,26.153 -3.598,11.328 -7.461,24.179 -11.598,38.55 l -13.48,46.637 c -4.852,16.711 -9.523,33.621 -14.02,50.692 l -12.941,49.871 -11.051,44.757 c -3.23,-13.296 -7.008,-28.046 -11.316,-44.218 L 239.398,276.34 225.105,226.48 211.09,179.84 198.688,140.738 c -3.77,-11.508 -6.918,-20.679 -9.43,-27.5 l -71.719,0 -17.25,43.672" /><path
         id="path22"
         style="fill:#2f51ab;fill-opacity:1;fill-rule:nonzero;stroke:none"
         d="m 690.449,166.891 c 10.418,4.488 19.324,10.781 26.692,18.871 7.367,8.09 13.113,17.437 17.25,28.027 4.132,10.621 6.207,22.199 6.207,34.781 0,12.578 -2.075,24.352 -6.207,35.321 -4.137,10.968 -9.883,20.398 -17.25,28.308 -7.368,7.91 -16.274,14.11 -26.692,18.602 -10.426,4.488 -21.754,6.738 -33.969,6.738 -12.585,0 -23.996,-2.25 -34.246,-6.738 -10.242,-4.492 -19.043,-10.692 -26.414,-18.602 -7.375,-7.91 -13.117,-17.34 -17.257,-28.308 -4.133,-10.969 -6.2,-22.743 -6.2,-35.321 0,-12.582 2.067,-24.16 6.2,-34.781 4.14,-10.59 9.882,-19.937 17.257,-28.027 7.371,-8.09 16.172,-14.383 26.414,-18.871 10.25,-4.493 21.661,-6.743 34.246,-6.743 12.215,0 23.543,2.25 33.969,6.743 z M 714.98,380.68 c 18.157,-7.192 33.875,-17.168 47.176,-29.918 13.305,-12.774 23.727,-27.871 31.274,-45.301 7.554,-17.43 11.328,-36.402 11.328,-56.891 0,-20.121 -3.774,-38.91 -11.328,-56.34 -7.547,-17.429 -17.969,-32.531 -31.274,-45.281 -13.301,-12.777 -29.019,-22.828 -47.176,-30.211 -18.156,-7.367 -37.656,-11.039 -58.5,-11.039 -20.843,0 -40.351,3.672 -58.507,11.039 -18.153,7.383 -33.871,17.434 -47.172,30.211 -13.301,12.75 -23.731,27.852 -31.274,45.281 -7.554,17.43 -11.328,36.219 -11.328,56.34 0,20.489 3.774,39.461 11.328,56.891 7.543,17.43 17.973,32.527 31.274,45.301 13.301,12.75 29.019,22.726 47.172,29.918 18.156,7.191 37.664,10.781 58.507,10.781 20.844,0 40.344,-3.59 58.5,-10.781" /><path
         id="path24"
         style="fill:#2f51ab;fill-opacity:1;fill-rule:nonzero;stroke:none"
         d="m 868.316,364.23 c 20.305,18.149 48.43,27.231 84.375,27.231 22.657,0 41.079,-3.141 55.269,-9.43 14.2,-6.293 21.3,-15.902 21.3,-28.851 0,-6.11 -1.71,-12.051 -5.12,-17.789 -3.42,-5.762 -6.21,-9.34 -8.36,-10.801 -6.11,2.89 -13.66,5.582 -22.643,8.101 -8.992,2.52 -19.235,3.77 -30.739,3.77 -42.05,0 -63.078,-22.289 -63.078,-66.859 l 0,-156.364 -61.472,0 0,174.16 c 0,33.063 10.148,58.692 30.468,76.832" /><path
         id="path26"
         style="fill:#2f51ab;fill-opacity:1;fill-rule:nonzero;stroke:none"
         d="m 1065.4,503.609 c 5.75,4.68 13.83,7.012 24.26,7.012 6.47,0 12.4,-0.801 17.79,-2.422 5.39,-1.621 8.99,-2.789 10.79,-3.508 l 0,-391.453 -61.47,0 0,368.813 c 0,9.699 2.87,16.89 8.63,21.558" /><path
         id="path28"
         style="fill:#2f51ab;fill-opacity:1;fill-rule:nonzero;stroke:none"
         d="m 1377.92,283.082 c -4.13,10.789 -9.79,20.137 -16.98,28.047 -7.19,7.91 -15.91,14.101 -26.15,18.59 -10.24,4.492 -21.47,6.742 -33.71,6.742 -12.57,0 -23.89,-2.25 -33.96,-6.742 -10.06,-4.489 -18.78,-10.598 -26.14,-18.328 -7.38,-7.719 -13.04,-16.981 -16.99,-27.762 -3.96,-10.789 -5.94,-22.481 -5.94,-35.059 0,-12.582 1.98,-24.16 5.94,-34.781 3.95,-10.59 9.61,-19.769 16.99,-27.5 7.36,-7.719 16.08,-13.828 26.14,-18.328 10.07,-4.492 21.39,-6.731 33.96,-6.731 12.24,0 23.47,2.149 33.71,6.469 10.24,4.313 18.96,10.242 26.15,17.789 7.19,7.551 12.85,16.723 16.98,27.5 4.14,10.782 6.21,22.653 6.21,35.582 0,12.231 -2.07,23.731 -6.21,34.512 z m 14.56,220.527 c 5.57,4.68 13.57,7.012 23.99,7.012 6.48,0 12.41,-0.801 17.8,-2.422 5.39,-1.621 8.99,-2.789 10.78,-3.508 l 0,-243.171 c 0,-26.25 -3.68,-49.059 -11.05,-68.481 -7.36,-19.41 -17.53,-35.578 -30.46,-48.527 -12.94,-12.934 -28.22,-22.641 -45.83,-29.114 -17.62,-6.468 -36.85,-9.699 -57.7,-9.699 -21.21,0 -40.71,3.582 -58.5,10.781 -17.79,7.192 -33.16,17.071 -46.1,29.649 -12.94,12.582 -23.1,27.672 -30.46,45.293 -7.37,17.617 -11.06,36.668 -11.06,57.148 0,20.86 3.5,40 10.51,57.43 7.01,17.43 16.72,32.531 29.12,45.289 12.4,12.77 26.96,22.652 43.67,29.66 16.72,7 34.96,10.512 54.73,10.512 20.86,0 39.18,-4.039 55,-12.129 15.82,-8.094 28.22,-17.883 37.21,-29.391 l 0,132.11 c 0,9.699 2.78,16.89 8.35,21.558" /><path
         id="path30"
         style="fill:#2f51ab;fill-opacity:1;fill-rule:nonzero;stroke:none"
         d="m 1604.71,187.379 c 7.91,-4.141 17.7,-8.258 29.38,-12.399 11.68,-4.152 24.99,-7.64 39.9,-10.511 14.93,-2.891 31.2,-4.321 48.8,-4.321 31.27,0 53.65,4.582 67.13,13.75 13.49,9.161 20.23,22.192 20.23,39.09 0,8.262 -1.54,15.274 -4.59,21.032 -3.05,5.75 -7.54,10.691 -13.48,14.82 -5.93,4.129 -13.12,7.461 -21.56,9.98 -8.45,2.512 -18.07,4.668 -28.85,6.469 l -59.32,10.781 c -15.09,2.52 -29.64,6.289 -43.68,11.328 -14.01,5.043 -26.41,11.68 -37.2,19.942 -10.78,8.281 -19.41,18.441 -25.87,30.469 -6.48,12.05 -9.72,26.511 -9.72,43.41 0,15.09 2.78,29.48 8.37,43.133 5.56,13.66 14.46,25.527 26.69,35.589 12.21,10.059 27.66,18.059 46.35,24 18.72,5.918 41.35,8.887 67.95,8.887 19.42,0 36.31,-1.078 50.69,-3.238 14.38,-2.149 26.6,-4.75 36.66,-7.809 10.08,-3.062 18.16,-6.199 24.28,-9.441 6.11,-3.238 10.59,-5.75 13.47,-7.539 5.74,-3.973 10.42,-8.281 14.02,-12.949 3.6,-4.672 5.4,-10.063 5.4,-16.172 0,-8.282 -2.52,-15.91 -7.56,-22.91 -5.02,-7.008 -9.7,-11.961 -14.02,-14.848 -3.23,3.598 -8.36,7.648 -15.37,12.137 -7,4.5 -15.63,8.711 -25.88,12.671 -10.24,3.95 -22.19,7.372 -35.86,10.25 -13.65,2.872 -28.57,4.321 -44.75,4.321 -16.17,0 -29.74,-1.27 -40.7,-3.781 -10.96,-2.508 -19.69,-6.032 -26.16,-10.52 -6.47,-4.488 -11.15,-9.879 -14.02,-16.168 -2.87,-6.293 -4.32,-13.391 -4.32,-21.301 0,-13.66 5.32,-24.359 15.91,-32.082 10.62,-7.73 28.31,-13.929 53.12,-18.609 l 60.39,-11.309 c 39.18,-7.199 68.66,-18.961 88.42,-35.332 19.78,-16.347 29.66,-39.98 29.66,-70.898 0,-17.262 -3.41,-32.789 -10.24,-46.641 -6.84,-13.828 -16.81,-25.781 -29.93,-35.859 -13.12,-10.063 -29.48,-17.789 -49.07,-23.18 -19.59,-5.391 -42.14,-8.09 -67.66,-8.09 -21.57,0 -41.34,1.719 -59.32,5.117 -17.98,3.422 -33.96,7.563 -48,12.411 -14.01,4.851 -25.69,9.793 -35.03,14.82 -9.35,5.031 -16.18,9 -20.5,11.871 l 28.03,50.141 c 3.97,-2.879 9.91,-6.371 17.81,-10.512" /><path
         id="path32"
         style="fill:#2f51ab;fill-opacity:1;fill-rule:nonzero;stroke:none"
         d="m 2079.3,237.262 c -9.88,1.429 -24.72,2.148 -44.49,2.148 -24.45,0 -42.23,-3.691 -53.37,-11.058 -11.14,-7.364 -16.71,-18.961 -16.71,-34.762 0,-6.488 1.16,-12.418 3.5,-17.809 2.34,-5.39 6.37,-9.972 12.13,-13.75 5.74,-3.769 13.57,-6.64 23.45,-8.633 9.89,-1.957 22.21,-2.957 36.94,-2.957 16.54,0 29.65,0.629 39.36,1.899 9.7,1.25 16.17,2.23 19.41,2.949 l 0,78.731 c -3.59,0.718 -10.34,1.8 -20.22,3.242 z m 64.17,-125.371 c -7.74,-0.903 -16.82,-1.801 -27.23,-2.7 -10.43,-0.89 -22.11,-1.703 -35.06,-2.421 -12.93,-0.719 -26.41,-1.071 -40.43,-1.071 -28.04,0 -50.96,2.422 -68.75,7.262 -17.79,4.867 -31.81,11.328 -42.05,19.418 -10.25,8.082 -17.25,17.441 -21.03,28.031 -3.78,10.621 -5.67,21.481 -5.67,32.629 0,14.731 2.25,27.68 6.74,38.832 4.49,11.129 11.87,20.488 22.11,28.027 10.25,7.551 23.63,13.211 40.18,16.993 16.52,3.769 36.66,5.648 60.39,5.648 13.65,0 26.59,-0.449 38.81,-1.348 12.22,-0.902 21.38,-1.703 27.5,-2.429 0,12.59 -2.06,23.019 -6.2,31.277 -4.14,8.281 -9.8,14.742 -16.99,19.41 -7.19,4.68 -15.82,7.91 -25.88,9.711 -10.06,1.801 -21.21,2.692 -33.43,2.692 -20.48,0 -36.94,-2.332 -49.33,-7.012 -12.4,-4.668 -20.58,-8.621 -24.53,-11.86 -2.16,1.801 -5.13,5.219 -8.9,10.258 -3.77,5.024 -5.66,11.133 -5.66,18.321 0,5.043 1.34,9.98 4.04,14.832 2.69,4.847 7.46,9.168 14.29,12.941 6.82,3.77 16,6.738 27.5,8.887 11.49,2.172 26.06,3.242 43.67,3.242 21.21,0 40.54,-2.07 57.97,-6.191 17.43,-4.141 32.44,-10.7 45.02,-19.688 12.58,-8.98 22.37,-20.852 29.38,-35.594 7.01,-14.738 10.52,-32.527 10.52,-53.367 l 0,-162.301 c -3.59,-0.711 -9.27,-1.531 -16.98,-2.429" /><path
         id="path34"
         style="fill:#2f51ab;fill-opacity:1;fill-rule:nonzero;stroke:none"
         d="m 2216.34,377.172 c 5.75,4.488 13.83,6.75 24.26,6.75 6.47,0 12.4,-0.82 17.79,-2.442 5.39,-1.601 8.99,-2.769 10.79,-3.5 l 0,-264.742 -61.47,0 0,242.09 c 0,10.07 2.87,17.352 8.63,21.844 z m 48.52,117.277 c 7.19,-7.187 10.78,-16 10.78,-26.418 0,-10.429 -3.59,-19.242 -10.78,-26.429 -7.19,-7.192 -16,-10.782 -26.41,-10.782 -10.43,0 -19.24,3.59 -26.43,10.782 -7.19,7.187 -10.78,16 -10.78,26.429 0,10.418 3.59,19.231 10.78,26.418 7.19,7.192 16,10.781 26.43,10.781 10.41,0 19.22,-3.589 26.41,-10.781" /><path
         id="path36"
         style="fill:#2f51ab;fill-opacity:1;fill-rule:nonzero;stroke:none"
         d="m 2327.7,503.609 c 5.75,4.68 13.83,7.012 24.26,7.012 6.47,0 12.4,-0.801 17.79,-2.422 5.39,-1.621 8.99,-2.789 10.79,-3.508 l 0,-391.453 -61.47,0 0,368.813 c 0,9.699 2.87,16.89 8.63,21.558" /><path
         id="path38"
         style="fill:#2f51ab;fill-opacity:1;fill-rule:nonzero;stroke:none"
         d="m 2438.46,377.172 c 5.75,4.488 13.83,6.75 24.26,6.75 6.47,0 12.4,-0.82 17.79,-2.442 5.39,-1.601 8.99,-2.769 10.79,-3.5 l 0,-264.742 -61.47,0 0,242.09 c 0,10.07 2.88,17.352 8.63,21.844 z m 48.52,117.277 c 7.19,-7.187 10.78,-16 10.78,-26.418 0,-10.429 -3.59,-19.242 -10.78,-26.429 -7.19,-7.192 -15.99,-10.782 -26.41,-10.782 -10.43,0 -19.24,3.59 -26.43,10.782 -7.18,7.187 -10.78,16 -10.78,26.429 0,10.418 3.6,19.231 10.78,26.418 7.19,7.192 16,10.781 26.43,10.781 10.42,0 19.22,-3.589 26.41,-10.781" /><path
         id="path40"
         style="fill:#2f51ab;fill-opacity:1;fill-rule:nonzero;stroke:none"
         d="m 2547.18,324.879 c 6.65,14.199 15.81,26.23 27.49,36.121 11.69,9.879 25.53,17.43 41.51,22.648 16.01,5.204 33.54,7.813 52.58,7.813 19.04,0 36.66,-2.609 52.83,-7.813 16.19,-5.218 30.12,-12.769 41.8,-22.648 11.68,-9.891 20.76,-21.922 27.23,-36.121 6.47,-14.199 9.7,-30.301 9.7,-48.258 l 0,-163.383 -61.46,0 0,147.742 c 0,24.43 -5.94,43.04 -17.8,55.801 -11.86,12.77 -29.29,19.141 -52.3,19.141 -23.37,0 -40.89,-6.371 -52.58,-19.141 -11.68,-12.761 -17.52,-31.371 -17.52,-55.801 l 0,-147.742 -61.46,0 0,163.383 c 0,17.957 3.33,34.059 9.98,48.258" /><path
         id="path42"
         style="fill:#2f51ab;fill-opacity:1;fill-rule:nonzero;stroke:none"
         d="m 3013.77,170.391 c 10.07,4.32 18.69,10.25 25.89,17.789 7.19,7.558 12.84,16.539 16.97,26.968 4.13,10.422 6.2,21.922 6.2,34.5 0,12.223 -2.07,23.641 -6.2,34.243 -4.13,10.597 -9.78,19.781 -16.97,27.5 -7.2,7.73 -15.82,13.75 -25.89,18.058 -10.07,4.313 -21.2,6.473 -33.44,6.473 -12.58,0 -23.98,-2.25 -34.23,-6.742 -10.24,-4.489 -18.96,-10.692 -26.15,-18.598 -7.19,-7.91 -12.75,-17.07 -16.72,-27.5 -3.94,-10.422 -5.94,-21.562 -5.94,-33.434 0,-25.878 7.56,-46.636 22.66,-62.269 15.1,-15.641 35.24,-23.457 60.38,-23.457 12.24,0 23.37,2.168 33.44,6.469 z M 2887.33,62.8281 c 4.85,-1.9883 10.96,-3.957 18.32,-5.9375 7.39,-1.9687 16.01,-3.6718 25.88,-5.1211 9.91,-1.4414 20.59,-2.1601 32.09,-2.1601 12.23,0 24.27,1.3515 36.14,4.039 11.85,2.7032 22.46,7.5625 31.8,14.5704 9.35,7.0117 16.98,16.7929 22.91,29.3828 5.94,12.5894 8.91,28.7574 8.91,48.5274 l 0,6.473 c -8.27,-9.711 -20.23,-18.872 -35.86,-27.5 -15.64,-8.622 -34.42,-12.942 -56.35,-12.942 -20.13,0 -38.64,3.32 -55.54,9.969 -16.89,6.652 -31.45,16.012 -43.67,28.043 -12.22,12.047 -21.75,26.508 -28.57,43.418 -6.84,16.879 -10.26,35.57 -10.26,56.058 0,20.493 3.7,39.372 11.07,56.614 7.36,17.269 17.52,32.179 30.46,44.769 12.95,12.578 28.47,22.457 46.64,29.649 18.14,7.191 38.01,10.781 59.58,10.781 20.5,0 39.44,-3.063 56.88,-9.16 17.43,-6.11 32.62,-15.461 45.56,-28.039 12.95,-12.59 23.02,-28.582 30.21,-48 7.17,-19.403 10.78,-42.223 10.78,-68.473 l 0,-77.641 c 0,-28.398 -3.87,-52.75 -11.6,-73.0699 -7.73,-20.2968 -18.42,-36.9297 -32.08,-49.8672 C 3066.96,24.2695 3050.7,14.8398 3031.83,8.91016 3012.96,2.96875 2992.37,0 2970.1,0 c -14.75,0 -28.14,0.820313 -40.18,2.44141 -12.04,1.61718 -22.72,3.58984 -32.08,5.91797 -9.33,2.33982 -17.08,4.67972 -23.18,7.01172 -6.12,2.3398 -10.61,4.2187 -13.49,5.668 l 16.72,45.832 c 1.44,-0.7227 4.58,-2.0703 9.44,-4.043" /></g></g></svg>